<svg width="145" height="145" fill="none" xmlns="http://www.w3.org/2000/svg"><circle cx="72.5" cy="72.5" r="72.5" fill="#4BCF84" fill-opacity=".13"/><circle cx="73" cy="73" r="55" fill="#4BCF84" fill-opacity=".27"/><path d="M91.817 42H53.184c-2.847 0-5.084 2.237-5.084 5.083v50.834c0 2.846 2.237 5.083 5.084 5.083h38.633c2.847 0 5.083-2.237 5.083-5.083V47.083c0-2.846-2.237-5.083-5.083-5.083zm3.05 55.917c0 1.728-1.322 3.05-3.05 3.05H53.184c-1.729 0-3.05-1.322-3.05-3.05V47.083c0-1.728 1.321-3.05 3.05-3.05h38.633c1.728 0 3.05 1.322 3.05 3.05v50.834z" fill="#2ABC69"/><path d="M86.734 47.083H58.267c-1.729 0-3.05 1.322-3.05 3.05v8.134c0 1.728 1.321 3.05 3.05 3.05h28.466c1.729 0 3.05-1.322 3.05-3.05v-8.134c0-1.728-1.321-3.05-3.05-3.05zm1.016 11.184c0 .61-.406 1.016-1.016 1.016H58.267c-.61 0-1.017-.407-1.017-1.017v-8.133c0-.61.407-1.016 1.017-1.016h28.466c.61 0 1.017.406 1.017 1.016v8.133zM62.333 63.35h-4.066c-1.729 0-3.05 1.322-3.05 3.05v4.067c0 1.728 1.321 3.05 3.05 3.05h4.066c1.729 0 3.05-1.322 3.05-3.05V66.4c0-1.728-1.321-3.05-3.05-3.05zm1.017 7.117c0 .61-.407 1.016-1.017 1.016h-4.066c-.61 0-1.017-.406-1.017-1.016V66.4c0-.61.407-1.017 1.017-1.017h4.066c.61 0 1.017.407 1.017 1.017v4.067zm11.183-7.117h-4.066c-1.729 0-3.05 1.322-3.05 3.05v4.067c0 1.728 1.321 3.05 3.05 3.05h4.066c1.729 0 3.05-1.322 3.05-3.05V66.4c0-1.728-1.321-3.05-3.05-3.05zm1.017 7.117c0 .61-.407 1.016-1.017 1.016h-4.066c-.61 0-1.017-.406-1.017-1.016V66.4c0-.61.407-1.017 1.017-1.017h4.066c.61 0 1.017.407 1.017 1.017v4.067zm11.184-7.117h-4.067c-1.728 0-3.05 1.322-3.05 3.05v4.067c0 1.728 1.322 3.05 3.05 3.05h4.067c1.728 0 3.05-1.322 3.05-3.05V66.4c0-1.728-1.322-3.05-3.05-3.05zm1.016 7.117c0 .61-.406 1.016-1.016 1.016h-4.067c-.61 0-1.017-.406-1.017-1.016V66.4c0-.61.407-1.017 1.017-1.017h4.067c.61 0 1.016.407 1.016 1.017v4.067zM62.333 75.55h-4.066c-1.729 0-3.05 1.322-3.05 3.05v4.067c0 1.728 1.321 3.05 3.05 3.05h4.066c1.729 0 3.05-1.322 3.05-3.05V78.6c0-1.728-1.321-3.05-3.05-3.05zm1.017 7.117c0 .61-.407 1.016-1.017 1.016h-4.066c-.61 0-1.017-.406-1.017-1.016V78.6c0-.61.407-1.017 1.017-1.017h4.066c.61 0 1.017.407 1.017 1.017v4.067zm11.183-7.117h-4.066c-1.729 0-3.05 1.322-3.05 3.05v4.067c0 1.728 1.321 3.05 3.05 3.05h4.066c1.729 0 3.05-1.322 3.05-3.05V78.6c0-1.728-1.321-3.05-3.05-3.05zm1.017 7.117c0 .61-.407 1.016-1.017 1.016h-4.066c-.61 0-1.017-.406-1.017-1.016V78.6c0-.61.407-1.017 1.017-1.017h4.066c.61 0 1.017.407 1.017 1.017v4.067zM62.333 87.75h-4.066c-1.729 0-3.05 1.322-3.05 3.05v4.067c0 1.728 1.321 3.05 3.05 3.05h4.066c1.729 0 3.05-1.322 3.05-3.05V90.8c0-1.728-1.321-3.05-3.05-3.05zm1.017 7.117c0 .61-.407 1.016-1.017 1.016h-4.066c-.61 0-1.017-.406-1.017-1.016V90.8c0-.61.407-1.017 1.017-1.017h4.066c.61 0 1.017.407 1.017 1.017v4.067zm11.183-7.117h-4.066c-1.729 0-3.05 1.322-3.05 3.05v4.067c0 1.728 1.321 3.05 3.05 3.05h4.066c1.729 0 3.05-1.322 3.05-3.05V90.8c0-1.728-1.321-3.05-3.05-3.05zm1.017 7.117c0 .61-.407 1.016-1.017 1.016h-4.066c-.61 0-1.017-.406-1.017-1.016V90.8c0-.61.407-1.017 1.017-1.017h4.066c.61 0 1.017.407 1.017 1.017v4.067zM86.734 75.55h-4.067c-1.728 0-3.05 1.322-3.05 3.05v16.267c0 1.728 1.322 3.05 3.05 3.05h4.067c1.728 0 3.05-1.322 3.05-3.05V78.6c0-1.728-1.322-3.05-3.05-3.05zm1.016 19.317c0 .61-.406 1.016-1.016 1.016h-4.067c-.61 0-1.017-.406-1.017-1.016V78.6c0-.61.407-1.017 1.017-1.017h4.067c.61 0 1.016.407 1.016 1.017v16.267z" fill="#2ABC69"/></svg>