<svg width="198" height="168" fill="none" xmlns="http://www.w3.org/2000/svg"><path opacity=".1" d="M192.717 114.225c-.195.143-.375.283-.566.418-.706.501-1.446.954-2.213 1.354-4.019 2.127-8.974 3.166-13.8 3.872-10.824 1.583-21.874 1.891-32.878 2.193-29.731.819-59.534 1.637-89.193-.251-11.718-.745-23.694-1.991-34.313-5.814a61.088 61.088 0 01-4.476-1.807c-2.96-1.335-5.8-2.96-8.164-4.9-2.22-1.819-4.021-3.909-5.097-6.285C-.227 98.058.96 92.501 3.522 87.652a47.733 47.733 0 013.592-5.64c1.978-2.73 4.16-5.382 6.15-8.11 7.082-9.7 11.703-21.97 5.166-31.918-1.879-2.858-4.594-5.367-6.125-8.35-1.953-3.816-1.802-8.054-1.181-12.17.08-.523.166-1.04.255-1.553 1.061-6.104 3.057-12.68 9.211-16.49C26.982-.54 36.06-.34 43.993 1.067c12.338 2.211 23.718 6.814 35.22 10.97 11.5 4.155 23.533 7.951 36.174 8.36 11.161.36 24.18-2.34 31.588-9.355 7.195-6.813 20.72-7.333 30.467-3.216 6.691 2.824 11.683 7.913 13.789 13.636.426 1.15.733 2.34.916 3.552.169 1.108.223 2.23.164 3.35a18.1 18.1 0 01-.164 1.64c-1.629 11.295-13.353 20.204-20.48 30.293-3.482 4.928-5.941 10.847-3.547 16.161 3.653 8.097 16.353 10.977 24.023 17.002a18.075 18.075 0 013.769 3.882c3.721 5.363 2.348 12.605-3.195 16.882z" fill="#6C63FF"/><path d="M192.51 114.604V18.727H6.708v90.376c2.373 1.988 5.226 3.66 8.203 5.034a60.132 60.132 0 004.492 1.86h170.89l2.217-1.393z" fill="url(#paint0_linear_276_5)"/><path d="M192.151 114.643V21.471H7.114v87.834c2.363 1.933 5.205 3.558 8.164 4.901a66.383 66.383 0 004.476 1.807h170.184l2.213-1.37z" fill="#fff"/><path d="M192.151 19H7.116v4.927h185.035V19z" fill="#5A5773"/><path d="M10.811 22.738c.701 0 1.27-.57 1.27-1.274 0-.704-.569-1.274-1.27-1.274-.701 0-1.27.57-1.27 1.273 0 .704.569 1.275 1.27 1.275zm3.418 0c.701 0 1.27-.57 1.27-1.274 0-.704-.569-1.274-1.27-1.274-.701 0-1.27.57-1.27 1.273 0 .704.569 1.275 1.27 1.275zm3.418 0c.7 0 1.27-.57 1.27-1.274 0-.704-.57-1.274-1.27-1.274-.701 0-1.27.57-1.27 1.273 0 .704.569 1.275 1.27 1.275z" fill="#fff"/><path d="M84.966 34.757H54.4v19.276h30.565V34.757z" fill="#6C63FF"/><path opacity=".2" d="M42.646 34.757H12.08v19.276h30.565V34.757zm84.64 0H96.721v19.276h30.565V34.757zm-84.64 27.558H12.08V81.59h30.565V62.315zm42.32 0H54.4V81.59h30.565V62.315zm42.32 0H96.721V81.59h30.565V62.315zM42.646 89.87H12.08v19.277h30.565V89.871zm42.32 0H54.4v19.277h30.565V89.871zm42.32 0H96.721v19.277h30.565V89.871z" fill="#5A5773"/><path opacity=".1" d="M141.557 5.923s-7.431-.449-6.554 4.777c0 0-.174.923.66 1.343 0 0 .014-.392.762-.257a3.4 3.4 0 00.806.04c.364-.026.71-.17.985-.41 0 0 2.087-.865 2.9-4.291 0 0 .601-.749.586-.941l-1.254.539s.428.908.09 1.662c0 0-.039-1.63-.281-1.591-.049 0-.651.313-.651.313s.736 1.582.18 2.733c0 0 .211-1.949-.41-2.617l-.887.527s.861 1.633.277 2.966c0 0 .151-2.045-.463-2.84l-.8.625s.81 1.601.322 2.707c0 0-.064-2.382-.49-2.56 0 0-.699.62-.805.874 0 0 .553 1.176.209 1.784 0 0-.211-1.584-.391-1.592 0 0-.697 1.05-.769 1.764a3.836 3.836 0 01.6-1.872 2.08 2.08 0 00-1.067.557s.108-.743 1.238-.81c0 0 .577-.795.731-.844 0 0-1.125-.094-1.807.21 0 0 .6-.702 2.014-.393l.781-.646s-1.48-.196-2.109.021c0 0 .722-.62 2.322-.168l.859-.516s-1.261-.274-2.013-.174c0 0 .793-.43 2.265.035l.615-.277s-.925-.182-1.195-.211c-.269-.03-.285-.104-.285-.104a3.183 3.183 0 011.736.196s1.315-.476 1.293-.559zm-10.591-4.237s-6.25 4.059-2.459 7.746c0 0 .404.847 1.324.69 0 0-.218-.321.463-.66.242-.123.468-.273.674-.45.278-.236.472-.558.553-.915 0 0 1.171-1.94-.196-5.182 0 0 .043-.96-.089-1.102l-.692 1.176s.881.476 1.055 1.284c0 0-.994-1.288-1.172-1.113-.035.035-.34.64-.34.64s1.529.836 1.758 2.092c0 0-.977-1.696-1.877-1.862l-.406.94s1.66.804 1.976 2.226c0 0-1.088-1.737-2.05-2.014l-.274.98s1.602.816 1.857 2c0 0-1.457-1.878-1.906-1.764 0 0-.195.913-.133 1.176 0 0 1.137.611 1.223 1.313 0 0-1.105-1.15-1.248-1.054 0 0 .059 1.26.424 1.883a3.84 3.84 0 01-.621-1.864c-.279.3-.464.677-.531 1.082 0 0-.352-.662.521-1.388 0 0 0-.98.088-1.115 0 0-.961.588-1.332 1.243 0 0 .07-.921 1.396-1.506l.254-.99s-1.312.718-1.685 1.273c0 0 .217-.93 1.769-1.517l.391-.928s-1.172.532-1.727 1.059c0 0 .391-.82 1.848-1.32l.332-.587s-.853.403-1.088.54c-.234.138-.291.087-.291.087a3.2 3.2 0 011.514-.876s.763-1.169.697-1.223zm-9.511 4.729s-3.737 6.469 1.308 8.023c0 0 .744.57 1.492 0 0 0-.338-.184.116-.798.157-.219.288-.456.39-.706a1.7 1.7 0 00.08-1.068s.166-2.262-2.519-4.53c0 0-.391-.874-.586-.939l-.084 1.373s1 .023 1.521.664c0 0-1.468-.696-1.543-.463-.015.047-.013.726-.013.726s1.756.053 2.537 1.068c0 0-1.641-1.064-2.514-.806l.063 1.024s1.841-.04 2.765 1.083c0 0-1.758-1.052-2.734-.86l.195.998s1.797 0 2.559.937c0 0-2.149-1.012-2.498-.712 0 0 .236.906.416 1.115 0 0 1.289.028 1.683.614 0 0-1.505-.523-1.589-.37 0 0 .623 1.095 1.23 1.483a3.816 3.816 0 01-1.396-1.372c-.113.395-.107.814.015 1.206 0 0-.613-.43-.164-1.474 0 0-.449-.874-.424-1.033 0 0-.586.966-.625 1.713 0 0-.355-.853.563-1.976l-.221-1s-.846 1.237-.928 1.902c0 0-.226-.927.893-2.156l-.074-1.002s-.809 1.01-1.059 1.729c0 0-.027-.906 1.049-2.017l.029-.676s-.586.746-.724.98c-.139.233-.221.2-.221.2a3.23 3.23 0 01.953-1.473s.141-1.39.059-1.407z" fill="#6C63FF"/><path d="M153.533 80.152a2.789 2.789 0 00-2.582 1.732 2.818 2.818 0 00.606 3.056 2.793 2.793 0 003.046.609 2.8 2.8 0 001.725-2.592 2.816 2.816 0 00-.821-1.981 2.797 2.797 0 00-1.974-.824zm-8.171-22.01v2.805h2.794l5.032 10.228-2.104 3.436c-.229.406-.35.865-.35 1.333 0 1.877 1.28 2.805 3.014 2.805h16.341V76.05H154.09a.326.326 0 01-.254-.096.337.337 0 01-.096-.254 1.77 1.77 0 01.149-.35l1.396-2.212h10.412a2.73 2.73 0 002.445-1.472l5.033-8.686c.098-.22.146-.46.141-.702a1.35 1.35 0 00-.871-1.247 1.342 1.342 0 00-.528-.085h-20.684l-1.329-2.805h-4.542zm21.93 22.01a2.79 2.79 0 00-2.58 1.733 2.809 2.809 0 002.038 3.823 2.783 2.783 0 002.868-1.193 2.812 2.812 0 00.471-1.558 2.818 2.818 0 00-.821-1.982 2.8 2.8 0 00-1.976-.823z" fill="#6C63FF"/><path d="M163.716 65.902h-2.343V63.55h-1.758v2.352h-2.344v1.764h2.344v2.352h1.758v-2.352h2.343v-1.764z" fill="#fff"/><path opacity=".7" d="M40.101 82.95l-33.9 20.911s0 43.132 33.9 66.655C74 146.989 74 103.861 74 103.861l-33.899-20.91z" fill="url(#paint1_linear_276_5)"/><path d="M39.983 85L8 104.822S8 145.703 40 168c32-22.297 32-63.178 32-63.178L39.983 85z" fill="#6C63FF"/><path opacity=".05" d="M40.556 85l-.556.352v82.261l.556.387C73 145.708 73 104.838 73 104.838L40.556 85z" fill="#000"/><path d="M40 91l-28 17.432S12 144.386 40 164c28-19.614 28-55.568 28-55.568L40 91z" fill="#6C63FF"/><path opacity=".08" d="M40 91v73c28-19.617 28-55.579 28-55.579L40 91z" fill="#000"/><defs><linearGradient id="paint0_linear_276_5" x1="99.608" y1="115.997" x2="99.608" y2="18.727" gradientUnits="userSpaceOnUse"><stop stop-color="gray" stop-opacity=".25"/><stop offset=".54" stop-color="gray" stop-opacity=".12"/><stop offset="1" stop-color="gray" stop-opacity=".1"/></linearGradient><linearGradient id="paint1_linear_276_5" x1="31162.8" y1="63419.9" x2="31162.8" y2="41517.2" gradientUnits="userSpaceOnUse"><stop stop-color="gray" stop-opacity=".25"/><stop offset=".54" stop-color="gray" stop-opacity=".12"/><stop offset="1" stop-color="gray" stop-opacity=".1"/></linearGradient></defs></svg>