<svg width="29" height="29" fill="none" xmlns="http://www.w3.org/2000/svg"><path d="M28.434 14.406h-.34V6.703a2.268 2.268 0 00-2.133-2.261l-.581-2.404a1.36 1.36 0 00-1.64-1L9.633 4.454a.452.452 0 00-.117-.016h-7.25A2.268 2.268 0 000 6.703v19.032A2.268 2.268 0 002.266 28h23.562a2.268 2.268 0 002.266-2.265v-4.078h.34A.567.567 0 0029 21.09v-6.117a.567.567 0 00-.566-.567zm-1.247-7.703v.001a2.257 2.257 0 00-.769-.376l-.226-.934c.573.16.995.686.995 1.31zM2.267 5.344h3.689l-3.78.915-.007.002-.009.002-.004.001a.457.457 0 00-.038.011l-.007.003a.463.463 0 00-.034.014l-.01.004a.441.441 0 00-.211.216.457.457 0 00-.035.109l-.003.024a.443.443 0 00-.004.047v.017l.001.027.002.02a.452.452 0 00.008.047l.001.007.004.013a.426.426 0 00.034.087l.008.015.015.025.007.01a.442.442 0 00.02.027l.006.008a.467.467 0 00.023.025l.006.006a.444.444 0 00.026.023l.007.006a.432.432 0 00.104.063l.008.004a.446.446 0 00.034.012l.007.002a.443.443 0 00.038.01l.004.001a.457.457 0 00.09.01h21.297a.453.453 0 000-.907h-17.5l17.89-4.33a.452.452 0 01.545.332l.968 3.998h-.092a.453.453 0 000 .906h.453a1.386 1.386 0 01.189.014c.66.092 1.17.66 1.17 1.346v.001a2.254 2.254 0 00-1.359-.454H2.266a1.36 1.36 0 010-2.719zm24.922 20.39c0 .75-.61 1.36-1.36 1.36H2.266c-.75 0-1.36-.61-1.36-1.36V8.515c.38.286.85.455 1.36.455h23.562c.75 0 1.36.61 1.36 1.36v4.077H20.56a.624.624 0 00-.623.624v6.003c0 .344.28.623.623.623h6.627v4.079zm.906-4.984h-7.25v-5.437h7.25v5.437z" fill="#fff"/><path d="M24.469 17.579a.453.453 0 00-.453.453.454.454 0 11-.453-.453.453.453 0 000-.907 1.36 1.36 0 000 2.719c.75 0 1.359-.61 1.359-1.36a.453.453 0 00-.453-.452z" fill="#fff"/></svg>