<svg width="30" height="30" fill="none" xmlns="http://www.w3.org/2000/svg"><g clip-path="url(#clip0_550_6)" fill="#fff"><path d="M28.135 14.48a6.008 6.008 0 01-5.01-2.68l-.402-.603-.401.603a6.009 6.009 0 01-5.01 2.68h-1.83v7.741c0 1.871.843 3.63 2.25 4.81H7.76V25.1h6.275v-8.69H3.899v3.862H1.002V.965H22.24v8.689h.966V0H.036v20.956l7.041 7.04h12.14L22.722 30l4.079-2.33a6.289 6.289 0 003.162-5.449v-7.74h-1.83zM6.795 26.349l-5.11-5.11h5.11v5.11zm-1.932-6.075v-2.896h8.206v6.758H7.76v-3.862H4.864zm24.135 1.948a5.32 5.32 0 01-2.675 4.61l-3.6 2.058-3.6-2.057a5.322 5.322 0 01-2.675-4.61v-6.776h.864a6.972 6.972 0 005.411-2.567 6.971 6.971 0 005.412 2.567h.863v6.775z"/><path d="M27.067 19.308v2.913c0 1.21-.652 2.334-1.702 2.934l.479.838a4.353 4.353 0 002.189-3.772v-2.913h-.966zM2.933 1.93v2.897H20.31V1.93H2.933zm16.411 1.931H3.898v-.965h15.446v.965zm7.382 12.692L20.31 22.97l-1.59-1.59-.682.683 2.272 2.272 7.099-7.1-.683-.682zm-14.622 1.789H5.829v.966h6.275v-.966zm0 1.931h-3.38v.966h3.38v-.966zm0 1.931h-3.38v.965h3.38v-.965zm6.275-15.446H2.933v.965h15.446v-.965zm0 1.93H2.933v.966h15.446v-.966zm0 1.932H2.933v.965h15.446v-.966zm-6.275 1.93H2.933v.966h9.17v-.966zm0 1.931H2.933v.965h9.17v-.965zm8.206-7.723h-.966v.965h.966v-.965zm0 1.93h-.966v.966h.966v-.966zm0 1.932h-.966v.965h.966v-.966zm-6.276 1.93h-.965v.966h.965v-.966zm0 1.931h-.965v.965h.965v-.965z"/></g><defs><clipPath id="clip0_550_6"><path fill="#fff" d="M0 0h30v30H0z"/></clipPath></defs></svg>