<svg width="29" height="29" fill="none" xmlns="http://www.w3.org/2000/svg"><g clip-path="url(#clip0_397_33)" fill="#fff"><path d="M24.753 4.247A14.405 14.405 0 0014.5 0a14.492 14.492 0 00-9.487 3.535.43.43 0 10.564.65A13.63 13.63 0 0114.5.862a13.55 13.55 0 019.644 3.995 13.55 13.55 0 013.995 9.644 13.55 13.55 0 01-3.995 9.644A13.55 13.55 0 0114.5 28.14a13.55 13.55 0 01-9.644-3.995A13.55 13.55 0 01.861 14.5c0-3.389 1.251-6.637 3.522-9.147a.43.43 0 00-.638-.577A14.465 14.465 0 000 14.5c0 3.873 1.508 7.514 4.247 10.253A14.406 14.406 0 0014.5 29c3.873 0 7.514-1.508 10.253-4.247A14.406 14.406 0 0029 14.5c0-3.873-1.508-7.514-4.247-10.253z"/><path d="M13.952 19.661c-1.33 0-2.412 1.094-2.412 2.438 0 1.345 1.082 2.439 2.412 2.439.653 0 1.268-.26 1.732-.732a2.46 2.46 0 00.707-1.707 2.42 2.42 0 00-.72-1.719 2.42 2.42 0 00-1.719-.719zm0 4.015c-.855 0-1.55-.707-1.55-1.577s.695-1.576 1.55-1.576c.855 0 1.577.722 1.577 1.576 0 .855-.722 1.577-1.577 1.577zm4.151-10.741a.43.43 0 00.607-.04c1.038-1.19 1.565-2.435 1.565-3.7 0-1.335-.6-2.545-1.688-3.407-1.095-.867-2.58-1.325-4.296-1.325-2.122 0-3.434.716-4.162 1.317-.88.727-1.404 1.701-1.404 2.607 0 .588.24 1.107.678 1.46.36.29.84.457 1.317.457.82 0 1.18-.531 1.47-.958.366-.54.712-1.05 2.023-1.05.45 0 1.916.097 1.916 1.342 0 .94-.87 1.607-1.636 2.196-.19.145-.368.282-.535.424-.883.76-1.896 1.936-1.896 4.289 0 1.307.317 2.177 1.865 2.177.685 0 1.202-.155 1.538-.461.281-.257.43-.616.43-1.039 0-1.27 0-1.906 1.295-2.92l.022-.016c.057-.045.123-.096.195-.155a.43.43 0 10-.54-.67l-.185.146-.023.017c-1.55 1.213-1.625 2.113-1.625 3.598 0 .191 0 .639-1.107.639-.541 0-.706-.113-.789-.212-.145-.172-.215-.533-.215-1.104 0-1.992.808-2.956 1.595-3.635.148-.126.319-.257.5-.395.878-.675 1.972-1.515 1.972-2.879 0-1.339-1.09-2.203-2.777-2.203-1.767 0-2.327.825-2.736 1.428-.28.412-.407.58-.757.58-.456 0-1.134-.282-1.134-1.056 0-.503.287-1.278 1.092-1.943.619-.51 1.747-1.12 3.614-1.12 3.015 0 5.121 1.592 5.121 3.87 0 1.052-.454 2.106-1.351 3.134a.43.43 0 00.04.607z"/></g><defs><clipPath id="clip0_397_33"><path fill="#fff" d="M0 0h29v29H0z"/></clipPath></defs></svg>