<svg width="182" height="164" fill="none" xmlns="http://www.w3.org/2000/svg"><path opacity=".1" d="M112.083 29.53c-7.81 6.18-17.94 5.779-26.816 2.566-8.876-3.213-17.031-8.943-25.676-13.013-7.262-3.414-14.844-5.648-22.56-6.647-11.022-1.426-23.33.31-31.01 10.301-8.553 11.13-7.897 31.203 1.353 41.415 4.705 5.195 10.867 7.745 16.241 11.801 5.373 4.056 10.344 10.794 9.888 18.625-.423 7.248-5.348 12.811-10.444 16.302-3.94 2.697-8.793 5.641-9.267 11.228-.458 5.406 3.62 9.643 7.516 12.051 12.709 7.859 28.365 7.782 41.024-.199 4.517-2.847 8.669-6.633 13.405-8.852 12.437-5.827 26.14.039 39.309 2.184 11.181 1.812 22.538.877 33.434-2.753 6.52-2.177 13.067-5.505 17.648-11.706 3.303-4.473 5.357-10.131 7.294-15.717a669.485 669.485 0 005.941-18.006c1.142-3.628 2.265-7.326 2.558-11.21.534-7.033-1.714-13.985-4.778-19.923-7.278-14.097-19.527-24.008-32.79-26.525-13.263-2.517-27.3 2.404-37.588 13.159" fill="#6C63FF"/><path d="M46.495 0v163.866h117.912V0H46.495z" fill="url(#paint0_linear_269_2)"/><path d="M163.373 1.438H47.529v6.246h115.844V1.438z" fill="#F6F7F9"/><path opacity=".2" d="M163.373 1.438H47.529v6.246h115.844V1.438z" fill="#6C63FF"/><path d="M163.373 7.684H47.529v154.744h115.844V7.684zM50.576 5.619a1.06 1.06 0 100-2.12 1.06 1.06 0 000 2.12zm2.872 0a1.06 1.06 0 100-2.12 1.06 1.06 0 000 2.12zm2.872 0a1.06 1.06 0 100-2.12 1.06 1.06 0 000 2.12z" fill="#F6F7F9"/><path opacity=".2" d="M142.695 17.224h-74.49v2.915h74.49v-2.915z" fill="#6C63FF"/><path d="M142.695 17.224h-9.897v2.915h9.897v-2.915z" fill="#6C63FF"/><path opacity=".2" d="M104.405 76.797H57.529v33.562h46.876V76.797zm0-43.537H57.529v33.563h46.876V33.261zm0 86.507H57.529v33.563h46.876v-33.563zm48.968-42.97h-46.876v33.562h46.876V76.797zm0-43.537h-46.876v33.563h46.876V33.261zm0 86.507h-46.876v33.563h46.876v-33.563z" fill="#6C63FF"/><path d="M118.481 39.746s-.425-1.062 2.442-.797c2.868.265 11.101 1.18 14.661.379 3.56-.802 5.682-1.057 5.471 0-.212 1.056-6.161 3.444-6.161 3.444l-7.703.797-5.682-.904-3.051-1.804.023-1.115z" fill="#6C63FF"/><path opacity=".1" d="M141.062 39.328c-.214 1.056-6.161 3.444-6.161 3.444l-7.704.797-5.681-.901-3.049-1.805.021-1.115a.462.462 0 01.162-.513c.263-.233.876-.414 2.28-.284 2.87.265 11.101 1.178 14.661.377 2.9-.653 4.848-.944 5.345-.465a.467.467 0 01.126.465z" fill="#000"/><path d="M145.639 55.408a33.255 33.255 0 00-13.668 6.051c-.205-.543-.589-1-1.09-1.293a3.836 3.836 0 00-1.106-.465c-.356-.09-.698.126-1.011.437a5.73 5.73 0 00-.9 1.33c-5.416-3.716-13.634-6.087-13.634-6.087v-.744c0-.146.026-.322.054-.522s.063-.377.107-.593c.697-3.544 3.453-11.644 3.453-11.644h3.116l6.042 1.254 6.798-.415 6.846-1.424.887-.186c1.481 1.161 3.161 9.291 3.821 12.752.083.44.148.802.197 1.069.058.302.088.48.088.48z" fill="#6C63FF"/><path d="M115.355 53.873c.179-3.403 2.884-10.778 3.342-12.002h-.853s-2.919 8.594-3.511 11.949a.055.055 0 000 .025 5.944 5.944 0 00-.098.785v.744s8.217 2.374 13.634 6.088c.236-.484.539-.932.899-1.331-2.07-1.882-9.922-4.948-13.413-6.258zm30.196 1.045a53.23 53.23 0 00-.074-.406c-.035-.195-.077-.416-.123-.662-.66-3.466-2.34-11.598-3.821-12.752l-.887.185c.539 1.448 4.013 10.897 3.718 12.741-5.81 1.162-11.698 4.936-13.479 6.142.501.294.886.75 1.09 1.294a33.264 33.264 0 0113.669-6.051l-.093-.49z" fill="#6C63FF"/><path opacity=".1" d="M115.569 53.66c.177-3.404 2.884-10.778 3.342-12h-.856s-2.918 8.594-3.511 11.946v.026a5.358 5.358 0 00-.042.264c-.028.2-.046.377-.053.523v.743s8.215 2.372 13.634 6.088c.234-.484.536-.932.897-1.33-2.071-1.878-9.921-4.95-13.411-6.26z" fill="#000"/><path d="M115.355 53.873c.179-3.403 2.884-10.778 3.342-12.002h-.853s-2.919 8.594-3.511 11.949a.055.055 0 000 .025 5.944 5.944 0 00-.098.785v.744s8.217 2.374 13.634 6.088c.236-.484.539-.932.899-1.331-2.07-1.882-9.922-4.948-13.413-6.258z" fill="#6C63FF"/><path opacity=".1" d="M145.34 54.705l-.075-.406-.123-.662c-.657-3.464-2.34-11.596-3.82-12.753l-.886.188c.54 1.447 4.014 10.897 3.719 12.741-5.81 1.161-11.701 4.936-13.479 6.14.501.294.886.752 1.09 1.295a33.218 33.218 0 0113.667-6.053s-.035-.174-.093-.49z" fill="#000"/><path d="M145.551 54.918a53.23 53.23 0 00-.074-.406c-.035-.195-.077-.416-.123-.662-.66-3.466-2.34-11.598-3.821-12.752l-.887.185c.539 1.448 4.013 10.897 3.718 12.741-5.81 1.162-11.698 4.936-13.479 6.142.501.294.886.75 1.09 1.294a33.264 33.264 0 0113.669-6.051l-.093-.49z" fill="#6C63FF"/><path opacity=".1" d="M117.375 46.07s5.391 3.392 6.65-1.574l1.2.32s.395 5.503-8.208 2.362l.358-1.107z" fill="#000"/><path d="M117.375 45.646s5.391 3.391 6.65-1.575l1.2.32s.395 5.503-8.208 2.363l.358-1.108z" fill="#6C63FF"/><path opacity=".1" d="M134.339 44.657s.697 4.057 8.084 2.09l-.26-.767s-5.045 2.091-6.874-1.54l-.95.217z" fill="#000"/><path d="M134.339 44.23s.697 4.059 8.084 2.091l-.26-.766s-5.045 2.09-6.874-1.54l-.95.216z" fill="#6C63FF"/><path opacity=".1" d="M129.421 44.602v8.47h1.311s1.813-.653 1.771-4.46c-.042-3.807-.319-4.832-.319-4.832l-2.763.822z" fill="#000"/><path d="M129.21 44.392v8.469h1.311s1.812-.653 1.77-4.46c-.041-3.807-.32-4.832-.32-4.832l-2.761.823z" fill="#6C63FF"/><path opacity=".1" d="M141.526 41.525c-.534.994-5.386 2.627-6.244 2.908l-.13.042s-.307.08-.82.186c-1.562.325-5.043.93-7.669.4-.381-.075-.776-.156-1.178-.233l-.93-.202c-3.021-.671-6.146-1.55-6.702-2.323 0 0 .151-2.525.66-2.457.509.067 6.191 2.457 6.191 2.457l.081.012c.147.019.479.06.946.114 1.845.202 5.733.522 7.825-.037a16.55 16.55 0 00.776-.261c2.691-.952 6.72-2.657 6.72-2.657s1.065.957.474 2.051z" fill="#000"/><path opacity=".1" d="M141.061 39.328c-.213 1.057-6.16 3.445-6.16 3.445l-7.704.796-5.681-.901-3.049-1.805.021-1.115a.463.463 0 01.162-.513c1.011.306 6.042 2.423 6.042 2.423l.082.011c.146.019.478.06.945.114 1.846.202 5.733.523 7.825-.037a12.972 12.972 0 00.776-.26c2.433-.862 5.963-2.34 6.616-2.613a.461.461 0 01.125.455z" fill="#000"/><path d="M141.526 41.098c-.534.994-5.386 2.625-6.244 2.906l-.13.044s-.307.076-.82.183c-1.562.325-5.043.93-7.669.4-.381-.075-.776-.156-1.178-.233l-.93-.202c-3.021-.67-6.146-1.549-6.702-2.322 0 0 .151-2.525.66-2.456.509.07 6.191 2.456 6.191 2.456l.081.011c.147.019.479.063.946.114 1.845.202 5.733.523 7.825-.037a12.8 12.8 0 00.776-.26c2.691-.953 6.72-2.658 6.72-2.658s1.065.964.474 2.054z" fill="#6C63FF"/><path opacity=".1" d="M130.342 44.631a.85.85 0 100-1.7.85.85 0 000 1.7z" fill="#000"/><path d="M130.342 44.417a.85.85 0 100-1.7.85.85 0 000 1.7z" fill="#6C63FF"/><path opacity=".1" d="M125.933 41.99l-.232 2.397-.93-.202.233-2.309c.13.023.465.067.929.114z" fill="#000"/><path d="M125.724 41.99l-.232 2.397-.93-.202.233-2.309c.127.023.464.067.929.114z" fill="#6C63FF"/><path opacity=".1" d="M135.075 44.004l-.13.044s-.304.077-.82.183l-.793-2.274a12.972 12.972 0 00.779-.26l.964 2.307z" fill="#000"/><path d="M135.289 44.004l-.13.044s-.307.077-.82.183l-.793-2.274a12.36 12.36 0 00.776-.26l.967 2.307z" fill="#6C63FF"/><g opacity=".5"><path opacity=".5" d="M75.353 37.809a6.136 6.136 0 013.088.857s2.83.344 4.374 0c1.543-.344 2.323-1.543 2.616-1.201.293.341.3 3.558.3 3.558l-1.33 3.559L81.4 46.81l-4.759-1.37-1.575-4.026.288-3.605z" fill="#6C63FF"/><path opacity=".1" d="M85.731 41.028l-1.33 3.559-3.002 2.227-4.759-1.37-1.575-4.03.3-3.6h.07a6.304 6.304 0 013.02.859s2.83.344 4.374 0c1.466-.325 2.237-1.426 2.556-1.24a.142.142 0 01.048.037c.298.339.298 3.558.298 3.558z" fill="#000"/><path opacity=".1" d="M85.731 41.028l-1.33 3.559-3.002 2.227-4.759-1.37-1.575-4.03.3-3.6h.07c.264 1.135 1.393 4.721 4.99 4.975 3.7.258 4.75-4.142 4.969-5.354a.143.143 0 01.049.037c.288.337.288 3.556.288 3.556z" fill="#000"/><path opacity=".5" d="M75.353 37.811s.771 5.015 5.061 5.315c4.29.3 5.017-5.659 5.017-5.659s6.219 2.037 7.669 5.67c1.45 3.633 2.53 6.548 2.53 6.548s-.464.813-.987.9c-.523.085-4.074 2.529-4.074 2.529s-.042 6.945.344 7.373c.386.427.258 2.271-.901 2.185-1.16-.086-9.177-1.886-16.035-.385 0 0-2.872 1.029-2.789-.644.084-1.672.214-8.23.214-8.23s-4.332-1.886-4.587-1.886c-.256 0-.902-.339-.216-1.456.685-1.117 1.545-4.93 1.545-4.93s1.72-5.472 7.209-7.33z" fill="#6C63FF"/><path opacity=".1" d="M88.69 46.815s1.287.943.987 1.672c-.3.73-.988-1.672-.988-1.672zm1.886.905a2.32 2.32 0 000 1.28v-1.28zm.858 2.353s.172 1.162-.342 1.285l.342-1.285zm-17.496-3.558s-2.401 2.09-1.588 2.915l1.588-2.915zm-1.502 5.059s-.04 2.186.623 2.357l-.623-2.357zm6.904 7.328s1.627-1.113 2.06-1.07l-2.06 1.07zm1.627 1.16S82.73 58.816 83.2 58.9l-2.233 1.162z" fill="#000"/></g><g opacity=".5"><path opacity=".5" d="M119.217 80.003s14.032.664 21.008.255l-.153 1.84-12.345 1.626-3.653-1.124-4.857-2.597z" fill="#6C63FF"/><path opacity=".1" d="M140.234 80.258l-.153 1.84-12.342 1.626-3.655-1.124-4.867-2.597s.289.016.802.037c3.044.132 14.006.56 20.025.232l.19-.014z" fill="#000"/><path opacity=".5" d="M145.091 106.418c-2.709 1.626-12.114.051-12.114.051l-2.607-9.291-2.915 9.451c-4.138 1.482-12.676-.664-12.676-.664l3.323-20.44.574-2.818.541-2.704 5.266 1.584s1.583 1.073 8.178.767c6.595-.307 7.564-2.09 7.564-2.09.29.083.567 1.107.846 2.38.404 1.858.816 4.241 1.301 5.029.828 1.324 2.719 18.745 2.719 18.745z" fill="#6C63FF"/><path opacity=".1" d="M141.08 82.844c-5.879 3.226-10.94 3.138-10.94 3.138-1.253.153-11.464-3.073-11.464-3.073l.541-2.702 5.266 1.585s1.583 1.073 8.178.766c6.595-.306 7.564-2.09 7.564-2.09.3.081.576 1.103.855 2.376z" fill="#000"/><path opacity=".1" d="M140.234 80.258l-.153 1.84-12.342 1.626-3.655-1.124-4.867-2.597s.289.016.802.037l4.462 1.343s1.582 1.073 8.177.766c5.18-.232 6.891-1.394 7.386-1.879l.19-.012z" fill="#000"/><path opacity=".5" d="M141.08 82.64c-5.879 3.226-10.94 3.138-10.94 3.138-1.253.153-11.464-3.074-11.464-3.074l.541-2.701 5.266 1.584s1.583 1.073 8.178.767c6.595-.307 7.564-2.09 7.564-2.09.3.078.576 1.102.855 2.375z" fill="#6C63FF"/><path opacity=".1" d="M131.136 85.29a.536.536 0 10.001-1.074.536.536 0 00-.001 1.073z" fill="#000"/><path opacity=".5" d="M131.136 85.085a.537.537 0 100-1.073.537.537 0 000 1.073z" stroke="#6C63FF" stroke-miterlimit="10"/><path opacity=".1" d="M117.412 94.156s.946 2.81 1.61 2.76c.665-.052-1.61-2.76-1.61-2.76zm-.614 2.759s.588 1.687 1.202 1.968l-1.202-1.968zm0 1.763s.93 1.176 1.481 1.457l-1.481-1.457zm24.961-10.627s.869 1.303 0 1.584v-1.584zm.395 2.119c-1.009-1.196-.386 1.626-.386 1.626s.644-1.32.386-1.626zm.509 1.456s-1.534 2.274-1.227 2.53l1.227-2.53zm-20.29-3.526c-1.88 0-3.841-.85-3.95-.9l.083-.189c.038.019 3.791 1.647 5.822.425.766-.465 1.196-1.282 1.28-2.439l.205.016c-.089 1.227-.554 2.09-1.381 2.597a3.953 3.953 0 01-2.059.49z" fill="#000"/><path opacity=".5" d="M122.373 87.896c-1.88 0-3.841-.85-3.95-.901l.083-.186c.038.016 3.791 1.644 5.822.422.766-.464 1.196-1.282 1.28-2.438l.205.016c-.089 1.226-.554 2.09-1.381 2.597a3.952 3.952 0 01-2.059.49z" fill="#6C63FF"/><path opacity=".1" d="M137.808 88.254a3.183 3.183 0 01-1.394-.3c-1.525-.734-1.771-2.532-1.783-2.609l.205-.025c0 .018.244 1.768 1.668 2.45 1.269.611 3.07.233 5.345-1.161l.105.174c-1.62.98-3.007 1.47-4.146 1.47z" fill="#000"/><path opacity=".5" d="M137.808 88.05a3.182 3.182 0 01-1.394-.3c-1.525-.734-1.771-2.532-1.783-2.609l.205-.025c0 .018.244 1.767 1.668 2.45 1.269.611 3.07.233 5.345-1.161l.105.174c-1.62.98-3.007 1.47-4.146 1.47z" fill="#6C63FF"/></g><path d="M76.538 80.316s2.637 3.682 4.429 3.324c1.792-.358 1.968-.75 3.56-3.324l1.306 3.003-1.538 3.717-1.822 2.358-3.862-.607-1.25-4.218-.823-4.253z" fill="#6C63FF"/><path opacity=".1" d="M85.833 83.317l-1.538 3.717-1.822 2.357-3.862-.606-1.25-4.218-.823-4.25s.232.32.595.76c.885 1.058 2.57 2.814 3.834 2.556 1.766-.353 1.964-.74 3.497-3.22l.063-.104 1.306 3.008z" fill="#000"/><path opacity=".1" d="M85.833 83.317l-1.538 3.717-1.822 2.357-3.862-.606-1.25-4.218-.823-4.251s.232.32.595.762c.576 1.858 1.815 4.838 3.834 4.813 2.28-.026 3.2-3.8 3.497-5.47l.063-.105 1.306 3.001z" fill="#000"/><path d="M75.143 80.207s-.894-.107-.43 1.001c.465 1.108 1.323 4.753.895 5.503-.427.75-.214 2.787-2.073 3.182L74.07 92s.107 4.646-.107 5.326c-.214.68-.251 4.43-.179 4.822.072.393.037 2.967-.249 3.076-.285.109-.464 1.356.465 1.57.93.214 4.896.323 5.612.537.716.213 5.791 0 5.791 0s2.145-.286 2.682-.465c.537-.179.644-.606.465-1.428-.18-.823-1.002-6.79-.823-7.54.179-.75.216-8.077.216-8.077s-1.394-.464-1.394-1.823-.537-5.004.572-7.29c0 0-.895-.612-1.037-.503-.142.109-1.492-.284-1.492-.284s-.697 6.219-3.613 6.253c-2.917.035-4.216-6.253-4.216-6.253s.026-.571-1.62.286z" fill="#6C63FF"/><path opacity=".1" d="M79.361 100.148s.602 1.466 1.606 1.68c1.004.214-1.606-1.68-1.606-1.68zm-.929 1.144s1.942 1.572 1.859 1.895l-1.86-1.895zM74.535 92s1.538 1.036 1.538 1.786L74.535 92zm1.036 3.252s-.428-1.5-.713-1.821l.713 1.82zm-.713.571s.643 1.287.713 1.645l-.713-1.645zm12.476-2.608s-2 .608-1.824 1.359l1.824-1.36zm-1.834 6.933s2.622-3.038 1.834-2.966c-.787.072-1.833 2.966-1.833 2.966zm1.047-12.15c0-.627-.114-1.742-.128-2.985-.014 1.426.128 2.746.128 3.45 0 1.328 1.331 1.8 1.394 1.82v-.464s-1.394-.462-1.394-1.821zm1.996 17.904c.027.122.048.246.062.37a2.32 2.32 0 00-.062-.834c-.154-.697-.777-5.171-.842-6.918-.07 1.194.679 6.602.842 7.382zm-14.792-4.633c0-1.276.073-3.034.212-3.485.114-.362.137-1.844.135-3.154 0 1.175-.035 2.37-.135 2.69-.158.506-.218 2.685-.212 3.949zm1.393-20.597c1.642-.857 1.608-.286 1.608-.286s1.287 6.29 4.215 6.253c2.928-.037 3.625-6.253 3.625-6.253s1.36.393 1.502.283c.141-.109.618.233.88.4.049-.123.1-.244.158-.36 0 0-.895-.613-1.038-.504-.145.109-1.502-.284-1.502-.284s-.697 6.219-3.613 6.253c-2.917.035-4.216-6.253-4.216-6.253s.035-.571-1.608.286c0 0-.727-.083-.525.718.116-.3.514-.253.514-.253zm-1.611 25.016c.232-.086.295-1.677.281-2.555-.011.883-.093 2.019-.281 2.091-.188.072-.279.464-.207.843.037-.2.112-.346.207-.379zm2.075-18.513a2 2 0 00.11-.954c-.003.169-.04.336-.11.49-.43.75-.216 2.787-2.075 3.182l.112.437c1.738-.45 1.543-2.418 1.963-3.155z" fill="#000"/><path d="M85.935 123.902c-.878 1.598-9.795 0-9.795 0l.024-.161.176-1.238h9.395l.18 1.236.02.163z" fill="#6C63FF"/><path opacity=".1" d="M85.935 123.902c-.878 1.598-9.795 0-9.795 0l.024-.161c.427 0 6.878-.153 9.76 0l.011.161z" fill="#000"/><path d="M76.14 123.902s-1.598.399-4.078 7.112c-2.48 6.713-3.358 15.386-3.358 15.386s-1.394 2.36 4.557 2.518c0 0-.479 1.559 2.88 1.32 3.357-.24 2.874-.237 2.874-.237s2.159-1.359 3.118-1.12c.96.239 1.56.321 2.599 1.199 1.038.878 4.36.52 4.399-.158a6.265 6.265 0 000-1.001s5.077.32 4.118-3.357c-.96-3.677-1.76-9.712-1.76-9.712s-2.598-11.788-5.558-11.948c-2.96-.16-9.79-.002-9.79-.002z" fill="#6C63FF"/><path opacity=".1" d="M75.07 128.541l-1.88 20.382.16.015 1.88-20.382-.16-.015zm3.942-.015l-.083 21.46.16.001.083-21.46-.16-.001zm5.018-.005l-.16.006.8 21.541.161-.006-.802-21.541zm5.024 20.4c-.279-12.276-2.37-20.68-2.396-20.755l.156-.039c.02.084 2.124 8.504 2.4 20.801l-.16-.007zM76.42 125.1s-.28.16 0 .929v-.929zm.8 0s-.759.479 0 1.28v-1.28zm7.117 0s1.038.999.799 1.28l-.8-1.28zm.836-.239s.163 1.198.762 1.519l-.762-1.519z" fill="#000"/><g opacity=".5"><path opacity=".5" d="M127.611 122.944s3.923-1.561 5.619.344c1.697 1.905-1.162 4.223-1.162 4.223l-1.199 2.393-2.821-.309-.665-3.308.228-3.343z" fill="#6C63FF"/><path opacity=".1" d="M132.068 127.499l-1.199 2.393-2.821-.3-.665-3.305.233-3.343.063-.023c.497-.183 3.855-1.354 5.461.258.033.031.065.063.095.098 1.692 1.895-1.167 4.222-1.167 4.222z" fill="#000"/><path opacity=".1" d="M132.068 127.499l-1.199 2.393-2.821-.3-.665-3.305.233-3.343.063-.023c.485 2.66 1.782 3.781 2 3.949l.033.023.797-.065c1.55-.855 2.368-2.887 2.631-3.656.033.031.065.063.095.097 1.692 1.903-1.167 4.23-1.167 4.23z" fill="#000"/><path opacity=".5" d="M138.919 136.609s-.864 11.006-.63 12.334c.235 1.329-.499 1.429-.499 1.429s-3.128.697-3.719.232c-.59-.464-1.596-.555-1.596-.555s-2.324.532-3.36.135c-1.037-.397-2.761-.233-2.761-.233s-1.329.8-1.696.632c-.368-.167-.832-.1-1.897-.397-1.064-.297-1.664-.567-1.099-2.395s.07-7.614.035-8.313c-.035-.699-.365-2.393-.832-4.413-.467-2.021.797-1.596.797-1.596 2.963-1.529 1.731-4.523 1.267-5.851-.465-1.329.265-1.394.629-1.394.365 0 1.764-1.196 1.764-1.196l.567-.509 1.729-1.552c.43 2.906 1.824 4.126 2.057 4.307l.032.025.797-.067c1.929-1.062 2.726-3.949 2.726-3.949.233.395.751.846 1.329 1.264a22.885 22.885 0 002.364 1.463c1.394.832.367 1.663.367 1.663-1.696 5.784.697 6.04.697 6.04 1.764.26.932 2.896.932 2.896z" fill="#6C63FF"/><path opacity=".1" d="M125.847 126.236s-.499.267-.499.564l.499-.564zm.3.564s-.664.697-.548.899l.548-.899zm0 .902s-.499.532-.3.831l.3-.831zm3.328-.029l-2.092 2.019c-.076-2.244-1.162-4.039-1.696-4.797l1.729-1.551c.423 2.929 1.829 4.148 2.059 4.329z" fill="#000"/><path opacity=".5" d="M129.675 127.274l-2.092 2.021c-.074-2.246-1.162-4.039-1.694-4.799l1.729-1.552c.43 2.929 1.824 4.149 2.057 4.33z" fill="#6C63FF"/><path opacity=".1" d="M134.759 124.94c-.836 1.305-2.391 4.752-2.391 4.752l-1.664-2.06c1.929-1.064 2.726-3.949 2.726-3.949.232.386.751.836 1.329 1.257z" fill="#000"/><path opacity=".5" d="M134.555 124.54c-.835 1.308-2.392 4.755-2.392 4.755l-1.659-2.058c1.929-1.062 2.726-3.949 2.726-3.949.233.383.751.834 1.325 1.252z" fill="#6C63FF"/><path opacity=".1" d="M133.332 145.852s-.355 3.02-.56 3.192l.56-3.192zm2.926.532s.4 2.16.233 2.659l-.233-2.659zm-8.514.133s-.365 2.027 0 2.26v-2.26zm-2.159-.3s-.302 2.395-.233 2.827l.233-2.827zm11.173-11.67s-.93.732-.865.929l.865-.929zm.664.467s-1.78 1.496-.89 1.328c.89-.167.89-1.328.89-1.328z" fill="#000"/></g><path d="M155.149 65.504a4.016 4.016 0 01-2.471 3.712 4.018 4.018 0 01-4.377-.863 4.008 4.008 0 01.604-6.175 4.012 4.012 0 016.244 3.326zm-4.478 2.123l2.979-2.976a.259.259 0 00.074-.182.259.259 0 00-.074-.182l-.367-.368a.263.263 0 00-.183-.076.26.26 0 00-.182.076l-2.429 2.428-1.134-1.129a.262.262 0 00-.367 0l-.365.367a.256.256 0 00-.056.281c.013.031.032.06.056.084l1.683 1.681a.259.259 0 00.182.077.254.254 0 00.183-.077v-.004zm-44.139 41.903a4.014 4.014 0 11-7.721-1.535 4.013 4.013 0 017.721 1.535zm-4.478 2.123l2.988-2.975a.266.266 0 00.057-.084.266.266 0 000-.199.255.255 0 00-.057-.084l-.376-.353a.257.257 0 00-.368 0l-2.428 2.415-1.134-1.133a.257.257 0 00-.281-.057.24.24 0 00-.084.057l-.367.364a.262.262 0 000 .367l1.682 1.682a.266.266 0 00.084.057.266.266 0 00.199 0 .26.26 0 00.085-.057zm4.478 41.7a4.014 4.014 0 11-7.721-1.535 4.013 4.013 0 017.721 1.535zm-4.478 2.123l2.988-2.976a.255.255 0 00.057-.283.266.266 0 00-.057-.084l-.365-.364a.257.257 0 00-.367 0l-2.428 2.427-1.134-1.134a.263.263 0 00-.183-.076.257.257 0 00-.182.076l-.367.365a.261.261 0 000 .367l1.682 1.682a.262.262 0 00.283.057.271.271 0 00.084-.057h-.011z" fill="#3ACC6C"/><defs><linearGradient id="paint0_linear_269_2" x1="105.451" y1="163.866" x2="105.451" y2="0" gradientUnits="userSpaceOnUse"><stop stop-color="gray" stop-opacity=".25"/><stop offset=".54" stop-color="gray" stop-opacity=".12"/><stop offset="1" stop-color="gray" stop-opacity=".1"/></linearGradient></defs></svg>