<svg width="48" height="48" fill="none" xmlns="http://www.w3.org/2000/svg"><g clip-path="url(#clip0_555_155)"><path d="M31.434 17.38V.827H21.232l-3.853 4.708v11.016l-11.058.827-5.493 3.068v10.987h14.91v14.91h10.987l4.71-4.708V31.434h10.201l4.709-4.709V17.38h-14.91z" fill="#EBBA16"/><path d="M0 20.69l5.793-4.966h9.931v4.966H0zm43.034 11.586V20.69L48 15.724V27.31l-4.966 4.966zM27.31 48l4.966-4.965V32.276H27.31V48z" fill="#5E56E7"/><path d="M27.31 20.69l4.966-4.966V0L27.31 4.965V20.69zm4.966-4.966L27.31 20.69h15.725L48 15.724H32.276z" fill="#524BC6"/><path d="M15.724 4.965L21.517 0h10.759L27.31 4.965H15.724z" fill="#5E56E7"/><path d="M43.035 20.69H27.31V4.965H15.724V20.69H0v11.586h15.724V48H27.31V32.276h15.725V20.69z" fill="#746CFF"/></g><defs><clipPath id="clip0_555_155"><path fill="#fff" d="M0 0h48v48H0z"/></clipPath></defs></svg>