<svg width="145" height="145" fill="none" xmlns="http://www.w3.org/2000/svg"><circle cx="72.5" cy="72.5" r="72.5" fill="#4BCF84" fill-opacity=".13"/><circle cx="73" cy="73" r="55" fill="#4BCF84" fill-opacity=".27"/><rect x="54.5" y="39.5" width="37" height="66" rx="2.5" stroke="#2ABC69" stroke-width="3"/><mask id="path-4-inside-1_533_25" fill="#fff"><path d="M61 38h24v6a2 2 0 01-2 2H63a2 2 0 01-2-2v-6z"/></mask><path d="M61 38h24v6a2 2 0 01-2 2H63a2 2 0 01-2-2v-6z" stroke="#2ABC69" stroke-width="6" mask="url(#path-4-inside-1_533_25)"/><g clip-path="url(#clip0_533_25)"><path d="M79.362 67.635a9 9 0 10-12.725 12.73 9 9 0 0012.725-12.73zm-1.732 9.901l-.001.002v-.003l-.457.453a2.4 2.4 0 01-2.264.648 7.97 7.97 0 01-2.317-1.038 10.695 10.695 0 01-1.826-1.473 10.778 10.778 0 01-1.365-1.656 8.398 8.398 0 01-1.026-2.076 2.4 2.4 0 01.6-2.451l.533-.534c.149-.15.39-.15.54-.001l1.687 1.687c.149.148.15.39 0 .538v.002l-.99.99a.807.807 0 00-.085 1.05 11.748 11.748 0 002.745 2.693.813.813 0 001.038-.09l.958-.971a.38.38 0 01.538-.001h.001l1.69 1.693c.149.148.15.39 0 .538z" fill="#2ABC69"/></g><defs><clipPath id="clip0_533_25"><path fill="#fff" transform="translate(64 65)" d="M0 0h18v18H0z"/></clipPath></defs></svg>