<svg width="196" height="182" fill="none" xmlns="http://www.w3.org/2000/svg"><g clip-path="url(#clip0_281_11)"><path opacity=".1" d="M185 76.71c-1.826-3.94-4.219-7.523-7.086-10.604l-98.289-.91 80.925-10.675a48.518 48.518 0 00-16.419-3.06C136.341 45.554 126.328 42 115.406 42c-9.8 0-18.861 2.86-26.249 7.715-6.284-3.044-13.438-4.763-21.039-4.763C46.28 44.952 28.083 59.159 24 78l161-1.29zm3 15.12c-.007-5.134-1.05-10.201-3.053-14.83L15.177 93.707a38.55 38.55 0 00-3.978 9.415l52.573 7.345L10 115.823c1.618 21.209 21.018 37.959 44.717 37.959 11.93 0 22.769-4.246 30.8-11.166 8.059 7.051 18.997 11.384 31.06 11.384 17.89 0 33.332-9.547 40.523-23.352 14.426-4.291 25.632-15.068 29.468-28.546l-66.486-9.66H188v-.612zm-89.877 80.689c17.147 0 31.048-.827 31.048-1.847s-13.901-1.847-31.048-1.847-31.048.827-31.048 1.847 13.901 1.847 31.048 1.847z" fill="#6C63FF"/><path d="M112.396 167.425v1.115h-32.89v-.908a10.81 10.81 0 005.002-3.808 10.862 10.862 0 00.447-12.043 10.823 10.823 0 00-4.704-4.171h31.929a10.825 10.825 0 00-4.626 4.053 10.865 10.865 0 00.129 11.812 10.821 10.821 0 004.713 3.95z" fill="#C8CAD7"/><path opacity=".1" d="M112.18 147.612a10.87 10.87 0 00-5.978 7.188H86.228a10.862 10.862 0 00-5.977-7.188h31.929z" fill="#000"/><path d="M41.838 141.93v6.261c0 3.458 2.524 6.262 5.637 6.262h96.786c3.114 0 5.637-2.804 5.637-6.262v-6.261H41.838z" fill="#C8CAD7"/><path opacity=".1" d="M112.396 167.425v1.115h-32.89v-.908a10.73 10.73 0 002.536-1.353h28.342c.628.453 1.303.838 2.012 1.146z" fill="#000"/><path d="M121.626 166.627H70.284c-.91 0-1.648.74-1.648 1.652a1.65 1.65 0 001.648 1.652h51.342a1.65 1.65 0 001.648-1.652 1.65 1.65 0 00-1.648-1.652z" fill="#C8CAD7"/><path d="M149.898 73.318a5.66 5.66 0 00-1.651-3.997 5.63 5.63 0 00-3.986-1.656H47.475a5.63 5.63 0 00-3.986 1.656 5.66 5.66 0 00-1.65 3.997v69.83h108.059v-69.83z" fill="#474157"/><path d="M144.174 73.057H47.562a2.779 2.779 0 00-2.775 2.783v60.003a2.78 2.78 0 002.775 2.783h96.612a2.78 2.78 0 002.776-2.783V75.84a2.78 2.78 0 00-2.776-2.783z" fill="#EDEDF4"/><path d="M95.868 71.666c.719 0 1.301-.584 1.301-1.304 0-.72-.582-1.305-1.3-1.305-.72 0-1.302.584-1.302 1.305 0 .72.583 1.304 1.301 1.304zm0 80.004a3.214 3.214 0 003.21-3.218 3.213 3.213 0 00-3.21-3.217 3.213 3.213 0 00-3.209 3.217 3.214 3.214 0 003.21 3.218z" fill="#fff"/><path d="M146.95 75.84H44.787c0-.738.292-1.446.813-1.968a2.772 2.772 0 011.962-.815h96.612c.737 0 1.442.293 1.963.815.52.522.813 1.23.813 1.968z" fill="#C8CAD7"/><path d="M47.562 75.144a.695.695 0 10-.002-1.39.695.695 0 00.002 1.39zm2.082 0a.695.695 0 10-.002-1.39.695.695 0 00.002 1.39zm2.081 0a.695.695 0 10-.002-1.39.695.695 0 00.002 1.39z" fill="#EDEDF4"/><path d="M74.794 78.188H48.603v1.565h26.19v-1.565zm0 45.741H48.603v1.565h26.19v-1.565z" fill="#6C63FF"/><path opacity=".2" d="M97.17 127.408H48.602v1.565h48.566v-1.565zm0 2.262H48.602v1.566h48.566v-1.566zm0 2.261H48.602v1.565h48.566v-1.565zm-.348-49.569h-48.22v26.262h48.22V82.362zm-36.425 28.697H49.123v10.435h11.274v-10.435zm36.425 0H85.548v10.435h11.274v-10.435zm-18.472 0H67.075v10.435H78.35v-10.435zM140.301 90h-33.186v24.494h33.186V90.001z" fill="#6C63FF"/><path d="M136.803 94.971h-26.191v1.566h26.191V94.97zm0 3.247h-26.191v1.566h26.191v-1.566zm0 3.247h-26.191v1.566h26.191v-1.566zm0 3.246h-26.191v1.565h26.191v-1.565zm0 3.247h-26.191v1.565h26.191v-1.565z" fill="#EDEDF4"/><path d="M136.255 117.277h-25.093v4.405h25.093v-4.405zm-9.608 14.679h-16.826v2.954h16.826v-2.954z" fill="#6C63FF"/><path opacity=".1" d="M162.368 172.33a.25.25 0 00.249-.25.25.25 0 10-.499 0c0 .138.112.25.25.25z" fill="#000"/></g><g clip-path="url(#clip1_281_11)"><path d="M106.938 30.819V54.77a16.87 16.87 0 014.771-6.128l.124-.1a17.16 17.16 0 011.294-.925l.087-.055a16.68 16.68 0 018.997-2.617H140V30.82h-33.062z" fill="#D0CDE1"/><path opacity=".1" d="M135.871 39.083h2.724v-2.73h-2.724v2.73z" fill="#000"/><path d="M108.313 35.671h22.371v-.682h-22.371v.682zm0 1.732h22.371v-.682h-22.371v.682zm0 1.732h22.371v-.682h-22.371v.682zm26.143-4.198h4.192v4.199h-4.192v-4.2zm4.087.105h-3.982v3.989h3.982v-3.99z" fill="#F2F2F2"/><path d="M136.56 37.968l-1.307-1.527.205-.176 1.08 1.261 2.87-4.117.221.155-3.069 4.404z" fill="#6C63FF"/><path d="M77.619 79.16l-.234-.007c.546-11.064 3.393-18.172 5.685-22.187 2.49-4.36 4.888-6.125 4.912-6.142l.155.142c-.023.018-2.394 1.765-4.862 6.095-2.28 3.998-5.111 11.077-5.656 22.1zm25.137.023l-.226-.053c2.713-7.577 9.1-12.36 9.164-12.408l.158.142c-.064.047-6.403 4.796-9.096 12.32z" fill="#F2F2F2"/><path d="M66.464 0v41.63a29.326 29.326 0 00-10.757-12.433c-.05-.032-.101-.065-.152-.095a28.989 28.989 0 00-15.636-4.55H9V0h57.464z" fill="#3F3D56"/><path opacity=".1" d="M16.177 9.62h-4.735v4.744h4.735V9.62z" fill="#000"/><path d="M64.076 7.248H25.192v1.186h38.884V7.248zm0 3.01H25.192v1.186h38.884v-1.186zm0 3.011H25.192v1.186h38.884V13.27zm-45.44 1.186H11.35V7.156h7.284v7.299zm-7.103-.183h6.92V7.34h-6.92v6.933z" fill="#F2F2F2"/><path d="M14.98 12.425l-2.27-2.652.356-.306 1.876 2.192 4.989-7.157.384.27-5.335 7.653z" fill="#6C63FF"/><path d="M53.324 30.584v23.952a16.871 16.871 0 00-6.189-7.154l-.087-.055a16.679 16.679 0 00-8.996-2.617h-17.79V30.584h33.062z" fill="#D0CDE1"/><path opacity=".1" d="M24.392 36.119h-2.724v2.73h2.724v-2.73z" fill="#000"/><path d="M51.95 34.753H29.579v.683H51.95v-.683zm0 1.733H29.579v.682H51.95v-.682zm0 1.732H29.579v.683H51.95v-.683zm-26.144.682h-4.191v-4.199h4.191v4.2zm-4.086-.105h3.982v-3.989H21.72v3.99z" fill="#F2F2F2"/><path d="M23.703 37.733l-1.306-1.526.205-.177 1.08 1.262 2.87-4.118.22.155-3.069 4.404z" fill="#6C63FF"/></g><defs><clipPath id="clip0_281_11"><path fill="#fff" transform="translate(0 43)" d="M0 0h196v139H0z"/></clipPath><clipPath id="clip1_281_11"><path fill="#fff" transform="translate(9)" d="M0 0h131v87H0z"/></clipPath></defs></svg>