<svg width="208" height="204" fill="none" xmlns="http://www.w3.org/2000/svg"><path d="M162.701 62.851l2.299-.468s-1.933 2.198-2.299 2.337a9.377 9.377 0 000 1.402C158.285 85.382 142 76.874 142 76.874c5.934.14 6.441-2.336 6.441-2.336-3.451-.515-4.14-2.805-4.14-2.805a1.405 1.405 0 001.841-.468c-3.725-.98-3.221-4.68-3.221-4.68.645.56 1.657.793 2.253.886-.414-.514-3.909-4.768-1.802-6.964 0 0 2.575 4.68 9.339 5.088l.461-.094a3.7 3.7 0 01-.093-1.028c0-.644.125-1.283.368-1.878a4.896 4.896 0 011.047-1.593 4.818 4.818 0 011.567-1.064 4.763 4.763 0 011.849-.373c3.221 0 3.91 1.87 3.91 1.87l2.307-1.384c-.046 0-.277 2.334-1.426 2.8z" fill="#6C63FF"/><g opacity=".6"><path opacity=".6" d="M114.343 59.892c5.16 0 9.343-3.965 9.343-8.856s-4.183-8.856-9.343-8.856S105 46.145 105 51.036s4.183 8.856 9.343 8.856z" fill="url(#paint0_linear_281_10)"/><path opacity=".6" d="M114.343 59.229c4.773 0 8.642-3.668 8.642-8.192s-3.869-8.192-8.642-8.192-8.642 3.668-8.642 8.192 3.869 8.192 8.642 8.192z" fill="url(#paint1_radial_281_10)"/><path opacity=".6" d="M114.358 44.836a.11.11 0 01-.076-.027.101.101 0 01-.034-.07v-1.446c0-.027.012-.054.032-.073a.115.115 0 01.155 0 .1.1 0 01.032.073v1.446a.103.103 0 01-.034.069.116.116 0 01-.075.028z" fill="#F3F3F3"/><path opacity=".6" d="M114.358 44.843a.118.118 0 01-.081-.029.103.103 0 01-.035-.074v-1.447a.103.103 0 01.035-.074.118.118 0 01.081-.03c.03 0 .059.01.081.03a.103.103 0 01.036.074v1.447a.112.112 0 01-.037.073.124.124 0 01-.08.03zm0-1.64a.108.108 0 00-.07.026.099.099 0 00-.032.064v1.447a.094.094 0 00.064.084.101.101 0 00.038.006.11.11 0 00.07-.026.095.095 0 00.032-.064v-1.447a.098.098 0 00-.034-.062.115.115 0 00-.068-.028z" fill="#fff"/><path opacity=".6" d="M115.088 44.062a.113.113 0 01-.072-.033.105.105 0 01-.03-.07l.05-.644a.1.1 0 01.039-.067.113.113 0 01.079-.022.115.115 0 01.072.033.1.1 0 01.03.07l-.051.643a.086.086 0 01-.012.038.106.106 0 01-.105.052z" fill="#F3F3F3"/><path opacity=".6" d="M115.088 44.07a.126.126 0 01-.078-.036.113.113 0 01-.032-.076l.052-.643a.104.104 0 01.041-.073.118.118 0 01.083-.024.125.125 0 01.077.035c.02.02.031.048.032.076l-.052.643a.086.086 0 01-.011.041.103.103 0 01-.028.033.112.112 0 01-.084.023zm.066-.839a.099.099 0 00-.069.023.09.09 0 00-.033.061l-.051.643c0 .025.009.049.027.067a.102.102 0 00.068.03.098.098 0 00.068-.022.09.09 0 00.033-.061l.051-.643a.1.1 0 00-.028-.065.114.114 0 00-.066-.033z" fill="#fff"/><path opacity=".6" d="M115.636 44.96a.106.106 0 01-.089-.117l.3-1.418a.09.09 0 01.047-.067.105.105 0 01.084-.01.112.112 0 01.068.043.1.1 0 01.019.075l-.307 1.419a.106.106 0 01-.046.06.116.116 0 01-.078.015h.002z" fill="#F3F3F3"/><path opacity=".6" d="M115.636 44.968a.12.12 0 01-.074-.044.11.11 0 01-.021-.08l.299-1.419a.11.11 0 01.049-.066.122.122 0 01.083-.017.118.118 0 01.073.044.11.11 0 01.022.08l-.3 1.42a.112.112 0 01-.05.064.126.126 0 01-.081.018zm.342-1.613a.11.11 0 00-.072.015.106.106 0 00-.045.055l-.299 1.419a.094.094 0 00.017.07c.015.02.037.035.063.04a.107.107 0 00.118-.07l.299-1.417a.097.097 0 00-.018-.07.106.106 0 00-.063-.04v-.002z" fill="#fff"/><path opacity=".6" d="M116.511 44.337a.104.104 0 01-.067-.047.09.09 0 01-.012-.078l.181-.623a.1.1 0 01.019-.036.097.097 0 01.031-.026.113.113 0 01.082-.008.11.11 0 01.068.047.102.102 0 01.013.078l-.184.623a.085.085 0 01-.018.036.107.107 0 01-.113.034z" fill="#F3F3F3"/><path opacity=".6" d="M116.51 44.346a.114.114 0 01-.04-.018.099.099 0 01-.029-.032.115.115 0 01-.014-.04.119.119 0 01.004-.042l.182-.626a.116.116 0 01.132-.076.123.123 0 01.041.017.11.11 0 01.029.032.085.085 0 01.014.04.087.087 0 01-.004.042l-.181.626a.111.111 0 01-.095.08.12.12 0 01-.044-.003h.005zm.242-.812a.109.109 0 00-.076.008.096.096 0 00-.048.055l-.182.626a.09.09 0 00-.003.036.103.103 0 00.013.034.09.09 0 00.027.027.1.1 0 00.035.013.109.109 0 00.076-.007.096.096 0 00.048-.055l.183-.627a.094.094 0 00-.015-.069.102.102 0 00-.058-.042v.001z" fill="#fff"/><path opacity=".6" d="M116.869 45.313a.104.104 0 01-.035-.022.093.093 0 01-.023-.032.087.087 0 01-.008-.039.1.1 0 01.008-.038l.584-1.336a.1.1 0 01.058-.053.105.105 0 01.08.005c.025.01.045.028.056.051.011.023.011.05.002.073l-.583 1.336a.104.104 0 01-.132.049l-.007.006z" fill="#F3F3F3"/><path opacity=".6" d="M116.869 45.32a.106.106 0 01-.066-.139l.584-1.334a.116.116 0 01.065-.058.122.122 0 01.089.002c.028.01.05.03.062.056a.102.102 0 01.003.082l-.584 1.335a.117.117 0 01-.153.056zm.659-1.516a.106.106 0 00-.077-.001.1.1 0 00-.055.05l-.584 1.335a.107.107 0 00-.006.035.105.105 0 00.009.035.08.08 0 00.023.03.09.09 0 00.032.017.104.104 0 00.11-.017.097.097 0 00.022-.03l.584-1.336a.092.092 0 00-.006-.07.102.102 0 00-.052-.048z" fill="#fff"/><path opacity=".6" d="M117.855 44.87a.106.106 0 01-.053-.056.098.098 0 01.001-.075l.307-.576a.11.11 0 01.064-.049.113.113 0 01.134.065.097.097 0 01-.002.075l-.305.575a.108.108 0 01-.106.053.108.108 0 01-.04-.012z" fill="#F3F3F3"/><path opacity=".6" d="M117.855 44.879a.12.12 0 01-.037-.026.107.107 0 01-.028-.079.118.118 0 01.013-.04l.307-.576a.119.119 0 01.065-.063.121.121 0 01.094.003.114.114 0 01.059.069c.004.014.005.03.003.045a.097.097 0 01-.017.042l-.307.576a.102.102 0 01-.065.055.116.116 0 01-.087-.006zm.401-.751a.102.102 0 00-.108.012.081.081 0 00-.023.029l-.307.576a.1.1 0 00-.002.07.107.107 0 00.045.055.105.105 0 00.075.005.094.094 0 00.033-.018.096.096 0 00.024-.028l.307-.576a.1.1 0 00.006-.072.106.106 0 00-.044-.058l-.006.005z" fill="#fff"/><path opacity=".6" d="M117.998 45.893a.097.097 0 01-.047-.062.086.086 0 010-.04.097.097 0 01.017-.035l.847-1.197a.116.116 0 01.029-.028.107.107 0 01.117 0 .1.1 0 01.048.063.105.105 0 01-.001.04.085.085 0 01-.018.036l-.847 1.196a.097.097 0 01-.027.029.107.107 0 01-.08.015.1.1 0 01-.038-.017z" fill="#F3F3F3"/><path opacity=".6" d="M117.998 45.901a.122.122 0 01-.037-.152l.848-1.197a.103.103 0 01.032-.03.122.122 0 01.127.001c.024.018.04.043.047.07a.123.123 0 01-.01.083l-.847 1.198a.121.121 0 01-.16.027zm.963-1.362a.104.104 0 00-.138.02l-.847 1.197a.08.08 0 00-.013.068.098.098 0 00.015.033c.007.01.016.018.027.024a.106.106 0 00.138-.02l.847-1.19a.089.089 0 00.01-.067.096.096 0 00-.039-.058v-.007z" fill="#fff"/><path opacity=".6" d="M119.066 45.639a.099.099 0 01-.041-.065.093.093 0 01.02-.073l.422-.506a.109.109 0 01.147-.014.097.097 0 01.021.139l-.423.5a.108.108 0 01-.146.014v.005z" fill="#F3F3F3"/><path opacity=".6" d="M119.059 45.646a.108.108 0 01-.044-.072.103.103 0 01.022-.08l.424-.5a.104.104 0 01.076-.041.11.11 0 01.083.027.11.11 0 01.03.031.097.097 0 01.012.082.11.11 0 01-.019.038l-.423.506a.114.114 0 01-.161.009zm.547-.657a.1.1 0 00-.104-.009.094.094 0 00-.028.022l-.423.5a.092.092 0 00-.014.066.096.096 0 00.035.06c.01.007.022.014.034.017.013.004.026.005.039.004a.097.097 0 00.067-.036l.423-.5a.094.094 0 00-.023-.131l-.006.007z" fill="#fff"/><path opacity=".6" d="M118.993 46.677a.103.103 0 01-.024-.031.098.098 0 01-.008-.038.1.1 0 01.008-.038.101.101 0 01.024-.031l1.081-1.016a.109.109 0 01.146 0 .096.096 0 01.029.069.1.1 0 01-.029.07l-1.074 1.015a.109.109 0 01-.153 0z" fill="#F3F3F3"/><path opacity=".6" d="M118.985 46.683a.106.106 0 01-.032-.076c0-.028.011-.056.032-.076l1.081-1.016a.119.119 0 01.163-.004c.011.01.02.022.026.036a.103.103 0 01-.029.12l-1.08 1.016a.122.122 0 01-.161 0zm1.235-1.162a.105.105 0 00-.14 0l-1.079 1.016a.093.093 0 00-.028.066c0 .025.01.049.028.066a.108.108 0 00.132 0l1.08-1.016a.096.096 0 00.027-.066.096.096 0 00-.027-.066h.007z" fill="#fff"/><path opacity=".6" d="M120.088 46.62a.108.108 0 01-.021-.032.083.083 0 01-.006-.038.097.097 0 01.01-.037.103.103 0 01.025-.031l.518-.415a.11.11 0 01.141.017.096.096 0 01.025.068c0 .025-.01.05-.028.067l-.514.416a.11.11 0 01-.036.019.112.112 0 01-.082-.008.1.1 0 01-.032-.025z" fill="#F3F3F3"/><path opacity=".6" d="M120.08 46.63a.108.108 0 01-.029-.078.11.11 0 01.037-.074l.518-.418a.112.112 0 01.126-.014.113.113 0 01.035.028c.021.02.033.048.033.077a.107.107 0 01-.033.076l-.529.417a.112.112 0 01-.16-.014h.002zm.672-.548a.105.105 0 00-.066-.033.105.105 0 00-.072.019l-.518.412a.098.098 0 00-.033.065.096.096 0 00.024.069.105.105 0 00.141.013l.519-.418a.082.082 0 00.03-.063.083.083 0 00-.025-.064z" fill="#fff"/><path opacity=".6" d="M119.795 47.618a.097.097 0 01-.017-.036.089.089 0 010-.04.098.098 0 01.048-.063l1.269-.804a.115.115 0 01.146.027.115.115 0 01.018.037.107.107 0 01.001.04.096.096 0 01-.048.063l-1.27.804a.12.12 0 01-.147-.028z" fill="#F3F3F3"/><path opacity=".6" d="M119.789 47.617a.104.104 0 01-.019-.081.112.112 0 01.048-.071l1.27-.802a.117.117 0 01.088-.016.114.114 0 01.073.05.108.108 0 01.018.082.116.116 0 01-.047.07l-1.27.802a.121.121 0 01-.089.016.107.107 0 01-.041-.017.105.105 0 01-.031-.033zm1.449-.906a.097.097 0 00-.06-.039.102.102 0 00-.072.012l-1.27.801a.094.094 0 00-.043.06.087.087 0 00.014.072.099.099 0 00.063.04.106.106 0 00.076-.012l1.27-.803a.098.098 0 00.038-.061.096.096 0 00-.016-.07z" fill="#fff"/><path opacity=".6" d="M120.884 47.763a.095.095 0 01-.012-.077.1.1 0 01.049-.062l.59-.32a.114.114 0 01.082-.007.11.11 0 01.078.087.103.103 0 01-.002.04.1.1 0 01-.049.062l-.591.319a.113.113 0 01-.147-.042h.002z" fill="#F3F3F3"/><path opacity=".6" d="M120.876 47.77a.108.108 0 01-.013-.08.11.11 0 01.05-.066l.591-.32a.125.125 0 01.086-.007.116.116 0 01.067.05.107.107 0 01.013.08.109.109 0 01-.05.066l-.591.32a.127.127 0 01-.086.006.116.116 0 01-.068-.048h.001zm.773-.417a.078.078 0 00-.023-.028.1.1 0 00-.034-.018.09.09 0 00-.074.01l-.592.32a.096.096 0 00-.042.057.097.097 0 00.005.07.091.091 0 00.058.044.095.095 0 00.074-.01l.591-.32a.093.093 0 00.037-.126v.002z" fill="#fff"/><path opacity=".6" d="M120.395 48.682a.094.094 0 01-.007-.037.08.08 0 01.009-.036.098.098 0 01.022-.031.113.113 0 01.034-.02l1.409-.555a.114.114 0 01.138.056.087.087 0 01.009.04.076.076 0 01-.008.038.091.091 0 01-.023.033.115.115 0 01-.036.02l-1.409.554a.107.107 0 01-.117-.026.1.1 0 01-.021-.035z" fill="#F3F3F3"/><path opacity=".6" d="M120.387 48.69a.114.114 0 01.058-.145l1.41-.553a.12.12 0 01.086.002.107.107 0 01.059.06.11.11 0 01.001.084.117.117 0 01-.059.061l-1.409.554a.114.114 0 01-.122-.027.094.094 0 01-.024-.036zm1.598-.624a.098.098 0 00-.05-.05.107.107 0 00-.073-.005l-1.409.553a.1.1 0 00-.053.053.091.091 0 00.002.072.1.1 0 00.051.05.11.11 0 00.073.005l1.409-.553a.105.105 0 00.034-.023.104.104 0 00.021-.032.083.083 0 00.006-.038.083.083 0 00-.011-.038v.005z" fill="#fff"/><path opacity=".6" d="M121.424 49.03a.111.111 0 01-.008-.04.109.109 0 01.01-.039.128.128 0 01.026-.032.106.106 0 01.038-.02l.641-.203a.11.11 0 01.08.005.095.095 0 01.032.024.09.09 0 01.02.034.11.11 0 01.007.04.107.107 0 01-.01.04.108.108 0 01-.063.053l-.641.202a.107.107 0 01-.081-.004.094.094 0 01-.051-.06z" fill="#F3F3F3"/><path opacity=".6" d="M121.416 49.036a.104.104 0 01-.007-.043.103.103 0 01.041-.075.102.102 0 01.04-.02l.642-.202a.121.121 0 01.087.006.112.112 0 01.066.106.104.104 0 01-.041.076.113.113 0 01-.04.02l-.642.198a.138.138 0 01-.085-.009.13.13 0 01-.061-.057zm.847-.264a.096.096 0 00-.048-.055.107.107 0 00-.076-.007l-.643.202a.091.091 0 00-.054.047.072.072 0 00-.009.035.086.086 0 00.005.036.102.102 0 00.049.055c.023.011.05.014.075.008l.643-.203a.095.095 0 00.053-.048.09.09 0 00.005-.07z" fill="#fff"/><path opacity=".6" d="M120.765 49.85a.086.086 0 01-.002-.04.084.084 0 01.015-.036.085.085 0 01.029-.028.105.105 0 01.038-.013l1.501-.276a.112.112 0 01.081.017.103.103 0 01.028.03.088.088 0 01.015.037.097.097 0 01-.012.076.1.1 0 01-.03.027.093.093 0 01-.038.014l-1.493.276a.115.115 0 01-.085-.015.1.1 0 01-.031-.03.096.096 0 01-.016-.04z" fill="#F3F3F3"/><path opacity=".6" d="M120.752 49.852a.106.106 0 01.016-.082.115.115 0 01.072-.049l1.496-.277a.12.12 0 01.086.019.113.113 0 01.03.154.12.12 0 01-.073.048l-1.495.277a.12.12 0 01-.086-.018.118.118 0 01-.031-.032.098.098 0 01-.015-.04zm1.701-.31a.092.092 0 00-.038-.06.103.103 0 00-.071-.017l-1.497.276a.091.091 0 00-.035.015.092.092 0 00-.027.026.088.088 0 00-.011.07.09.09 0 00.039.06c.02.014.046.02.071.017l1.495-.278a.1.1 0 00.061-.04.086.086 0 00.013-.07z" fill="#fff"/><path opacity=".6" d="M121.701 50.385a.085.085 0 01.001-.039.083.083 0 01.018-.035.103.103 0 01.069-.038l.671-.077a.11.11 0 01.078.023.1.1 0 01.039.068.085.085 0 01-.002.039.094.094 0 01-.047.06.109.109 0 01-.038.013l-.671.077a.116.116 0 01-.077-.024.104.104 0 01-.04-.067h-.001z" fill="#F3F3F3"/><path opacity=".6" d="M121.694 50.386a.103.103 0 01.002-.043.097.097 0 01.018-.039.114.114 0 01.075-.044l.671-.077c.03-.003.06.006.083.025a.107.107 0 01.042.073.109.109 0 01-.021.082.116.116 0 01-.074.044l-.672.077a.117.117 0 01-.083-.024.108.108 0 01-.041-.073v-.001zm.883-.098a.096.096 0 00-.038-.063.104.104 0 00-.072-.02l-.672.076a.097.097 0 00-.08.105.1.1 0 00.038.061c.02.016.046.023.071.022l.672-.077a.095.095 0 00.063-.036.088.088 0 00.018-.068z" fill="#fff"/><path opacity=".6" d="M120.884 51.056a.094.094 0 01.028-.072.094.094 0 01.033-.022.111.111 0 01.04-.01h1.526c.029 0 .057.012.077.031a.1.1 0 010 .147.111.111 0 01-.077.03h-1.526a.111.111 0 01-.04-.009.095.095 0 01-.033-.023.094.094 0 01-.028-.072z" fill="#F3F3F3"/><path opacity=".6" d="M120.876 51.058a.103.103 0 01.031-.077.115.115 0 01.078-.035h1.526a.12.12 0 01.083.033.109.109 0 010 .158.12.12 0 01-.083.033h-1.526a.115.115 0 01-.078-.035.103.103 0 01-.031-.077zm1.73.008a.098.098 0 00-.027-.067.106.106 0 00-.068-.031h-1.526a.102.102 0 00-.069.03.12.12 0 00-.02.031.112.112 0 00-.006.037.101.101 0 00.028.065.109.109 0 00.067.031h1.526a.112.112 0 00.066-.032.106.106 0 00.029-.064z" fill="#fff"/><path opacity=".6" d="M121.694 51.754a.103.103 0 01.035-.068.113.113 0 01.074-.028l.679.049a.114.114 0 01.04.011.111.111 0 01.032.025.104.104 0 01-.012.143.112.112 0 01-.074.029l-.679-.049a.113.113 0 01-.095-.112z" fill="#F3F3F3"/><path opacity=".6" d="M121.688 51.755a.112.112 0 01.037-.074.122.122 0 01.08-.03l.678.049c.03.003.058.017.077.039a.108.108 0 01-.011.152.124.124 0 01-.08.03l-.679-.047a.13.13 0 01-.072-.043.116.116 0 01-.03-.076zm.89.063a.083.083 0 00-.003-.035.092.092 0 00-.018-.031.095.095 0 00-.066-.03l-.68-.05c-.025 0-.05.01-.069.027a.1.1 0 00-.029.1c.004.01.01.021.018.03.008.01.018.017.03.022a.092.092 0 00.036.01l.68.047a.11.11 0 00.067-.028.102.102 0 00.033-.062h.001z" fill="#fff"/><path opacity=".6" d="M120.752 52.26a.107.107 0 01.045-.064.118.118 0 01.079-.019l1.497.285a.105.105 0 01.067.042.117.117 0 01.015.036.105.105 0 01-.047.103.117.117 0 01-.079.018l-1.496-.283a.11.11 0 01-.065-.044.101.101 0 01-.016-.073z" fill="#F3F3F3"/><path opacity=".6" d="M120.745 52.26a.111.111 0 01.047-.07.121.121 0 01.085-.02l1.497.283a.12.12 0 01.076.047.11.11 0 01.019.084.114.114 0 01-.05.073.125.125 0 01-.089.017l-1.497-.283a.123.123 0 01-.067-.048.113.113 0 01-.02-.077l-.001-.006zm1.7.324a.096.096 0 00-.073-.11l-1.496-.284a.107.107 0 00-.073.016.094.094 0 00-.041.058.09.09 0 00.012.07c.013.02.034.036.058.043l1.497.284a.11.11 0 00.074-.017.101.101 0 00.042-.06z" fill="#fff"/><path opacity=".6" d="M121.41 53.09a.102.102 0 01.089-.08.11.11 0 01.042.003l.659.173a.103.103 0 01.076.086.088.088 0 01-.003.04.104.104 0 01-.09.079.112.112 0 01-.042-.003l-.659-.174a.1.1 0 01-.037-.018.103.103 0 01-.04-.068.089.089 0 01.005-.04v.001z" fill="#F3F3F3"/><path opacity=".6" d="M121.401 53.09a.106.106 0 01.05-.064.112.112 0 01.082-.013l.659.174a.114.114 0 01.067.051.104.104 0 01-.036.146.113.113 0 01-.082.013l-.659-.175a.113.113 0 01-.069-.05.108.108 0 01-.012-.082zm.854.23a.095.095 0 00-.008-.072.1.1 0 00-.058-.047l-.658-.174a.096.096 0 00-.103.035.104.104 0 00-.015.034.095.095 0 00.008.072.102.102 0 00.058.047l.659.175a.107.107 0 00.072-.014.098.098 0 00.045-.056z" fill="#fff"/><path opacity=".6" d="M120.38 53.422a.103.103 0 01.054-.053.11.11 0 01.078-.003l1.409.553a.11.11 0 01.056.056.098.098 0 01.002.077.108.108 0 01-.132.055l-1.409-.554a.104.104 0 01-.055-.051.094.094 0 01-.003-.074v-.006z" fill="#F3F3F3"/><path opacity=".6" d="M120.37 53.414a.105.105 0 01.059-.06.119.119 0 01.087-.002l1.409.553a.116.116 0 01.06.062.103.103 0 01-.003.084.107.107 0 01-.058.06.119.119 0 01-.086.003l-1.41-.555a.11.11 0 01-.059-.062.105.105 0 01.001-.083zm1.598.625a.113.113 0 00.009-.037.092.092 0 00-.028-.067.097.097 0 00-.032-.021l-1.409-.553a.099.099 0 00-.074.003.1.1 0 00-.031.022.095.095 0 00-.019.03.111.111 0 00-.009.037.092.092 0 00.028.068.1.1 0 00.033.02l1.411.555a.1.1 0 00.124-.052l-.003-.005z" fill="#fff"/><path opacity=".6" d="M120.855 54.355a.104.104 0 01.057-.046.115.115 0 01.075-.001l.606.29a.11.11 0 01.032.025.1.1 0 01.024.076.106.106 0 01-.069.086.117.117 0 01-.076 0l-.606-.29a.103.103 0 01-.052-.062.097.097 0 01.009-.078z" fill="#F3F3F3"/><path opacity=".6" d="M120.847 54.347a.093.093 0 01.027-.034.11.11 0 01.038-.02.122.122 0 01.088.006l.606.29a.11.11 0 01.049.063.1.1 0 01-.008.078.11.11 0 01-.06.052.123.123 0 01-.083.001l-.606-.29a.105.105 0 01-.059-.063.1.1 0 01.008-.083zm.79.381a.075.075 0 00.012-.035.09.09 0 00-.024-.068.097.097 0 00-.031-.022l-.606-.29a.115.115 0 00-.074-.003.107.107 0 00-.058.043.087.087 0 00.013.104.085.085 0 00.031.021l.606.291c.011.006.024.01.037.01a.099.099 0 00.071-.022.08.08 0 00.023-.029z" fill="#fff"/><path opacity=".6" d="M119.781 54.49a.1.1 0 01.067-.045.103.103 0 01.079.017l1.27.8a.097.097 0 01.046.063.103.103 0 01-.017.076.1.1 0 01-.108.044.1.1 0 01-.038-.017l-1.27-.801a.096.096 0 01-.046-.102.097.097 0 01.017-.036z" fill="#F3F3F3"/><path opacity=".6" d="M119.774 54.481a.139.139 0 01.161-.035l1.27.804a.108.108 0 01.029.152.135.135 0 01-.16.035l-1.271-.803a.1.1 0 01-.032-.03.101.101 0 01-.018-.04.105.105 0 01.021-.083zm1.438.914a.101.101 0 00.017-.07.099.099 0 00-.038-.062l-1.27-.802a.104.104 0 00-.035-.013.102.102 0 00-.072.015.085.085 0 00-.025.026.092.092 0 00-.017.07.099.099 0 00.038.06l1.27.804a.098.098 0 00.132-.029z" fill="#fff"/><path opacity=".6" d="M120.051 55.49a.11.11 0 01.146-.021l.527.396c.022.016.036.04.039.066a.101.101 0 01-.023.073.11.11 0 01-.146.021l-.534-.395a.1.1 0 01-.034-.068.095.095 0 01.025-.071z" fill="#F3F3F3"/><path opacity=".6" d="M120.044 55.483a.118.118 0 01.076-.04.122.122 0 01.085.02l.527.395a.116.116 0 01.064.071.105.105 0 01-.018.092.113.113 0 01-.038.031.122.122 0 01-.098.005.12.12 0 01-.042-.027l-.533-.394a.108.108 0 01-.044-.072.106.106 0 01.021-.08zm.701.52a.084.084 0 00.019-.032.094.094 0 00.004-.037.09.09 0 00-.013-.035.08.08 0 00-.026-.027l-.527-.395a.107.107 0 00-.157.052.094.094 0 00-.004.037.076.076 0 00.012.035c.006.011.015.02.026.028l.527.395a.11.11 0 00.139-.021z" fill="#fff"/><path opacity=".6" d="M118.964 55.422a.097.097 0 01.113-.024.093.093 0 01.033.024l1.081 1.017a.097.097 0 010 .139.113.113 0 01-.033.022.108.108 0 01-.04.008.106.106 0 01-.074-.03l-1.08-1.019a.099.099 0 01-.027-.068c0-.026.009-.05.027-.069z" fill="#F3F3F3"/><path opacity=".6" d="M118.964 55.415c.021-.02.05-.03.08-.03s.059.01.081.03l1.08 1.016a.106.106 0 010 .152.116.116 0 01-.08.032.12.12 0 01-.081-.031l-1.08-1.017a.104.104 0 01-.029-.034.103.103 0 01-.01-.042c0-.014.004-.029.01-.042a.104.104 0 01.029-.034zm1.227 1.155a.095.095 0 000-.131l-1.081-1.017a.105.105 0 00-.14 0 .095.095 0 000 .131l1.081 1.017a.09.09 0 00.031.023.094.094 0 00.077 0 .098.098 0 00.032-.023z" fill="#fff"/><path opacity=".6" d="M119.03 56.452a.104.104 0 01.075-.025.09.09 0 01.039.01.103.103 0 01.032.023l.444.483a.098.098 0 01-.017.134.11.11 0 01-.142 0l-.445-.482a.089.089 0 01-.025-.074.087.087 0 01.012-.038.106.106 0 01.027-.03z" fill="#F3F3F3"/><path opacity=".6" d="M119.022 56.452a.12.12 0 01.161.008l.445.483a.11.11 0 01.023.037c.005.013.007.028.005.042a.1.1 0 01-.043.073.116.116 0 01-.083.033.12.12 0 01-.083-.034l-.445-.484a.109.109 0 01-.026-.08.11.11 0 01.041-.073l.005-.005zm.584.625a.095.095 0 00.032-.06.095.095 0 00-.018-.065l-.445-.482a.105.105 0 00-.139-.006.094.094 0 00-.014.131l.445.484a.1.1 0 00.132 0l.007-.002z" fill="#fff"/><path opacity=".6" d="M117.979 56.188a.097.097 0 01.039-.018.107.107 0 01.084.017c.012.009.021.02.028.032l.846 1.197c.014.023.019.05.014.075a.108.108 0 01-.081.08.106.106 0 01-.08-.014.1.1 0 01-.028-.03l-.846-1.198a.104.104 0 01.029-.139l-.005-.002z" fill="#F3F3F3"/><path opacity=".6" d="M117.978 56.183a.124.124 0 01.087-.018c.03.005.057.022.074.045l.846 1.198a.1.1 0 01.017.083.098.098 0 01-.052.068.124.124 0 01-.087.017.115.115 0 01-.074-.045l-.847-1.196a.102.102 0 01.002-.123.11.11 0 01.034-.029zm.964 1.362a.094.094 0 00.027-.024.096.096 0 00.015-.033.085.085 0 00-.013-.068l-.841-1.2a.103.103 0 00-.138-.02.087.087 0 00-.028.024.082.082 0 00-.017.068.1.1 0 00.014.033l.848 1.197a.114.114 0 00.131.02l.002.003z" fill="#fff"/><path opacity=".6" d="M117.826 57.22a.108.108 0 01.08-.012.109.109 0 01.065.046l.336.562a.1.1 0 01.008.078.109.109 0 01-.052.06.112.112 0 01-.081.012.105.105 0 01-.065-.046l-.336-.562a.109.109 0 01-.005-.077.111.111 0 01.05-.062z" fill="#F3F3F3"/><path opacity=".6" d="M117.826 57.206a.117.117 0 01.153.034l.336.561a.113.113 0 01.014.04.108.108 0 01-.058.106.12.12 0 01-.154-.035l-.336-.56a.095.095 0 01-.013-.04.097.097 0 01.024-.079.107.107 0 01.034-.026zm.437.734a.095.095 0 00.046-.056.094.094 0 00-.009-.07l-.336-.559a.105.105 0 00-.059-.04.11.11 0 00-.073.005.094.094 0 00-.045.056.09.09 0 00.008.07l.336.559a.097.097 0 00.059.043.099.099 0 00.073-.008z" fill="#fff"/><path opacity=".6" d="M116.855 56.758a.113.113 0 01.08-.003.106.106 0 01.058.051l.592 1.334a.105.105 0 01-.058.131.114.114 0 01-.08.002.106.106 0 01-.06-.05l-.59-1.334a.101.101 0 01.001-.076.106.106 0 01.057-.055z" fill="#F3F3F3"/><path opacity=".6" d="M116.854 56.75c.029-.01.06-.01.088 0 .029.01.052.03.065.056l.596 1.335a.097.097 0 01.007.041.103.103 0 01-.036.074.127.127 0 01-.125.023.121.121 0 01-.065-.055l-.591-1.336a.105.105 0 01.004-.081.115.115 0 01.061-.057h-.004zm.659 1.515a.09.09 0 00.052-.048.082.082 0 00.007-.035.082.082 0 00-.007-.035l-.592-1.335a.097.097 0 00-.055-.05.107.107 0 00-.077.001.09.09 0 00-.03.02.092.092 0 00-.021.03.101.101 0 00-.007.033.102.102 0 00.008.035l.591 1.337a.087.087 0 00.023.03c.01.01.022.016.034.02a.11.11 0 00.08-.003h-.006z" fill="#fff"/><path opacity=".6" d="M116.496 57.738a.116.116 0 01.084.004.112.112 0 01.034.024.1.1 0 01.022.035l.211.61a.1.1 0 01.005.039.084.084 0 01-.011.037.1.1 0 01-.06.05.11.11 0 01-.079-.006.1.1 0 01-.053-.056l-.211-.61a.1.1 0 01-.007-.039.1.1 0 01.072-.086l-.007-.002z" fill="#F3F3F3"/><path opacity=".6" d="M116.49 57.734a.114.114 0 01.146.062l.211.608a.105.105 0 01-.007.084.12.12 0 01-.152.053.11.11 0 01-.06-.06l-.211-.609a.121.121 0 01.074-.138h-.001zm.284.795a.1.1 0 00.058-.046.093.093 0 00.008-.071l-.212-.61a.082.082 0 00-.02-.03.098.098 0 00-.104-.024.1.1 0 00-.058.046.093.093 0 00-.008.07l.212.61a.09.09 0 00.079.062c.012 0 .024 0 .036-.004h.009v-.003z" fill="#fff"/><path opacity=".6" d="M115.636 57.109a.104.104 0 01.08.012.11.11 0 01.029.027.097.097 0 01.014.037l.307 1.42a.1.1 0 01-.048.103.114.114 0 01-.04.014.102.102 0 01-.109-.04.084.084 0 01-.015-.037l-.307-1.419a.105.105 0 01.022-.074.117.117 0 01.067-.043z" fill="#F3F3F3"/><path opacity=".6" d="M115.636 57.102c.03-.005.061 0 .087.015.025.016.044.04.051.068l.307 1.419a.097.097 0 010 .041.094.094 0 01-.017.038.116.116 0 01-.071.045.122.122 0 01-.087-.014.113.113 0 01-.052-.07l-.307-1.418a.118.118 0 01-.001-.042.107.107 0 01.09-.083v.001zm.342 1.612a.1.1 0 00.064-.04.094.094 0 00.017-.07l-.301-1.419a.082.082 0 00-.042-.058.1.1 0 00-.074-.01.1.1 0 00-.064.039.09.09 0 00-.016.07l.306 1.419a.098.098 0 00.045.055.11.11 0 00.072.015l-.007-.001z" fill="#fff"/><path opacity=".6" d="M115.081 58.008a.119.119 0 01.079.02.107.107 0 01.045.064l.087.637a.104.104 0 01-.004.039.094.094 0 01-.019.035.109.109 0 01-.032.025.112.112 0 01-.04.01.118.118 0 01-.079-.018.106.106 0 01-.045-.064l-.087-.636a.1.1 0 01.023-.075.11.11 0 01.072-.037z" fill="#F3F3F3"/><path opacity=".6" d="M115.081 58.002a.122.122 0 01.086.02.115.115 0 01.046.07l.088.637a.107.107 0 01-.024.082.118.118 0 01-.078.042.124.124 0 01-.087-.023.112.112 0 01-.044-.074l-.088-.636a.103.103 0 01.025-.078.116.116 0 01.076-.04zm.11.83a.103.103 0 00.064-.035.09.09 0 00.022-.068l-.086-.637a.093.093 0 00-.039-.059.102.102 0 00-.136.019.091.091 0 00-.023.068l.088.636a.097.097 0 00.039.06c.02.013.045.02.071.017z" fill="#fff"/><path opacity=".6" d="M114.329 57.234c.028 0 .055.01.075.028a.097.097 0 01.034.07v1.445a.103.103 0 01-.032.073.115.115 0 01-.155 0 .103.103 0 01-.032-.073v-1.445a.108.108 0 01.035-.069.116.116 0 01.075-.029z" fill="#F3F3F3"/><path opacity=".6" d="M114.329 57.226a.112.112 0 01.117.104v1.447a.11.11 0 01-.035.079.118.118 0 01-.082.032.119.119 0 01-.083-.032.109.109 0 01-.035-.079v-1.446a.114.114 0 01.038-.074c.021-.02.05-.03.08-.03zm0 1.64a.099.099 0 00.07-.025.095.095 0 00.032-.064v-1.446a.093.093 0 00-.031-.066.105.105 0 00-.071-.025.107.107 0 00-.07.027.096.096 0 00-.032.064v1.446a.103.103 0 00.033.063.11.11 0 00.069.027z" fill="#fff"/><path opacity=".6" d="M113.599 58.008a.115.115 0 01.072.033.11.11 0 01.031.07l-.052.645a.1.1 0 01-.039.068.11.11 0 01-.078.022.113.113 0 01-.072-.033.105.105 0 01-.03-.07l.05-.645a.104.104 0 01.04-.067.112.112 0 01.078-.023z" fill="#F3F3F3"/><path opacity=".6" d="M113.599 58.002a.12.12 0 01.077.035c.021.02.032.047.032.075l-.051.645a.107.107 0 01-.041.072.117.117 0 01-.083.024.117.117 0 01-.077-.035.104.104 0 01-.032-.075l.051-.645a.101.101 0 01.04-.074.107.107 0 01.039-.02.118.118 0 01.045-.002zm-.066.837a.101.101 0 00.069-.021.093.093 0 00.034-.061l.051-.645a.092.092 0 00-.028-.066.102.102 0 00-.136-.009.093.093 0 00-.034.061l-.051.645a.1.1 0 00.029.064.11.11 0 00.066.032z" fill="#fff"/><path opacity=".6" d="M113.052 57.109a.112.112 0 01.067.043.101.101 0 01.02.075l-.299 1.419a.097.097 0 01-.016.036.086.086 0 01-.029.027.108.108 0 01-.079.013.11.11 0 01-.068-.043.097.097 0 01-.02-.075l.3-1.419a.105.105 0 01.046-.061.114.114 0 01.078-.015z" fill="#F3F3F3"/><path opacity=".6" d="M113.052 57.103a.12.12 0 01.073.045.106.106 0 01.022.08l-.299 1.42a.118.118 0 01-.052.064.128.128 0 01-.085.015.12.12 0 01-.073-.043.112.112 0 01-.025-.078l.299-1.42a.13.13 0 01.055-.064.136.136 0 01.085-.018v-.001zm-.344 1.616a.11.11 0 00.073-.014.099.099 0 00.044-.055l.298-1.423a.093.093 0 00-.04-.099.106.106 0 00-.112-.002.098.098 0 00-.044.06l-.301 1.419a.098.098 0 00.017.072.11.11 0 00.065.042z" fill="#fff"/><path opacity=".6" d="M112.176 57.732a.109.109 0 01.067.047c.015.023.02.051.013.078l-.183.624a.098.098 0 01-.05.062.107.107 0 01-.082.008.109.109 0 01-.067-.047.098.098 0 01-.013-.078l.182-.624a.097.097 0 01.019-.035.096.096 0 01.031-.026.115.115 0 01.082-.008l.001-.001z" fill="#F3F3F3"/><path opacity=".6" d="M112.176 57.724a.12.12 0 01.04.018.13.13 0 01.03.032.101.101 0 01.01.083l-.183.626a.108.108 0 01-.051.062.122.122 0 01-.081.014.12.12 0 01-.04-.018.13.13 0 01-.029-.031.113.113 0 01-.014-.04.1.1 0 01.003-.042l.183-.627a.111.111 0 01.05-.063.12.12 0 01.082-.013v-.001zm-.239.812a.105.105 0 00.075-.007.093.093 0 00.049-.055l.183-.626a.076.076 0 00.003-.037.088.088 0 00-.014-.035.086.086 0 00-.026-.026.105.105 0 00-.036-.014.109.109 0 00-.076.008.096.096 0 00-.048.055l-.182.626a.097.097 0 00.072.11z" fill="#fff"/><path opacity=".6" d="M111.817 56.757a.1.1 0 01.068.092.103.103 0 01-.008.039l-.584 1.331a.101.101 0 01-.059.053.107.107 0 01-.081-.004.11.11 0 01-.055-.055.1.1 0 01-.003-.076l.579-1.332a.1.1 0 01.055-.05.109.109 0 01.077.002h.011z" fill="#F3F3F3"/><path opacity=".6" d="M111.817 56.75a.119.119 0 01.038.022.097.097 0 01.035.075.098.098 0 01-.007.041l-.584 1.33a.115.115 0 01-.108.065.114.114 0 01-.044-.01.115.115 0 01-.038-.021.104.104 0 01-.036-.075c0-.014.002-.028.008-.041l.583-1.336a.113.113 0 01.11-.062c.015.001.03.005.043.011zm-.659 1.514c.025.01.052.011.077.002a.1.1 0 00.055-.049l.584-1.337a.087.087 0 00.007-.035.106.106 0 00-.009-.035.093.093 0 00-.056-.047.106.106 0 00-.077-.001.1.1 0 00-.055.05l-.584 1.335a.094.094 0 00.004.068c.01.021.027.039.049.05h.005z" fill="#fff"/><path opacity=".6" d="M110.833 57.2a.105.105 0 01.052.056.097.097 0 01-.002.075l-.306.575a.093.093 0 01-.026.031.116.116 0 01-.037.019.116.116 0 01-.083-.008.106.106 0 01-.052-.057.099.099 0 01.001-.075l.307-.574a.094.094 0 01.026-.031.112.112 0 01.12-.011z" fill="#F3F3F3"/><path opacity=".6" d="M110.833 57.193a.12.12 0 01.038.026.09.09 0 01.023.038.096.096 0 01-.011.087l-.306.575a.104.104 0 01-.027.034.116.116 0 01-.084.026.122.122 0 01-.043-.011.107.107 0 01-.058-.063.091.091 0 01-.005-.043.1.1 0 01.013-.04l.306-.575a.109.109 0 01.025-.036.117.117 0 01.129-.018zm-.402.75a.102.102 0 00.109-.014.113.113 0 00.023-.029l.306-.574a.1.1 0 00-.044-.125.099.099 0 00-.132.041l-.305.575a.094.094 0 00-.003.07.103.103 0 00.046.056z" fill="#fff"/><path opacity=".6" d="M110.687 56.176a.113.113 0 01.031.027.09.09 0 01.016.036.076.076 0 01-.001.04.095.095 0 01-.017.036l-.847 1.196a.115.115 0 01-.029.028.112.112 0 01-.079.015.107.107 0 01-.037-.015.1.1 0 01-.048-.063.105.105 0 01.017-.076l.848-1.196a.097.097 0 01.066-.045.106.106 0 01.08.017z" fill="#F3F3F3"/><path opacity=".6" d="M110.687 56.169a.129.129 0 01.046.07.123.123 0 01-.011.082l-.846 1.197a.102.102 0 01-.032.03.121.121 0 01-.087.015.114.114 0 01-.041-.018.124.124 0 01-.047-.07.118.118 0 01.01-.082l.847-1.197a.114.114 0 01.074-.045.124.124 0 01.087.018zm-.964 1.363a.108.108 0 00.132-.02l.846-1.198a.08.08 0 00.014-.033.085.085 0 000-.036.096.096 0 00-.015-.032.1.1 0 00-.028-.024.108.108 0 00-.132.021l-.843 1.19a.09.09 0 00-.012.072.097.097 0 00.042.06h-.004z" fill="#fff"/><path opacity=".6" d="M109.621 56.431a.1.1 0 01.04.065.093.093 0 01-.018.074l-.424.506a.11.11 0 01-.145.012.098.098 0 01-.04-.064.095.095 0 01.018-.073l.423-.506a.11.11 0 01.146-.014z" fill="#F3F3F3"/><path opacity=".6" d="M109.629 56.424a.106.106 0 01.021.152l-.423.5a.11.11 0 01-.122.036.106.106 0 01-.039-.023.108.108 0 01-.044-.071.107.107 0 01.022-.08l.424-.5a.108.108 0 01.077-.042.114.114 0 01.084.028zm-.548.657a.088.088 0 00.033.018c.013.004.026.005.039.004a.097.097 0 00.066-.036l.424-.5a.098.098 0 00.016-.07.1.1 0 00-.038-.062.1.1 0 00-.132.014l-.424.506a.095.095 0 00.022.125h-.006z" fill="#fff"/><path opacity=".6" d="M109.697 55.394a.09.09 0 01.034.07.09.09 0 01-.034.07l-1.079 1.014a.1.1 0 01-.033.022.11.11 0 01-.113-.022.103.103 0 01-.023-.031.096.096 0 01-.008-.037.1.1 0 01.008-.038.103.103 0 01.023-.031l1.072-1.017a.109.109 0 01.118-.023.099.099 0 01.035.023z" fill="#F3F3F3"/><path opacity=".6" d="M109.697 55.388c.021.02.033.047.033.076a.107.107 0 01-.033.076l-1.08 1.016a.117.117 0 01-.124.023.117.117 0 01-.037-.023.103.103 0 01-.024-.035.098.098 0 010-.083.104.104 0 01.024-.034l1.081-1.016c.021-.02.05-.031.08-.031s.059.01.08.03zm-1.233 1.16a.104.104 0 00.132 0l1.08-1.016a.086.086 0 00.017-.06.088.088 0 00-.026-.056.104.104 0 00-.123-.015l-1.08 1.016a.092.092 0 00-.028.066c0 .024.01.048.028.065z" fill="#fff"/><path opacity=".6" d="M108.598 55.45c.02.018.03.043.03.069 0 .026-.01.05-.03.069l-.518.415a.101.101 0 01-.037.02.117.117 0 01-.084-.005.101.101 0 01-.056-.06.094.094 0 01-.006-.04.11.11 0 01.011-.04.099.099 0 01.026-.033l.519-.415a.103.103 0 01.037-.017.105.105 0 01.078.01.095.095 0 01.03.026z" fill="#F3F3F3"/><path opacity=".6" d="M108.606 55.442c.011.01.018.023.023.036a.1.1 0 01-.004.083.103.103 0 01-.026.034l-.518.416a.113.113 0 01-.127.015.11.11 0 01-.034-.029.106.106 0 01.008-.153l.518-.415a.11.11 0 01.126-.014.099.099 0 01.034.027zm-.671.55a.108.108 0 00.139.014l.518-.417a.098.098 0 00.033-.065.096.096 0 00-.024-.069.105.105 0 00-.141-.013l-.518.418a.087.087 0 00-.03.06.082.082 0 00.023.065v.006z" fill="#fff"/><path opacity=".6" d="M108.891 54.454c.008.01.015.023.018.035a.106.106 0 01.001.04.097.097 0 01-.048.063l-1.273.802a.117.117 0 01-.079.013.11.11 0 01-.085-.076.088.088 0 010-.04.084.084 0 01.016-.036.099.099 0 01.031-.027l1.27-.802a.121.121 0 01.146.028h.003z" fill="#F3F3F3"/><path opacity=".6" d="M108.899 54.453c.017.024.023.054.017.082a.107.107 0 01-.047.07l-1.271.803a.113.113 0 01-.087.016.118.118 0 01-.042-.018.115.115 0 01-.03-.032.11.11 0 01-.019-.082.112.112 0 01.048-.07l1.27-.804a.115.115 0 01.043-.016.116.116 0 01.118.051zm-1.45.907a.096.096 0 00.06.04.103.103 0 00.038 0 .092.092 0 00.034-.012l1.27-.804a.087.087 0 00.039-.058.083.083 0 00-.001-.035.1.1 0 00-.147-.06l-1.27.803a.1.1 0 00-.038.063.098.098 0 00.017.07l-.002-.007z" fill="#fff"/><path opacity=".6" d="M107.804 54.309a.099.099 0 01.012.076.117.117 0 01-.018.035.114.114 0 01-.031.026l-.592.319a.114.114 0 01-.082.007.109.109 0 01-.064-.049.093.093 0 01-.013-.075.099.099 0 01.046-.063l.592-.319a.114.114 0 01.082-.007.11.11 0 01.064.05h.004z" fill="#F3F3F3"/><path opacity=".6" d="M107.81 54.302a.1.1 0 01.013.079.108.108 0 01-.05.065l-.59.319a.122.122 0 01-.154-.041.1.1 0 01-.012-.08.103.103 0 01.049-.065l.591-.319a.125.125 0 01.086-.008.114.114 0 01.067.05zm-.773.42a.09.09 0 00.058.045.098.098 0 00.074-.01l.59-.32a.1.1 0 00.044-.055.093.093 0 00-.007-.07.092.092 0 00-.058-.044.095.095 0 00-.074.01l-.59.32a.095.095 0 00-.045.055.089.089 0 00.008.07z" fill="#fff"/><path opacity=".6" d="M108.293 53.388a.088.088 0 01.009.039.105.105 0 01-.008.039.097.097 0 01-.025.033.094.094 0 01-.036.02l-1.408.553a.116.116 0 01-.077-.004.107.107 0 01-.055-.051.087.087 0 01-.009-.039.087.087 0 01.031-.071.112.112 0 01.036-.021l1.41-.553a.108.108 0 01.132.055z" fill="#F3F3F3"/><path opacity=".6" d="M108.299 53.38a.107.107 0 01.001.084.116.116 0 01-.059.062l-1.408.554a.122.122 0 01-.087-.002.107.107 0 01-.036-.025.124.124 0 01-.024-.035.114.114 0 01-.001-.084.118.118 0 01.059-.061l1.41-.556a.119.119 0 01.086.003.112.112 0 01.059.06zm-1.598.625a.1.1 0 00.051.05.107.107 0 00.073.007l1.408-.555a.113.113 0 00.033-.02.1.1 0 00.021-.032.092.092 0 00.006-.037.09.09 0 00-.008-.036.1.1 0 00-.051-.05.106.106 0 00-.073-.005l-1.409.554a.097.097 0 00-.032.021.088.088 0 00-.022.032.078.078 0 00-.006.036.08.08 0 00.009.037v-.002z" fill="#fff"/><path opacity=".6" d="M107.264 53.041a.092.092 0 01.006.04.09.09 0 01-.01.04.109.109 0 01-.025.032.118.118 0 01-.037.02l-.643.203a.109.109 0 01-.08-.005.106.106 0 01-.032-.024.093.093 0 01-.02-.034.095.095 0 01.005-.075.103.103 0 01.06-.05l.643-.204a.108.108 0 01.079.001.116.116 0 01.033.023c.009.01.016.021.021.033z" fill="#F3F3F3"/><path opacity=".6" d="M107.27 53.033a.094.094 0 01.007.044.105.105 0 01-.012.043.111.111 0 01-.071.053l-.643.203a.124.124 0 01-.088-.008.114.114 0 01-.065-.106.104.104 0 01.04-.076.12.12 0 01.04-.02l.642-.202a.13.13 0 01.087.009.118.118 0 01.059.06h.004zm-.846.266a.102.102 0 00.049.055c.023.012.05.014.075.008l.646-.203a.096.096 0 00.055-.047.087.087 0 00.004-.07.093.093 0 00-.02-.035.106.106 0 00-.112-.029l-.641.203a.098.098 0 00-.052.048.093.093 0 00-.004.07z" fill="#fff"/><path opacity=".6" d="M107.92 52.223a.087.087 0 01.002.04.084.084 0 01-.015.036.087.087 0 01-.029.028.106.106 0 01-.038.014l-1.496.276a.112.112 0 01-.085-.013.107.107 0 01-.031-.03.11.11 0 01-.016-.04.103.103 0 01-.002-.038.084.084 0 01.015-.037.087.087 0 01.029-.028.104.104 0 01.039-.014l1.496-.278a.115.115 0 01.081.018c.023.016.038.04.043.066h.007z" fill="#F3F3F3"/><path opacity=".6" d="M107.934 52.224a.106.106 0 01-.016.078.116.116 0 01-.065.048l-1.502.277a.12.12 0 01-.086-.018.104.104 0 01-.046-.072.11.11 0 01.016-.082.119.119 0 01.072-.05l1.497-.276a.113.113 0 01.117.053.103.103 0 01.013.042zm-1.699.312a.092.092 0 00.038.06c.02.013.046.02.071.016l1.496-.277a.105.105 0 00.035-.014.1.1 0 00.026-.026.085.085 0 00.014-.034.089.089 0 00-.002-.037.092.092 0 00-.038-.059.103.103 0 00-.071-.017l-1.497.277a.095.095 0 00-.06.041.087.087 0 00-.012.07z" fill="#fff"/><path opacity=".6" d="M106.986 51.686a.1.1 0 01-.002.038.096.096 0 01-.047.06.108.108 0 01-.038.013l-.672.077a.112.112 0 01-.078-.023.105.105 0 01-.04-.068.1.1 0 01.002-.038.112.112 0 01.018-.035.096.096 0 01.03-.026.109.109 0 01.039-.012l.672-.077a.114.114 0 01.076.024c.022.017.036.04.04.067z" fill="#F3F3F3"/><path opacity=".6" d="M106.993 51.685a.102.102 0 01-.021.08.116.116 0 01-.073.045l-.672.076a.118.118 0 01-.083-.024.104.104 0 01-.041-.073.102.102 0 01.021-.08.116.116 0 01.074-.045l.672-.075a.116.116 0 01.082.024.103.103 0 01.041.072zm-.884.098a.102.102 0 00.038.06c.02.016.046.024.072.022l.672-.076a.096.096 0 00.062-.036.087.087 0 00.018-.068.098.098 0 00-.037-.061.106.106 0 00-.072-.02l-.672.075a.1.1 0 00-.062.037.09.09 0 00-.019.067z" fill="#fff"/><path opacity=".6" d="M107.804 51.016a.1.1 0 01-.029.073.109.109 0 01-.074.032h-1.526a.112.112 0 01-.077-.031.104.104 0 01-.032-.074c0-.028.012-.054.032-.074a.112.112 0 01.077-.03h1.526a.109.109 0 01.074.031.1.1 0 01.029.073z" fill="#F3F3F3"/><path opacity=".6" d="M107.81 51.016a.106.106 0 01-.03.077.118.118 0 01-.079.033h-1.526a.113.113 0 01-.078-.033.103.103 0 01-.031-.077.104.104 0 01.031-.078.115.115 0 01.078-.034h1.526a.12.12 0 01.079.034.11.11 0 01.03.078zm-1.73-.008a.101.101 0 00.095.098h1.526a.096.096 0 00.089-.061.077.077 0 00.006-.037.102.102 0 00-.095-.097h-1.526a.11.11 0 00-.066.032.107.107 0 00-.029.065z" fill="#fff"/><path opacity=".6" d="M106.994 50.315a.109.109 0 01-.035.069.117.117 0 01-.075.029l-.68-.05a.105.105 0 01-.095-.11.108.108 0 01.11-.097l.68.049a.121.121 0 01.068.039.11.11 0 01.027.07z" fill="#E2E2E2"/><path opacity=".6" d="M107 50.316a.108.108 0 01-.037.074.117.117 0 01-.079.03l-.68-.047a.115.115 0 01-.076-.04.105.105 0 01-.025-.08.107.107 0 01.037-.073.12.12 0 01.079-.03l.68.048a.13.13 0 01.071.043.119.119 0 01.03.075zm-.891-.063a.087.087 0 00.022.068.102.102 0 00.067.03l.678.05c.026 0 .051-.01.07-.027a.096.096 0 00.033-.064.086.086 0 00-.022-.067.096.096 0 00-.066-.03l-.679-.05a.114.114 0 00-.068.028.105.105 0 00-.035.063z" fill="#fff"/><path opacity=".6" d="M107.934 49.811a.106.106 0 01-.045.064.115.115 0 01-.078.019l-1.497-.292a.1.1 0 01-.067-.043.097.097 0 01-.012-.076.1.1 0 01.044-.064.118.118 0 01.08-.019l1.494.286a.124.124 0 01.064.05.11.11 0 01.016.075h.001z" fill="#F3F3F3"/><path opacity=".6" d="M107.942 49.81a.114.114 0 01-.047.069.128.128 0 01-.085.02l-1.496-.282a.118.118 0 01-.072-.05.105.105 0 01-.015-.082.114.114 0 01.047-.07.123.123 0 01.084-.02l1.495.284a.117.117 0 01.088.13h.001zm-1.701-.325a.097.097 0 00.015.068.11.11 0 00.058.043l1.496.282a.109.109 0 00.075-.015.1.1 0 00.043-.06.102.102 0 00-.015-.069.107.107 0 00-.059-.041l-1.496-.283a.11.11 0 00-.074.016.101.101 0 00-.043.059z" fill="#fff"/><path opacity=".6" d="M107.278 48.977a.103.103 0 01-.049.064.115.115 0 01-.083.012l-.658-.173a.104.104 0 01-.065-.048.1.1 0 01-.012-.038.105.105 0 01.004-.04.09.09 0 01.018-.036.102.102 0 01.031-.028.112.112 0 01.083-.012l.659.173c.013.003.026.01.037.017a.091.091 0 01.027.03.087.087 0 01.013.038.088.088 0 01-.003.04l-.002.001z" fill="#F3F3F3"/><path opacity=".6" d="M107.285 48.976a.105.105 0 01-.05.063.115.115 0 01-.082.013l-.659-.173a.116.116 0 01-.073-.046.107.107 0 01-.018-.082.11.11 0 01.053-.065.122.122 0 01.087-.01l.659.173a.113.113 0 01.066.047c.015.023.02.05.014.078l.003.002zm-.854-.228a.093.093 0 00.008.07.1.1 0 00.058.047l.659.173a.093.093 0 00.074-.01.084.084 0 00.027-.026.087.087 0 00.015-.034.09.09 0 00-.009-.07.1.1 0 00-.057-.047l-.659-.172a.107.107 0 00-.072.013.096.096 0 00-.045.056h.001z" fill="#fff"/><path opacity=".6" d="M108.307 48.648a.098.098 0 01-.054.053.108.108 0 01-.077.002l-1.41-.553a.11.11 0 01-.056-.055.097.097 0 01-.002-.077.098.098 0 01.054-.052.11.11 0 01.078-.002l1.408.553a.105.105 0 01.035.021c.01.01.018.02.023.033a.088.088 0 010 .077h.001z" fill="#F3F3F3"/><path opacity=".6" d="M108.314 48.656a.112.112 0 01-.059.059.119.119 0 01-.086.003l-1.41-.554a.114.114 0 01-.056-.06.107.107 0 01.002-.081.113.113 0 01.058-.059.122.122 0 01.084-.007l1.409.553a.119.119 0 01.059.062.11.11 0 01-.001.084zm-1.598-.624a.077.077 0 00-.009.036.078.078 0 00.007.037.097.097 0 00.053.052l1.409.552a.097.097 0 00.105-.024.094.094 0 00.018-.03.087.087 0 00.002-.073.096.096 0 00-.052-.052l-1.41-.553a.102.102 0 00-.074.004.091.091 0 00-.049.052v-.001z" fill="#fff"/><path opacity=".6" d="M107.833 47.713a.112.112 0 01-.132.049l-.613-.284a.097.097 0 01-.053-.06.077.077 0 01-.004-.04.086.086 0 01.012-.037.113.113 0 01.14-.049l.605.29a.104.104 0 01.052.06.096.096 0 01-.007.078v-.007z" fill="#F3F3F3"/><path opacity=".6" d="M107.84 47.728a.12.12 0 01-.027.034.114.114 0 01-.126.015l-.606-.298a.112.112 0 01-.064-.063.095.095 0 01-.007-.044.108.108 0 01.082-.098.126.126 0 01.047-.004.114.114 0 01.044.015l.605.29a.104.104 0 01.064.065.1.1 0 01.004.046.11.11 0 01-.016.042zm-.791-.38a.087.087 0 00-.011.035.09.09 0 00.024.067.08.08 0 00.03.022l.607.291a.116.116 0 00.074.002.106.106 0 00.057-.044.088.088 0 00-.043-.125l-.614-.291a.094.094 0 00-.103.013.087.087 0 00-.021.028v.002z" fill="#fff"/><path opacity=".6" d="M108.907 47.583a.103.103 0 01-.109.044.106.106 0 01-.038-.017l-1.262-.794a.088.088 0 01-.029-.028.084.084 0 01-.016-.036.097.097 0 01.016-.075.1.1 0 01.146-.028l1.269.803a.086.086 0 01.038.058.084.084 0 01-.015.067v.006z" fill="#F3F3F3"/><path opacity=".6" d="M108.913 47.59a.137.137 0 01-.16.034l-1.264-.803a.108.108 0 01-.029-.152.135.135 0 01.161-.035l1.262.804a.1.1 0 01.033.03.1.1 0 01.017.083.1.1 0 01-.02.04zm-1.438-.915a.094.094 0 00-.017.07.1.1 0 00.039.063l1.27.802a.101.101 0 00.072.012.096.096 0 00.06-.04.092.092 0 00.013-.066.099.099 0 00-.035-.058l-1.271-.804a.099.099 0 00-.131.028v-.007z" fill="#fff"/><path opacity=".6" d="M108.635 46.583a.108.108 0 01-.146.02l-.527-.396a.1.1 0 01-.038-.067.101.101 0 01.023-.072.11.11 0 01.147-.022l.527.397a.1.1 0 01.037.067.093.093 0 01-.023.073z" fill="#F3F3F3"/><path opacity=".6" d="M108.643 46.587a.111.111 0 01-.076.042.116.116 0 01-.044-.003.116.116 0 01-.041-.018l-.527-.395a.109.109 0 01-.044-.072.111.111 0 01.023-.08.12.12 0 01.161-.02l.527.393c.024.018.04.043.044.072a.107.107 0 01-.022.08h-.001zm-.701-.52a.098.098 0 00-.019.033.09.09 0 00-.004.036.108.108 0 00.012.035c.006.011.015.02.026.028l.527.395a.11.11 0 00.074.015.104.104 0 00.065-.036.085.085 0 00.019-.032.092.092 0 00.004-.037.092.092 0 00-.037-.063l-.527-.395a.11.11 0 00-.132.022h-.008z" fill="#fff"/><path opacity=".6" d="M109.722 46.649a.097.097 0 01-.112.023.092.092 0 01-.033-.023l-1.088-1.017a.097.097 0 01-.03-.07c0-.025.011-.05.03-.068a.101.101 0 01.146 0l1.081 1.016a.097.097 0 01.008.139h-.002z" fill="#F3F3F3"/><path opacity=".6" d="M109.722 46.656a.117.117 0 01-.159 0l-1.081-1.017a.102.102 0 01-.024-.035.098.098 0 010-.083.104.104 0 01.024-.035.122.122 0 01.161 0l1.079 1.018a.096.096 0 01.039.076.104.104 0 01-.01.042.104.104 0 01-.029.034zm-1.225-1.156a.093.093 0 00-.028.066c0 .025.01.048.028.066l1.08 1.016a.09.09 0 00.032.028c.012.007.026.01.041.012a.119.119 0 00.042-.006.096.096 0 00.058-.058.092.092 0 00.004-.04.09.09 0 00-.015-.038.09.09 0 00-.03-.029l-1.08-1.023a.098.098 0 00-.132.007V45.5z" fill="#fff"/><path opacity=".6" d="M109.658 45.62a.11.11 0 01-.147-.007l-.445-.486a.109.109 0 01-.019-.034.097.097 0 01-.004-.038.116.116 0 01.012-.036.088.088 0 01.026-.03.108.108 0 01.146.006l.445.486a.098.098 0 01.022.073.103.103 0 01-.036.066z" fill="#F3F3F3"/><path opacity=".6" d="M109.664 45.618a.12.12 0 01-.16-.007l-.446-.485a.092.092 0 01-.022-.037c-.005-.013-.007-.028-.005-.042a.097.097 0 01.043-.072.116.116 0 01.124-.019.12.12 0 01.036.025l.445.485a.11.11 0 01.026.079.11.11 0 01-.041.073zm-.583-.624a.096.096 0 00-.035.063.099.099 0 00.02.068l.446.48a.104.104 0 00.135.003.1.1 0 00.035-.061.09.09 0 00-.018-.067l-.445-.485a.096.096 0 00-.106-.026.094.094 0 00-.032.02v.005z" fill="#fff"/><path opacity=".6" d="M110.708 45.88a.1.1 0 01-.038.018.1.1 0 01-.079-.015.09.09 0 01-.028-.03l-.855-1.197a.103.103 0 01.03-.139.101.101 0 01.117-.002.09.09 0 01.028.03l.847 1.197c.009.01.015.022.018.035a.085.085 0 01.002.039.098.098 0 01-.042.065z" fill="#F3F3F3"/><path opacity=".6" d="M110.708 45.887a.124.124 0 01-.161-.027l-.85-1.198a.102.102 0 01-.018-.04.128.128 0 01.001-.044.11.11 0 01.054-.069.122.122 0 01.161.029l.846 1.197a.116.116 0 01.019.04.106.106 0 01-.018.083.114.114 0 01-.034.03zm-.963-1.364a.087.087 0 00-.029.125l.847 1.198c.016.02.039.033.065.036a.104.104 0 00.115-.073.087.087 0 00-.013-.068l-.847-1.189a.105.105 0 00-.06-.038.11.11 0 00-.072.01h-.006z" fill="#fff"/><path opacity=".6" d="M110.862 44.855a.112.112 0 01-.081.012.104.104 0 01-.065-.045l-.336-.562a.096.096 0 01-.008-.078.112.112 0 01.132-.072.105.105 0 01.065.046l.336.562a.102.102 0 01.006.077.107.107 0 01-.049.06z" fill="#F3F3F3"/><path opacity=".6" d="M110.862 44.865a.119.119 0 01-.154-.035l-.335-.561a.112.112 0 01-.014-.04.098.098 0 01.023-.079c.01-.01.022-.02.035-.026a.119.119 0 01.084-.012.115.115 0 01.069.047l.336.561a.11.11 0 01.01.081.107.107 0 01-.054.064zm-.439-.734a.097.097 0 00-.045.056.086.086 0 00-.002.035.072.072 0 00.012.034l.336.562c.014.02.035.034.059.04.024.007.05.005.073-.005a.093.093 0 00.044-.056.09.09 0 00-.008-.07l-.336-.56a.088.088 0 00-.024-.028.102.102 0 00-.072-.019.098.098 0 00-.035.012h-.002z" fill="#fff"/><path opacity=".6" d="M111.832 45.314a.11.11 0 01-.076 0 .099.099 0 01-.056-.048l-.59-1.336a.097.097 0 01.004-.073.109.109 0 01.054-.052.108.108 0 01.075 0 .098.098 0 01.056.047l.592 1.338a.101.101 0 01-.003.076.11.11 0 01-.056.055v-.007z" fill="#F3F3F3"/><path opacity=".6" d="M111.832 45.321a.127.127 0 01-.088 0 .119.119 0 01-.065-.056l-.592-1.335a.106.106 0 01.003-.082.114.114 0 01.063-.057.13.13 0 01.089 0c.028.01.052.03.065.056l.591 1.336a.108.108 0 01-.005.08.116.116 0 01-.06.058h-.001zm-.659-1.516a.092.092 0 00-.031.02.108.108 0 00-.02.029.083.083 0 00.001.068l.59 1.337c.011.023.031.04.056.05a.104.104 0 00.076-.003.091.091 0 00.052-.048.082.082 0 00-.001-.07l-.597-1.332a.1.1 0 00-.055-.05.108.108 0 00-.076.001l.005-.002z" fill="#fff"/><path opacity=".6" d="M112.19 44.33a.11.11 0 01-.112-.028.108.108 0 01-.02-.034l-.212-.608a.1.1 0 01.005-.075.102.102 0 01.061-.05.121.121 0 01.078.009.11.11 0 01.054.054l.212.61a.085.085 0 01.006.038.09.09 0 01-.036.068.097.097 0 01-.036.018v-.001z" fill="#F3F3F3"/><path opacity=".6" d="M112.201 44.337a.121.121 0 01-.087-.002.115.115 0 01-.035-.025.105.105 0 01-.023-.035l-.212-.61a.101.101 0 01.006-.082.122.122 0 01.028-.034.126.126 0 01.039-.02.116.116 0 01.122.027c.01.01.018.022.023.035l.212.608a.121.121 0 01-.011.081.127.127 0 01-.062.057zm-.285-.795a.097.097 0 00-.057.046.089.089 0 00-.008.072l.211.607a.097.097 0 00.05.053c.023.01.05.012.074.004a.1.1 0 00.058-.047.093.093 0 00.008-.07l-.211-.61a.09.09 0 00-.044-.052.097.097 0 00-.07-.007h-.011v.004z" fill="#fff"/><path opacity=".6" d="M113.052 44.96a.103.103 0 01-.081-.011.087.087 0 01-.029-.029.085.085 0 01-.014-.037l-.307-1.417a.1.1 0 01.048-.103.112.112 0 01.039-.014.1.1 0 01.109.04.085.085 0 01.015.036l.307 1.417a.11.11 0 01-.021.074.114.114 0 01-.066.043z" fill="#F3F3F3"/><path opacity=".6" d="M113.052 44.967a.125.125 0 01-.088-.015.112.112 0 01-.052-.068l-.305-1.42a.083.083 0 01-.001-.04.107.107 0 01.016-.039.111.111 0 01.072-.045c.03-.006.061 0 .087.015.026.016.044.04.051.069l.307 1.418a.098.098 0 01.001.042.093.093 0 01-.016.039.106.106 0 01-.072.044zm-.344-1.612a.104.104 0 00-.064.04.09.09 0 00-.016.071l.307 1.42a.083.083 0 00.015.033.102.102 0 00.064.038.102.102 0 00.038-.002.104.104 0 00.064-.04.09.09 0 00.016-.071l-.307-1.42a.098.098 0 00-.045-.055.108.108 0 00-.072-.014z" fill="#fff"/><path opacity=".6" d="M113.607 44.063a.12.12 0 01-.08-.019.112.112 0 01-.046-.064l-.086-.637a.097.097 0 01.023-.075.105.105 0 01.071-.037.119.119 0 01.079.02.107.107 0 01.045.064l.089.638a.1.1 0 01-.024.073.108.108 0 01-.071.037z" fill="#F3F3F3"/><path opacity=".6" d="M113.606 44.069a.123.123 0 01-.085-.02.11.11 0 01-.046-.07l-.089-.636a.108.108 0 01.026-.08.12.12 0 01.077-.038.122.122 0 01.085.02.111.111 0 01.047.07l.087.636a.103.103 0 01-.025.079.117.117 0 01-.077.039zm-.109-.83a.103.103 0 00-.065.036.09.09 0 00-.023.068l.088.636a.092.092 0 00.038.059.102.102 0 00.136-.019.094.094 0 00.022-.068l-.087-.636a.092.092 0 00-.038-.059.102.102 0 00-.071-.017z" fill="#fff"/><path opacity=".6" d="M114.395 59.221c4.772 0 8.642-3.667 8.642-8.191 0-4.524-3.87-8.192-8.642-8.192-4.773 0-8.643 3.668-8.643 8.192s3.87 8.191 8.643 8.191z" fill="url(#paint2_linear_281_10)" fill-opacity=".2"/><path opacity=".05" d="M120.379 45.833l-6.97 4.234h-.008v.007l-.007.007-4.35 6.801 6.394-4.878.007-.006v-.008l4.934-6.157z" fill="#000"/><path opacity=".6" d="M120.249 45.438l-6.891 4.642 2.043 1.923 4.848-6.565z" fill="#CD151E"/><path opacity=".6" d="M113.365 50.066l1.03.962 5.854-5.59-6.884 4.628z" fill="#FA5153"/><path opacity=".6" d="M113.365 50.067l2.044 1.923-6.891 4.642 4.847-6.565z" fill="#ACACAC"/><path opacity=".6" d="M108.518 56.632l5.876-5.603-1.029-.962-4.847 6.565z" fill="#EEE"/></g><path opacity=".6" d="M178.652 34.79h8.061c0-2.665-1.248-4.48-4.653-4.48-4.023 0-8.115 2.438-10.06 5.479.602-5.281 4.671-9.54 10.786-9.54 5.245 0 10.214 3.728 10.214 9.94v2.36h-14.309c0 3.212 3.002 4.484 6.16 4.484 3.837 0 6.211-1.604 6.211-1.604v4.504s-2.681 1.516-6.955 1.516c-5.555 0-9.475-3.706-9.475-8.314a7.78 7.78 0 011.512-4.664c1.002-1.375 2.429-2.434 4.093-3.034-1.583 1.621-1.59 3.358-1.59 3.358l.005-.005z" fill="#3277BC"/><g opacity=".6"><path opacity=".6" d="M142.022 16.88s4.571-.196 7.005 4.172h-7.395s-1.395-.041-2.586 1.562c-.339.674-.711 1.367-.298 2.728a1035.62 1035.62 0 01-3.158-5.187s1.808-3.104 6.434-3.275h-.002z" fill="#EF3F36"/><path opacity=".6" d="M148.789 27.95s-2.112 3.852-7.309 3.666c.643-1.053 3.699-6.07 3.699-6.07s.738-1.123-.134-2.904c-.441-.62-.893-1.266-2.349-1.605 1.171-.01 6.318 0 6.318 0s1.928 3.032-.225 6.914z" fill="#FCD900"/><path opacity=".6" d="M135.287 27.981s-2.466-3.662.307-7.833c.64 1.055 3.695 6.07 3.695 6.07s.659 1.17 2.721 1.343c.786-.055 1.602-.101 2.646-1.123-.576.962-3.157 5.184-3.157 5.184s-3.742.066-6.212-3.642v.001z" fill="#61BC5B"/><path opacity=".6" d="M141.478 31.653l1.042-4.114a3.549 3.549 0 002.101-1.08c-.596.992-3.143 5.194-3.143 5.194z" fill="#5AB055"/><path opacity=".6" d="M138.538 24.311c0-.65.203-1.285.584-1.825.381-.54.922-.961 1.555-1.21a3.642 3.642 0 012.002-.186c.673.126 1.29.44 1.775.898.484.46.814 1.045.948 1.682a3.127 3.127 0 01-.197 1.898 3.333 3.333 0 01-1.276 1.475c-.57.36-1.24.553-1.926.553-.919 0-1.8-.346-2.45-.962a3.2 3.2 0 01-1.015-2.323z" fill="#fff"/><path opacity=".6" d="M139.118 24.311c0-.54.169-1.067.485-1.515a2.855 2.855 0 011.292-1.005 3.027 3.027 0 011.663-.155 2.929 2.929 0 011.473.746c.403.382.677.868.788 1.397.111.53.054 1.078-.164 1.576a2.755 2.755 0 01-1.06 1.224c-.473.3-1.029.46-1.599.46a2.961 2.961 0 01-2.035-.799 2.66 2.66 0 01-.843-1.929z" fill="url(#paint3_linear_281_10)"/><path opacity=".6" d="M149.012 21.034l-4.283 1.191a3.51 3.51 0 00-2.032-1.191h6.318-.003z" fill="#EACA05"/><path opacity=".6" d="M138.665 25.193c-.601-.988-3.075-5.038-3.075-5.038l3.171 2.974a2.833 2.833 0 00-.203 1.544l.107.52z" fill="#DF3A32"/></g><path d="M179.161 12.094c3.306 0 4.839-1.9 4.839-4.449C184 3.196 180.653 0 176.5 0c-4.153 0-7.5 3.628-7.5 8.077s3.347 8.076 7.5 8.076a7.086 7.086 0 004.267-1.496.594.594 0 00.155-.175.637.637 0 00.079-.226.407.407 0 00-.285-.471.445.445 0 00-.376.048.482.482 0 00-.143.138c-.274.386-1.095 1.04-3.52 1.1-3.669.09-6.738-3.04-6.75-6.97-.012-3.9 2.976-6.978 6.573-7.022 3.597-.043 6.489 2.678 6.489 6.48 0 2.42-1.573 3.542-3.468 3.498-.605.044-.726-.215-.645-1.122.066-.745.73-3.85.965-4.936a.633.633 0 00-.11-.52.57.57 0 00-.203-.167.529.529 0 00-.251-.054h-.041a.547.547 0 00-.329.172.624.624 0 00-.159.354c-.021.174-.032.35-.034.526-.363-.777-1.21-1.382-2.217-1.425-2.137.043-3.992 2.12-4.07 5.14 0 2.03 1.008 3.197 2.742 3.197 1.21 0 2.097-.778 2.58-1.512 0 .002-.04 1.297 1.412 1.384zm-3.831-.907c-1.089 0-1.734-.864-1.734-2.246 0-2.375 1.492-3.888 2.904-3.888 1.249 0 1.733.908 1.774 2.121-.001 1.94-1.17 4.013-2.944 4.013zm-20.556 33.725c2.204 0 3.226-1.187 3.226-2.78 0-2.78-2.231-4.779-5-4.779s-5 2.268-5 5.048c0 2.78 2.231 5.048 5 5.048a4.928 4.928 0 002.845-.935.388.388 0 00.155-.25.237.237 0 00-.008-.127.242.242 0 00-.069-.106.31.31 0 00-.241-.073.311.311 0 00-.218.128c-.182.24-.729.65-2.346.687-2.446.055-4.492-1.9-4.5-4.357-.008-2.437 1.984-4.36 4.382-4.388 2.398-.027 4.326 1.674 4.326 4.05 0 1.512-1.048 2.214-2.312 2.186-.403.028-.484-.134-.43-.701.044-.466.487-2.406.644-3.085a.384.384 0 00-.209-.43.376.376 0 00-.168-.033h-.027a.37.37 0 00-.325.328c-.014.11-.022.22-.023.33-.242-.487-.807-.864-1.478-.892-1.425.028-2.661 1.326-2.713 3.213 0 1.269.671 1.998 1.828 1.998.806 0 1.397-.486 1.72-.945 0 .002-.027.81.941.865zm-2.554-.567c-.726 0-1.156-.54-1.156-1.403 0-1.485.995-2.43 1.936-2.43.833 0 1.156.567 1.183 1.325-.001 1.212-.78 2.508-1.963 2.508z" fill="#6C63FF"/><g clip-path="url(#clip0_281_10)"><path d="M80.971 55.103H0v50.48h80.971v-50.48z" fill="#F2F2F2"/><path d="M86.079 50.185H5.107v50.48H86.08v-50.48z" stroke="#3F3D56" stroke-width="2" stroke-miterlimit="10"/><path d="M58.03 87.668a17.44 17.44 0 003.784-19.012 17.448 17.448 0 00-6.43-7.829 17.466 17.466 0 00-9.698-2.94v17.445L58.03 87.668z" fill="#3F3D56"/><path d="M45.686 57.887c-3.88 0-7.65 1.293-10.713 3.672a17.436 17.436 0 00-5.288 20.75 17.452 17.452 0 007.65 8.346l8.35-15.323V57.887z" fill="#6C63FF"/><path d="M58.03 87.668L45.686 75.332l-8.352 15.323a17.476 17.476 0 0020.696-2.987z" fill="#575A89"/><path d="M11.514 90.18H8.171v3.34h3.343v-3.34z" fill="#6C63FF"/><path d="M16.343 90.18H13v3.34h3.343v-3.34z" fill="#3F3D56"/><path d="M21.172 90.18h-3.343v3.34h3.343v-3.34z" fill="#575A89"/><path d="M79.671 90.922H65.93v.557h13.74v-.557zm0 1.67H65.93v.557h13.74v-.557zm0 1.67H65.93v.557h13.74v-.557z" fill="#3F3D56"/><path d="M71.5 125.441H25.443v50.48H71.5v-50.48z" fill="#F2F2F2"/><path d="M76.143 120.616H30.086v50.479h46.057v-50.479z" stroke="#3F3D56" stroke-width="2" stroke-miterlimit="10"/><path d="M34.983 165.4H32.5v2.482h2.483V165.4z" fill="#6C63FF"/><path d="M38.57 165.4h-2.483v2.482h2.483V165.4z" fill="#3F3D56"/><path d="M42.157 165.4h-2.483v2.482h2.483V165.4z" fill="#575A89"/><path d="M70.014 166.479h-9.657v.391h9.657v-.391zm0 1.173h-9.657v.391h9.657v-.391zm0 1.174h-9.657v.391h9.657v-.391zm-16.9-39.302v4.083a12.262 12.262 0 0111.324 7.561 12.241 12.241 0 01-2.657 13.349l2.89 2.887a16.328 16.328 0 003.542-17.798 16.34 16.34 0 00-15.099-10.082z" fill="#3F3D56"/><path d="M64.67 157.404l-2.889-2.887a12.258 12.258 0 01-16.082 1.089l-2.473 3.252a16.35 16.35 0 0021.444-1.454z" fill="#575A89"/><path d="M40.857 145.856c0-3.249 1.292-6.365 3.59-8.662a12.261 12.261 0 018.667-3.587v-4.083a16.336 16.336 0 00-15.488 11.118 16.321 16.321 0 005.6 18.216l2.473-3.252a12.224 12.224 0 01-4.842-9.75z" fill="#6C63FF"/><path d="M140.214 93.891H94.157v50.48h46.057v-50.48z" fill="#F2F2F2"/><path d="M144.857 89.066H98.8v50.48h46.057v-50.48z" stroke="#3F3D56" stroke-width="2" stroke-miterlimit="10"/><path d="M103.257 92.221v38.602h37.329" stroke="#3F3D56" stroke-width="2" stroke-miterlimit="10"/><path d="M113.657 117.275H105.3v13.363h8.357v-13.363z" fill="#575A89"/><path d="M125.729 108.182h-8.358v22.456h8.358v-22.456z" fill="#3F3D56"/><path d="M137.8 97.603h-8.357v33.034h8.357V97.603zm-32.617 36.248H102.7v2.481h2.483v-2.481z" fill="#6C63FF"/><path d="M108.77 133.851h-2.483v2.481h2.483v-2.481z" fill="#3F3D56"/><path d="M112.357 133.851h-2.483v2.481h2.483v-2.481z" fill="#575A89"/><path d="M140.214 134.928h-9.657v.391h9.657v-.391zm0 1.175h-9.657v.391h9.657v-.391zm0 1.173h-9.657v.391h9.657v-.391z" fill="#3F3D56"/></g><defs><linearGradient id="paint0_linear_281_10" x1="114.432" y1="60.837" x2="114.432" y2="42.689" gradientUnits="userSpaceOnUse"><stop offset=".25" stop-color="#DBDBDA"/><stop offset="1" stop-color="#fff"/></linearGradient><linearGradient id="paint2_linear_281_10" x1="114.507" y1="49.443" x2="111.827" y2="57.923" gradientUnits="userSpaceOnUse"><stop stop-opacity="0"/><stop offset="1"/></linearGradient><linearGradient id="paint3_linear_281_10" x1="141.958" y1="21.324" x2="141.958" y2="27.251" gradientUnits="userSpaceOnUse"><stop stop-color="#86BBE5"/><stop offset="1" stop-color="#1072BA"/></linearGradient><radialGradient id="paint1_radial_281_10" cx="0" cy="0" r="1" gradientUnits="userSpaceOnUse" gradientTransform="matrix(11.807 0 0 11.1918 116.585 49.56)"><stop stop-color="#2ABCE1"/><stop offset=".11" stop-color="#2ABBE1"/><stop offset="1" stop-color="#3375F8"/></radialGradient><clipPath id="clip0_281_10"><path fill="#fff" transform="translate(0 50)" d="M0 0h208v154H0z"/></clipPath></defs></svg>