<svg width="168" height="111" fill="none" xmlns="http://www.w3.org/2000/svg"><path opacity=".1" d="M159.832 65.428c-.154.114-.296.224-.447.33-.557.398-1.141.756-1.746 1.073-3.171 1.684-7.081 2.506-10.888 3.065-8.54 1.254-17.259 1.497-25.94 1.736-23.458.649-46.972 1.296-70.373-.198-9.245-.59-18.694-1.577-27.072-4.603a48.3 48.3 0 01-3.532-1.43c-2.335-1.057-4.577-2.344-6.441-3.88-1.752-1.44-3.173-3.094-4.022-4.975-1.77-3.917-.834-8.316 1.188-12.155a37.823 37.823 0 012.834-4.465c1.56-2.161 3.282-4.26 4.852-6.42 5.587-7.68 9.233-17.393 4.076-25.269-1.483-2.262-3.624-4.248-4.833-6.61-1.54-3.021-1.422-6.376-.932-9.635.064-.414.131-.824.202-1.23.837-4.831 2.412-10.038 7.267-13.054 5.044-3.135 12.206-2.977 18.465-1.862 9.734 1.75 18.713 5.393 27.788 8.683 9.074 3.29 18.568 6.296 28.54 6.619 8.807.285 19.079-1.852 24.924-7.405 5.676-5.394 16.347-5.806 24.038-2.547 5.279 2.236 9.218 6.265 10.879 10.796.337.91.579 1.852.723 2.812.133.877.176 1.766.129 2.652-.023.437-.068.87-.129 1.298-1.285 8.942-10.535 15.995-16.158 23.982-2.748 3.9-4.688 8.587-2.799 12.794 2.882 6.41 12.903 8.69 18.954 13.46a14.316 14.316 0 012.974 3.073c2.935 4.245 1.852 9.98-2.521 13.365z" fill="#6C63FF"/><path d="M159.669 65.728v-75.902H13.072v71.548c1.873 1.573 4.124 2.897 6.472 3.985a47.243 47.243 0 003.544 1.472H157.92l1.749-1.103z" fill="url(#paint0_linear_269_3)"/><path d="M159.385 65.759V-8.002H13.393v69.535c1.864 1.53 4.106 2.817 6.44 3.88 1.154.517 2.33.994 3.533 1.43h134.273l1.746-1.084z" fill="#fff"/><path d="M74.817 2.516H50.702v15.26h24.115V2.516z" fill="#6C63FF"/><path opacity=".2" d="M41.427 2.516H17.31v15.26h24.116V2.516zm66.781 0H84.092v15.26h24.116V2.516zM41.427 24.332H17.31v15.26h24.116v-15.26zm33.39 0H50.702v15.26h24.115v-15.26zm33.391 0H84.092v15.26h24.116v-15.26zM41.427 46.148H17.31v15.26h24.116v-15.26zm33.39 0H50.702v15.26h24.115v-15.26zm33.391 0H84.092v15.26h24.116v-15.26z" fill="#5A5773"/><path d="M128.916 38.454c-.436 0-.862.13-1.225.374a2.235 2.235 0 00-.334 3.417 2.198 2.198 0 002.403.48 2.227 2.227 0 00.713-3.62 2.203 2.203 0 00-1.557-.651zm-6.447-17.425v2.22h2.205l3.969 8.098-1.659 2.72a2.141 2.141 0 00-.276 1.055c0 1.487 1.009 2.22 2.377 2.22h12.893v-2.135h-12.623a.255.255 0 01-.2-.076.261.261 0 01-.076-.201c.029-.096.069-.189.117-.277l1.102-1.752h8.215a2.162 2.162 0 001.929-1.165l3.971-6.876a1.29 1.29 0 00.111-.555 1.059 1.059 0 00-.33-.763 1.059 1.059 0 00-.773-.293h-16.32l-1.048-2.22h-3.584zm17.303 17.425a2.197 2.197 0 00-2.036 1.372 2.235 2.235 0 00.479 2.42 2.198 2.198 0 003.392-.338 2.233 2.233 0 00-.277-2.803 2.203 2.203 0 00-1.558-.651z" fill="#6C63FF"/><path d="M136.951 27.172h-1.85V25.31h-1.386v1.862h-1.85v1.397h1.85v1.862h1.386v-1.862h1.85v-1.397z" fill="#fff"/><path d="M47.157 49.655l-18.47 8.39 8.426 18.392 18.47-8.39-8.426-18.392z" fill="url(#paint1_linear_269_3)"/><path d="M46.788 50.635L29.671 58.41l7.808 17.046 17.118-7.775-7.809-17.046z" fill="#69F0AE"/><path d="M100.465 76.236L77.002 86.894l.747 1.63 23.463-10.657-.747-1.63zm16.399-4.496L78.123 89.336l.747 1.63 38.74-17.596-.747-1.63zm-1.61 3.686L79.242 91.784l.747 1.63 36.012-16.358-.747-1.63z" fill="#E0E0E0"/><path d="M37.784 63.793l4.408 1.426 1.45-8.448 2.145.584-2.413 10.444-6.647-2.902 1.057-1.104z" fill="url(#paint2_linear_269_3)"/><path d="M38.346 63.682l3.832 1.238 1.26-7.346 1.865.509-2.098 9.081-5.78-2.522.92-.96z" fill="#fff"/><path d="M132.023 41.912l-15.323 5.95c-2.881-.215-8.945-.993-14.962-3.82-6.7-3.145-14.374-3.138-20.882.157-14.996.358-23.25-1.555-27.654-3.366l1.162-2.375-15.532-6.03L0 15.097V86.13l13.59 6.03 7.29-17.415 16.008 7.373 3.073-7.777 10.511 7.768.716.599-.985 1.019a5.104 5.104 0 000 7.034 4.678 4.678 0 003.397 1.457 4.694 4.694 0 003.398-1.457l-.539.567a5.104 5.104 0 000 7.034 4.676 4.676 0 003.398 1.457 4.694 4.694 0 003.398-1.457l3.113-3.223-2.137 2.212a5.104 5.104 0 000 7.034 4.686 4.686 0 006.796 0l3.073-3.181-1.292 1.338a3.565 3.565 0 000 4.915 3.272 3.272 0 003.664.752 3.273 3.273 0 001.081-.752l2.05-2.121c3.522 2.561 6.371 4.431 7.767 4.915 5.814 2.008 5.814-2.013 5.814-2.013 7.766 4.019 11.65-4.019 11.65-4.019 9.708 4.019 9.708-6.03 9.708-6.03 2.426 1.674 4.176.907 5.399-.568 1.664-2 1.868-4.822.725-7.087l9.279-8.539 4.013 8.17 16.008-7.372 7.29 16.093 10.734-4.773v-70.29l-35.967 18.089z" fill="url(#paint3_linear_269_3)"/><path d="M129.445 79.11l-16.898 14.957L99.405 69.76l30.04-7.479V79.11z" fill="#FFCEB8"/><path d="M48.71 39.844s5.424 7.479 37.551 5.61l18.776 28.045 12.582 14.097c1.976 2.215 2.088 5.575.148 7.82-1.179 1.363-2.874 2.08-5.22.52 0 0 0 9.348-9.387 5.609 0 0-3.755 7.479-11.265 3.739 0 0 0 3.74-5.632 1.87S50.588 80.979 50.588 80.979l-13.142-9.348 11.265-31.787z" fill="#FFDCCC"/><path d="M116.301 49.194s-8.113 0-16.135-3.628c-7.295-3.295-15.79-2.875-22.522 1.45-5.486 3.526-10.24 9.363-10.15 19.005 0 0 7.301 7.478 15.02-7.479h5.632s5.423 18.698 20.653 16.825c15.23-1.874 18.776-3.74 18.776-3.74l-11.274-22.433zM67.01 86.113l-.61-.607a4.228 4.228 0 00-5.962 0l-4.364 4.346a4.186 4.186 0 000 5.937l.61.607a4.228 4.228 0 005.962 0l4.364-4.346a4.186 4.186 0 000-5.937z" fill="#FFCEB8"/><path d="M60.959 79.05l-.61-.607a4.228 4.228 0 00-5.962 0l-4.364 4.346a4.186 4.186 0 000 5.937l.61.607a4.229 4.229 0 005.962 0l4.364-4.346a4.186 4.186 0 000-5.937zm14.499 11.736l-.61-.607a4.229 4.229 0 00-5.962 0l-5.302 5.28a4.187 4.187 0 000 5.938l.609.606a4.228 4.228 0 005.963 0l5.302-5.28a4.186 4.186 0 000-5.937zm4.446 6.504l-.426-.423a2.953 2.953 0 00-4.163 0l-3.347 3.333a2.923 2.923 0 000 4.146l.426.424a2.953 2.953 0 004.163 0l3.347-3.333a2.923 2.923 0 000-4.146z" fill="#FFCEB8"/><path d="M148.22 82.849l-16.897 7.478-16.899-41.133 15.021-5.609 18.775 39.264zM20.55 73.5l16.896 7.48 16.899-41.134-15.022-5.61L20.55 73.5z" fill="#fff"/><path d="M1.773 17.409l37.55 16.826-24.406 56.092-13.144-5.609v-67.31z" fill="#AEAEAE"/><path d="M166.996 26.757l-37.55 16.828 24.408 56.09 13.142-5.608v-67.31z" fill="#A6C3F5"/><defs><linearGradient id="paint0_linear_269_3" x1="86.37" y1="66.831" x2="86.37" y2="-10.174" gradientUnits="userSpaceOnUse"><stop stop-color="gray" stop-opacity=".25"/><stop offset=".54" stop-color="gray" stop-opacity=".12"/><stop offset="1" stop-color="gray" stop-opacity=".1"/></linearGradient><linearGradient id="paint1_linear_269_3" x1="10937.4" y1="2448.62" x2="10042.8" y2="479.061" gradientUnits="userSpaceOnUse"><stop stop-color="gray" stop-opacity=".25"/><stop offset=".54" stop-color="gray" stop-opacity=".12"/><stop offset="1" stop-color="gray" stop-opacity=".1"/></linearGradient><linearGradient id="paint2_linear_269_3" x1="5019.83" y1="1467.68" x2="4780.24" y2="940.24" gradientUnits="userSpaceOnUse"><stop stop-color="gray" stop-opacity=".25"/><stop offset=".54" stop-color="gray" stop-opacity=".12"/><stop offset="1" stop-color="gray" stop-opacity=".1"/></linearGradient><linearGradient id="paint3_linear_269_3" x1="100730" y1="58124.8" x2="100730" y2="9661.45" gradientUnits="userSpaceOnUse"><stop stop-color="gray" stop-opacity=".25"/><stop offset=".54" stop-color="gray" stop-opacity=".12"/><stop offset="1" stop-color="gray" stop-opacity=".1"/></linearGradient></defs></svg>