<svg width="169" height="169" fill="none" xmlns="http://www.w3.org/2000/svg"><path d="M128.033 89.336L79.57 77.664V169l48.463-12.685v-66.98z" fill="#E0E0E0"/><path opacity=".1" d="M128.033 89.336L79.57 77.664V169l48.463-12.685v-66.98z" fill="#000"/><path d="M31.106 89.336L79.57 77.664V169l-48.464-12.431V89.336z" fill="#E0E0E0"/><path opacity=".17" d="M31.106 88.93L79.57 77.262V169l-48.464-12.431V88.931z" fill="#000"/><path d="M79.165 78.069l25.525-21.21 48.461 12.434-25.523 20.445-48.463-11.67z" fill="#E0E0E0"/><path d="M6.645 69.95l24.866 19.788 48.461-11.67-24.61-20.804L6.645 69.95z" fill="#E0E0E0"/><path opacity=".05" d="M6.242 69.547l25.47 20.191 48.464-11.67L54.957 56.86 6.242 69.547z" fill="#000"/><path d="M31.106 89.335v67.234L79.57 169l.654-66.726-49.118-12.939z" fill="#E0E0E0"/><path d="M128.033 156.315L79.57 169v-66.726l48.463-12.939v66.98z" fill="#E0E0E0"/><path opacity=".07" d="M128.033 156.315L79.57 169v-66.726l48.463-12.939v66.98z" fill="#000"/><path opacity=".07" d="M108.748 133.987v22.074l19.285-5.329V128.66l-19.285 5.327z" fill="#000"/><path opacity=".1" d="M30.473 124.221l27.15 6.85 21.82-17.76V102.4L30.982 90.223l-.508 33.998zm97.939 0l-27.149 6.85-21.82-17.76V102.4l48.461-12.177.508 33.998z" fill="#000"/><path d="M31.106 89.335L6.242 109.886l48.461 12.177 24.866-19.789-48.463-12.939zm96.927 0l25.118 20.551-48.21 12.177-25.371-19.789 48.463-12.939z" fill="#E0E0E0"/><path opacity=".07" d="M128.033 89.335l25.118 20.551-48.21 12.177-25.371-19.789 48.463-12.939z" fill="#000"/><path d="M101.643 75.694l2.626-.526s-2.208 2.47-2.626 2.626c-.04.524-.04 1.05 0 1.576C96.599 101.013 78 91.453 78 91.453c6.778.158 7.356-2.626 7.356-2.626-3.94-.578-4.728-3.152-4.728-3.152a1.625 1.625 0 002.102-.526c-4.254-1.102-3.678-5.26-3.678-5.26.737.63 1.892.892 2.573.997-.473-.579-4.465-5.36-2.058-7.827 0 0 2.942 5.26 10.666 5.718l.526-.105a4.118 4.118 0 01-.105-1.155A5.515 5.515 0 0196.17 72c3.678 0 4.465 2.102 4.465 2.102l2.635-1.555c-.052 0-.315 2.623-1.628 3.147z" fill="#6C63FF"/><g opacity=".6"><path opacity=".6" d="M47.532 70.966c5.816 0 10.531-4.698 10.531-10.494 0-5.795-4.715-10.494-10.532-10.494C41.715 49.978 37 54.677 37 60.472s4.715 10.494 10.532 10.494z" fill="url(#paint0_linear_276_7)"/><path opacity=".6" d="M47.531 70.178c5.38 0 9.742-4.346 9.742-9.706 0-5.36-4.362-9.706-9.742-9.706-5.38 0-9.741 4.345-9.741 9.706 0 5.36 4.361 9.706 9.741 9.706z" fill="url(#paint1_radial_276_7)"/><path opacity=".6" d="M47.548 53.126a.12.12 0 01-.123-.115v-1.714a.123.123 0 01.123-.123.123.123 0 01.123.123v1.714a.124.124 0 01-.123.115z" fill="#F3F3F3"/><path opacity=".6" d="M47.548 53.134a.128.128 0 01-.131-.123v-1.714a.127.127 0 01.13-.123.129.129 0 01.133.123v1.714a.133.133 0 01-.132.123zm0-1.943a.116.116 0 00-.115.106v1.714a.11.11 0 00.115.106.116.116 0 00.115-.106v-1.714a.124.124 0 00-.115-.106z" fill="#fff"/><path opacity=".6" d="M48.37 52.208a.125.125 0 01-.114-.123l.057-.763a.12.12 0 01.132-.106.126.126 0 01.116.123l-.058.762a.118.118 0 01-.085.103.12.12 0 01-.047.004z" fill="#F3F3F3"/><path opacity=".6" d="M48.37 52.216a.136.136 0 01-.123-.131l.058-.763a.129.129 0 01.14-.115.135.135 0 01.123.132l-.058.762a.124.124 0 01-.14.115zm.075-.993a.109.109 0 00-.114.1l-.058.762a.115.115 0 00.106.115.109.109 0 00.115-.1l.058-.761a.123.123 0 00-.107-.116z" fill="#fff"/><path opacity=".6" d="M48.989 53.273a.126.126 0 01-.1-.14l.337-1.68a.113.113 0 01.053-.078.114.114 0 01.096-.011.126.126 0 01.098.139l-.346 1.68a.123.123 0 01-.14.09h.002z" fill="#F3F3F3"/><path opacity=".6" d="M48.988 53.282a.134.134 0 01-.106-.148l.337-1.68a.132.132 0 01.148-.099.134.134 0 01.107.148l-.337 1.681a.138.138 0 01-.149.098zm.387-1.91a.12.12 0 00-.133.082l-.337 1.68a.117.117 0 00.09.132.12.12 0 00.133-.083l.337-1.68a.118.118 0 00-.09-.13v-.002z" fill="#fff"/><path opacity=".6" d="M49.975 52.536a.12.12 0 01-.092-.1.121.121 0 01.003-.048l.205-.74a.116.116 0 01.101-.088.119.119 0 01.047.005.123.123 0 01.09.148l-.206.74a.116.116 0 01-.101.087.117.117 0 01-.047-.004z" fill="#F3F3F3"/><path opacity=".6" d="M49.975 52.543a.125.125 0 01-.079-.059.123.123 0 01-.01-.096l.204-.74a.13.13 0 01.149-.09.123.123 0 01.09.155l-.204.74a.123.123 0 01-.06.077.128.128 0 01-.096.013h.006zm.271-.96a.115.115 0 00-.14.075l-.204.74a.102.102 0 00.012.083.104.104 0 00.07.047.115.115 0 00.14-.074l.206-.74a.118.118 0 00-.084-.131z" fill="#fff"/><path opacity=".6" d="M50.379 53.691a.119.119 0 01-.066-.064.116.116 0 010-.091l.658-1.582a.113.113 0 01.156-.058.118.118 0 01.066.148l-.658 1.582a.112.112 0 01-.149.058l-.007.007z" fill="#F3F3F3"/><path opacity=".6" d="M50.379 53.7a.13.13 0 01-.075-.164l.658-1.582a.132.132 0 01.174-.066.127.127 0 01.073.164l-.658 1.582a.127.127 0 01-.172.066zm.742-1.796a.113.113 0 00-.148.058l-.658 1.581a.106.106 0 00.065.14.111.111 0 00.149-.057l.657-1.583a.117.117 0 00-.065-.14z" fill="#fff"/><path opacity=".6" d="M51.49 53.166a.123.123 0 01-.058-.155l.346-.681a.122.122 0 01.165-.049.122.122 0 01.056.156l-.345.68a.12.12 0 01-.164.05z" fill="#F3F3F3"/><path opacity=".6" d="M51.49 53.175a.125.125 0 01-.067-.073.123.123 0 01.008-.099l.347-.68a.128.128 0 01.126-.084.13.13 0 01.094.046.128.128 0 01.01.151l-.346.681a.125.125 0 01-.124.072.126.126 0 01-.048-.014zm.452-.888a.11.11 0 00-.148.049l-.346.68a.122.122 0 00.049.148.112.112 0 00.084.007.111.111 0 00.064-.055l.346-.681a.122.122 0 00-.043-.154l-.006.006z" fill="#fff"/><path opacity=".6" d="M51.651 54.38a.113.113 0 01-.053-.121.112.112 0 01.02-.042l.954-1.42a.118.118 0 01.165-.032.113.113 0 01.033.164l-.955 1.418a.11.11 0 01-.121.053.111.111 0 01-.043-.02z" fill="#F3F3F3"/><path opacity=".6" d="M51.651 54.389a.148.148 0 01-.041-.181l.955-1.418a.128.128 0 01.133-.053c.017.003.032.01.047.02a.147.147 0 01.041.18l-.955 1.419a.13.13 0 01-.18.032zm1.086-1.615a.115.115 0 00-.156.024l-.955 1.419a.105.105 0 00-.014.08.106.106 0 00.047.068.117.117 0 00.156-.024l.955-1.41a.116.116 0 00-.033-.148v-.009z" fill="#fff"/><path opacity=".6" d="M52.855 54.076a.117.117 0 01-.024-.163l.476-.6a.117.117 0 01.165-.016.118.118 0 01.024.165l-.477.592a.118.118 0 01-.164.016v.006z" fill="#F3F3F3"/><path opacity=".6" d="M52.847 54.085a.13.13 0 01-.025-.18l.478-.592a.121.121 0 01.136-.043.12.12 0 01.044.026.128.128 0 01.047.135.126.126 0 01-.022.044l-.477.6a.122.122 0 01-.181.01zm.616-.778a.107.107 0 00-.117-.01.106.106 0 00-.031.026l-.477.592a.115.115 0 00.062.17.11.11 0 00.119-.038l.477-.592a.113.113 0 00-.025-.156l-.008.008z" fill="#fff"/><path opacity=".6" d="M52.773 55.306a.11.11 0 01-.027-.127.11.11 0 01.027-.037l1.218-1.205a.117.117 0 01.165 0 .118.118 0 010 .164l-1.21 1.205a.117.117 0 01-.087.037.118.118 0 01-.086-.037z" fill="#F3F3F3"/><path opacity=".6" d="M52.764 55.315a.13.13 0 010-.181l1.218-1.205a.127.127 0 01.184-.004.128.128 0 01.027.142.127.127 0 01-.03.041l-1.218 1.207a.131.131 0 01-.181 0zm1.391-1.378a.114.114 0 00-.157 0l-1.216 1.204a.114.114 0 000 .157.116.116 0 00.148 0l1.218-1.206a.115.115 0 000-.155h.007z" fill="#fff"/><path opacity=".6" d="M54.007 55.24a.115.115 0 01.009-.163l.583-.492a.12.12 0 01.156.18l-.579.492a.118.118 0 01-.17-.016z" fill="#F3F3F3"/><path opacity=".6" d="M53.998 55.25a.129.129 0 01.01-.18l.583-.493a.125.125 0 01.181.016.129.129 0 010 .18l-.596.493a.124.124 0 01-.142.017.128.128 0 01-.039-.033h.003zm.758-.648a.116.116 0 00-.156-.016l-.584.487a.114.114 0 00.148.173l.586-.493a.106.106 0 00.006-.151z" fill="#fff"/><path opacity=".6" d="M53.677 56.421a.111.111 0 010-.132.112.112 0 01.034-.032l1.43-.951a.126.126 0 01.186.075.11.11 0 01-.018.09.111.111 0 01-.035.031l-1.432.952a.131.131 0 01-.165-.033z" fill="#F3F3F3"/><path opacity=".6" d="M53.67 56.422a.13.13 0 01.032-.18l1.432-.953a.128.128 0 01.181.042.131.131 0 01-.032.18l-1.432.95a.125.125 0 01-.1.02.125.125 0 01-.081-.06zm1.633-1.075a.108.108 0 00-.148-.032l-1.432.95a.112.112 0 00.038.205c.03.006.06 0 .085-.016l1.432-.951a.116.116 0 00.026-.156z" fill="#fff"/><path opacity=".6" d="M54.904 56.593a.12.12 0 01.041-.164l.666-.378a.124.124 0 01.165.05.118.118 0 01-.042.163l-.667.378a.122.122 0 01-.164-.05z" fill="#F3F3F3"/><path opacity=".6" d="M54.895 56.602a.128.128 0 01.042-.173l.666-.378a.133.133 0 01.173.05.127.127 0 01-.042.172l-.667.378a.135.135 0 01-.173-.05h.001zm.872-.493a.103.103 0 00-.149-.041l-.666.377a.12.12 0 00-.042.148.103.103 0 00.065.054.104.104 0 00.083-.013l.667-.377a.113.113 0 00.042-.15v.002z" fill="#fff"/><path opacity=".6" d="M54.353 57.684a.113.113 0 01.066-.148l1.587-.657a.126.126 0 01.156.066.114.114 0 01-.065.156l-1.588.655a.117.117 0 01-.156-.072z" fill="#F3F3F3"/><path opacity=".6" d="M54.344 57.691a.135.135 0 01.065-.171l1.59-.656a.127.127 0 01.137.032.14.14 0 01.026.042.134.134 0 01-.065.172l-1.588.655a.127.127 0 01-.165-.074zm1.802-.74a.116.116 0 00-.14-.065l-1.588.656a.113.113 0 000 .206.118.118 0 00.082.007l1.59-.656a.111.111 0 00.06-.064.114.114 0 00-.004-.09v.007z" fill="#fff"/><path opacity=".6" d="M55.513 58.094a.116.116 0 01.032-.132.118.118 0 01.042-.024l.723-.238a.116.116 0 01.149.074.12.12 0 01-.074.156l-.724.238a.113.113 0 01-.148-.074z" fill="#F3F3F3"/><path opacity=".6" d="M55.504 58.102a.123.123 0 01.083-.163l.723-.238a.133.133 0 01.173.132.125.125 0 01-.09.113l-.724.234a.149.149 0 01-.165-.078zm.955-.311a.114.114 0 00-.14-.074l-.724.238a.108.108 0 00-.066.14.115.115 0 00.14.073l.725-.238a.114.114 0 00.065-.14z" fill="#fff"/><path opacity=".6" d="M54.77 59.068a.112.112 0 01.047-.123.11.11 0 01.044-.017l1.692-.327a.121.121 0 01.123.055.121.121 0 01.016.045.112.112 0 01-.047.122.112.112 0 01-.043.017l-1.683.328a.124.124 0 01-.149-.1z" fill="#F3F3F3"/><path opacity=".6" d="M54.755 59.068a.132.132 0 01.1-.155l1.686-.329a.127.127 0 01.148.106.131.131 0 01-.1.156l-1.685.328a.129.129 0 01-.131-.059.126.126 0 01-.018-.047zm1.918-.369a.11.11 0 00-.123-.09l-1.688.327a.107.107 0 00-.081.132.108.108 0 00.123.09l1.686-.328a.11.11 0 00.083-.13z" fill="#fff"/><path opacity=".6" d="M55.825 59.701a.114.114 0 01.099-.132l.756-.09a.12.12 0 01.132.107.114.114 0 01-.098.131l-.756.09a.127.127 0 01-.132-.106h-.002z" fill="#F3F3F3"/><path opacity=".6" d="M55.817 59.701a.13.13 0 01.023-.096.129.129 0 01.084-.052l.756-.09a.13.13 0 01.141.115.13.13 0 01-.107.148l-.757.09a.128.128 0 01-.14-.113V59.7zm.995-.115a.114.114 0 00-.123-.098l-.758.09a.112.112 0 00-.09.123.117.117 0 00.123.098l.758-.09a.109.109 0 00.09-.123z" fill="#fff"/><path opacity=".6" d="M54.904 60.496a.119.119 0 01.114-.123h1.72a.124.124 0 01.123.123.123.123 0 01-.123.123h-1.72a.12.12 0 01-.114-.123z" fill="#F3F3F3"/><path opacity=".6" d="M54.895 60.496a.128.128 0 01.123-.132h1.72a.132.132 0 01.132.132.131.131 0 01-.132.132h-1.72a.13.13 0 01-.123-.132zm1.95.009a.115.115 0 00-.107-.116h-1.72a.113.113 0 00-.1.073.117.117 0 00.1.157h1.72a.122.122 0 00.107-.114z" fill="#fff"/><path opacity=".6" d="M55.817 61.323a.124.124 0 01.124-.114l.764.058a.118.118 0 01.108.13.124.124 0 01-.124.115l-.765-.057a.132.132 0 01-.107-.132z" fill="#F3F3F3"/><path opacity=".6" d="M55.81 61.323a.134.134 0 01.132-.123l.765.058a.13.13 0 01.074.226.135.135 0 01-.09.036l-.765-.056a.148.148 0 01-.116-.141zm1.004.074a.104.104 0 00-.098-.114l-.766-.058a.115.115 0 00-.115.107.104.104 0 00.057.105c.013.006.027.01.041.01l.767.057a.122.122 0 00.113-.107h.001z" fill="#fff"/><path opacity=".6" d="M54.756 61.922a.127.127 0 01.14-.099l1.686.337a.115.115 0 01.093.094.126.126 0 01-.141.144l-1.688-.337a.123.123 0 01-.09-.139z" fill="#F3F3F3"/><path opacity=".6" d="M54.748 61.922a.132.132 0 01.148-.106l1.688.336a.134.134 0 01.106.155.133.133 0 01-.155.107l-1.688-.336a.138.138 0 01-.098-.148l-.001-.008zm1.916.385a.115.115 0 00-.082-.13l-1.687-.338a.115.115 0 00-.128.089.113.113 0 00.079.133l1.687.336a.117.117 0 00.13-.09z" fill="#fff"/><path opacity=".6" d="M55.497 62.906a.12.12 0 01.1-.093.12.12 0 01.048.003l.743.204a.118.118 0 01.081.148.122.122 0 01-.148.09l-.743-.205a.116.116 0 01-.072-.057.117.117 0 01-.01-.091v.001z" fill="#F3F3F3"/><path opacity=".6" d="M55.487 62.907a.123.123 0 01.149-.09l.742.204a.132.132 0 01.091.155.123.123 0 01-.148.09l-.743-.204a.128.128 0 01-.09-.155zm.963.269a.114.114 0 00-.075-.14l-.742-.203a.105.105 0 00-.132.081.114.114 0 00.074.14l.743.205a.12.12 0 00.132-.083z" fill="#fff"/><path opacity=".6" d="M54.337 63.3a.117.117 0 01.148-.067l1.588.656a.124.124 0 01.065.157.117.117 0 01-.148.065l-1.588-.656a.117.117 0 01-.065-.148V63.3z" fill="#F3F3F3"/><path opacity=".6" d="M54.325 63.291a.128.128 0 01.165-.074l1.587.656a.133.133 0 01.066.173.128.128 0 01-.164.074l-1.589-.657a.134.134 0 01-.065-.172zm1.801.74a.111.111 0 00-.058-.148l-1.587-.655a.11.11 0 00-.14.066.11.11 0 00.022.123.09.09 0 00.036.025l1.59.657a.11.11 0 00.14-.062l-.003-.006z" fill="#fff"/><path opacity=".6" d="M54.871 64.405a.123.123 0 01.149-.056l.683.343a.122.122 0 01.06.072.12.12 0 01-.011.092.123.123 0 01-.149.058l-.683-.345a.121.121 0 01-.049-.164z" fill="#F3F3F3"/><path opacity=".6" d="M54.862 64.395a.126.126 0 01.173-.058l.683.345a.129.129 0 01-.115.23l-.683-.345a.123.123 0 01-.058-.172zm.891.452a.105.105 0 00.008-.085.106.106 0 00-.057-.064l-.683-.344a.123.123 0 00-.148.049.105.105 0 00-.008.084.106.106 0 00.057.064l.683.344a.108.108 0 00.148-.048z" fill="#fff"/><path opacity=".6" d="M53.66 64.562a.113.113 0 01.166-.032l1.431.95a.118.118 0 01.052.075.115.115 0 01-.019.09.113.113 0 01-.165.032l-1.431-.952a.114.114 0 01-.033-.163z" fill="#F3F3F3"/><path opacity=".6" d="M53.654 64.553a.149.149 0 01.18-.041l1.432.951a.132.132 0 01.033.18.149.149 0 01-.181.042l-1.432-.951a.123.123 0 01-.056-.083.123.123 0 01.023-.098zm1.62 1.082a.115.115 0 00-.024-.155l-1.432-.95a.104.104 0 00-.08-.016.105.105 0 00-.068.048.115.115 0 00.024.156l1.431.951a.107.107 0 00.149-.034z" fill="#fff"/><path opacity=".6" d="M53.965 65.75a.12.12 0 01.165-.025l.594.468a.117.117 0 01.018.164.12.12 0 01-.165.025l-.602-.468a.118.118 0 01-.01-.164z" fill="#F3F3F3"/><path opacity=".6" d="M53.958 65.742a.13.13 0 01.181-.024l.594.468a.13.13 0 01.074.14.128.128 0 01-.12.106.13.13 0 01-.102-.042l-.602-.468a.13.13 0 01-.025-.18zm.79.615a.107.107 0 00-.018-.155l-.594-.468a.118.118 0 00-.177.062c-.005.014-.006.03-.005.044a.107.107 0 00.043.075l.594.467a.12.12 0 00.157-.025z" fill="#fff"/><path opacity=".6" d="M52.74 65.67a.108.108 0 01.128-.029.107.107 0 01.037.028l1.218 1.205a.118.118 0 010 .164.11.11 0 01-.128.027.112.112 0 01-.037-.027l-1.218-1.206a.123.123 0 010-.163z" fill="#F3F3F3"/><path opacity=".6" d="M52.74 65.66a.131.131 0 01.181 0l1.218 1.205a.127.127 0 01-.09.218.128.128 0 01-.091-.037L52.74 65.84a.115.115 0 010-.18zm1.383 1.37a.115.115 0 000-.156l-1.218-1.205a.115.115 0 00-.158 0 .115.115 0 000 .156l1.218 1.204a.102.102 0 00.122.027.103.103 0 00.036-.027z" fill="#fff"/><path opacity=".6" d="M52.814 66.89a.116.116 0 01.165.009l.5.573a.12.12 0 01-.1.187.12.12 0 01-.079-.03l-.502-.57a.117.117 0 01.016-.169z" fill="#F3F3F3"/><path opacity=".6" d="M52.805 66.89a.13.13 0 01.181.009l.503.573a.123.123 0 01-.017.18.131.131 0 01-.094.04.129.129 0 01-.093-.041l-.502-.574a.128.128 0 01.016-.18l.006-.007zm.658.74a.113.113 0 00.017-.148l-.502-.571a.113.113 0 00-.195.067.115.115 0 00.022.08l.502.575a.107.107 0 00.149 0l.007-.003z" fill="#fff"/><path opacity=".6" d="M51.63 66.578a.113.113 0 01.17.037l.954 1.417a.124.124 0 01-.076.184.115.115 0 01-.09-.017.113.113 0 01-.032-.035l-.953-1.42a.127.127 0 01.032-.163l-.006-.003z" fill="#F3F3F3"/><path opacity=".6" d="M51.629 66.57a.13.13 0 01.181.033l.954 1.42a.123.123 0 01-.002.145.124.124 0 01-.038.034.13.13 0 01-.182-.033l-.955-1.418a.126.126 0 01.003-.146.125.125 0 01.039-.034zm1.086 1.615a.104.104 0 00.032-.148l-.947-1.422a.114.114 0 00-.156-.023.106.106 0 00-.05.108.103.103 0 00.016.04l.955 1.419a.125.125 0 00.148.023l.002.003z" fill="#fff"/><path opacity=".6" d="M51.457 67.799a.118.118 0 01.09-.013.117.117 0 01.073.055l.379.664a.123.123 0 01-.049.164.121.121 0 01-.165-.041l-.379-.665a.131.131 0 01.05-.164z" fill="#F3F3F3"/><path opacity=".6" d="M51.457 67.784a.128.128 0 01.172.04l.379.664a.126.126 0 01-.05.174.13.13 0 01-.173-.042l-.379-.664a.124.124 0 01-.01-.097.125.125 0 01.06-.075zm.493.869a.109.109 0 00.042-.148l-.38-.663a.118.118 0 00-.148-.042.11.11 0 00-.041.148l.378.663a.109.109 0 00.149.042z" fill="#fff"/><path opacity=".6" d="M50.362 67.251a.117.117 0 01.156.058l.667 1.582a.126.126 0 01-.065.155.123.123 0 01-.158-.058l-.665-1.582a.123.123 0 01.065-.155z" fill="#F3F3F3"/><path opacity=".6" d="M50.362 67.242a.137.137 0 01.173.067l.67 1.582a.126.126 0 01-.031.137.128.128 0 01-.042.026.135.135 0 01-.173-.066l-.667-1.582a.133.133 0 01.075-.164h-.005zm.743 1.795a.104.104 0 00.066-.098.104.104 0 00-.008-.04l-.667-1.583a.113.113 0 00-.206 0 .105.105 0 00.001.082l.665 1.583a.115.115 0 00.11.068.116.116 0 00.045-.012h-.006z" fill="#fff"/><path opacity=".6" d="M49.958 68.414a.124.124 0 01.094.004.123.123 0 01.063.07l.238.722a.115.115 0 01-.074.149.12.12 0 01-.149-.073l-.237-.722a.112.112 0 01.032-.126.114.114 0 01.04-.022l-.007-.002z" fill="#F3F3F3"/><path opacity=".6" d="M49.95 68.407a.129.129 0 01.166.074l.237.72a.131.131 0 01-.081.165.13.13 0 01-.165-.074l-.238-.72a.148.148 0 01.083-.165h-.001zm.322.943a.115.115 0 00.074-.14l-.24-.721a.11.11 0 00-.097-.072.11.11 0 00-.042.007.114.114 0 00-.074.139l.239.722a.103.103 0 00.13.068h.01v-.003z" fill="#fff"/><path opacity=".6" d="M48.988 67.669a.113.113 0 01.09.014.113.113 0 01.05.076l.346 1.681a.12.12 0 01-.055.123.12.12 0 01-.044.016.113.113 0 01-.123-.046.11.11 0 01-.017-.044l-.346-1.68a.131.131 0 01.1-.14z" fill="#F3F3F3"/><path opacity=".6" d="M48.989 67.661a.133.133 0 01.156.098l.346 1.68a.125.125 0 01-.1.149.132.132 0 01-.156-.1l-.346-1.68a.12.12 0 01.053-.13.122.122 0 01.047-.018v.001zm.386 1.91a.113.113 0 00.09-.131l-.338-1.681a.105.105 0 00-.131-.082.113.113 0 00-.09.13l.344 1.682a.12.12 0 00.132.083l-.007-.002z" fill="#fff"/><path opacity=".6" d="M48.363 68.734a.128.128 0 01.14.099l.098.755a.114.114 0 01-.026.087.119.119 0 01-.081.043.127.127 0 01-.14-.098l-.098-.755a.119.119 0 01.107-.131z" fill="#F3F3F3"/><path opacity=".6" d="M48.363 68.726a.13.13 0 01.149.107l.1.755a.132.132 0 01-.214.12.132.132 0 01-.05-.088l-.1-.755a.129.129 0 01.115-.139zm.123.984a.116.116 0 00.098-.122l-.098-.755a.11.11 0 00-.123-.09.118.118 0 00-.1.122l.1.755a.11.11 0 00.123.09z" fill="#fff"/><path opacity=".6" d="M47.515 67.816a.12.12 0 01.123.116v1.712a.123.123 0 01-.123.123.124.124 0 01-.123-.123v-1.712a.126.126 0 01.123-.116z" fill="#F3F3F3"/><path opacity=".6" d="M47.515 67.808a.129.129 0 01.132.122v1.714a.132.132 0 01-.225.093.131.131 0 01-.04-.093v-1.712a.135.135 0 01.133-.124zm0 1.943a.116.116 0 00.116-.107v-1.712a.112.112 0 00-.116-.108.116.116 0 00-.114.108v1.712a.12.12 0 00.114.107z" fill="#fff"/><path opacity=".6" d="M46.692 68.734a.127.127 0 01.116.123l-.058.763a.12.12 0 01-.132.107.125.125 0 01-.114-.123l.056-.763a.12.12 0 01.132-.107z" fill="#F3F3F3"/><path opacity=".6" d="M46.692 68.726a.133.133 0 01.124.13l-.058.764a.127.127 0 01-.14.114.132.132 0 01-.123-.13l.058-.764a.123.123 0 01.14-.114zm-.074.992a.11.11 0 00.116-.098l.058-.764a.115.115 0 00-.107-.113.11.11 0 00-.116.097l-.058.764a.12.12 0 00.107.114z" fill="#fff"/><path opacity=".6" d="M46.076 67.668a.126.126 0 01.098.14l-.337 1.68a.114.114 0 01-.14.09.127.127 0 01-.1-.138l.34-1.681a.121.121 0 01.139-.09z" fill="#F3F3F3"/><path opacity=".6" d="M46.076 67.661a.135.135 0 01.107.148l-.337 1.681a.135.135 0 01-.154.095.135.135 0 01-.11-.144l.337-1.68a.148.148 0 01.157-.098v-.002zm-.388 1.914a.118.118 0 00.133-.082l.335-1.685a.112.112 0 00-.086-.135.113.113 0 00-.135.086l-.339 1.68a.118.118 0 00.092.136z" fill="#fff"/><path opacity=".6" d="M45.089 68.407a.123.123 0 01.09.148l-.206.74a.116.116 0 01-.102.087.117.117 0 01-.047-.004.123.123 0 01-.09-.148l.205-.74a.12.12 0 01.148-.082l.002-.001z" fill="#F3F3F3"/><path opacity=".6" d="M45.089 68.398a.125.125 0 01.09.157l-.206.74a.132.132 0 01-.149.09.126.126 0 01-.09-.155l.206-.74a.127.127 0 01.149-.09v-.002zm-.27.959a.114.114 0 00.14-.073l.207-.74a.104.104 0 00-.043-.115.105.105 0 00-.04-.016.115.115 0 00-.14.074l-.205.74a.115.115 0 00.082.13z" fill="#fff"/><path opacity=".6" d="M44.684 67.251a.117.117 0 01.067.155l-.658 1.577a.116.116 0 01-.157.057.127.127 0 01-.066-.155l.653-1.576a.115.115 0 01.148-.058h.013z" fill="#F3F3F3"/><path opacity=".6" d="M44.684 67.242a.126.126 0 01.083.115.128.128 0 01-.008.05l-.658 1.575a.13.13 0 01-.173.066.126.126 0 01-.071-.066.124.124 0 01-.003-.097l.658-1.582a.129.129 0 01.123-.074.128.128 0 01.05.013zm-.742 1.795a.113.113 0 00.148-.056l.658-1.584a.106.106 0 00-.002-.083.106.106 0 00-.063-.056.113.113 0 00-.149.058l-.657 1.582a.116.116 0 00.059.14h.006z" fill="#fff"/><path opacity=".6" d="M43.575 67.775a.123.123 0 01.056.155l-.344.681a.123.123 0 01-.12.064.123.123 0 01-.104-.081.125.125 0 01.001-.09l.346-.679a.12.12 0 01.165-.05z" fill="#F3F3F3"/><path opacity=".6" d="M43.575 67.768a.126.126 0 01.069.076.123.123 0 01-.013.103l-.344.68a.127.127 0 01-.174.058.125.125 0 01-.072-.124.123.123 0 01.016-.049l.344-.68a.124.124 0 01.073-.07.126.126 0 01.1.006zm-.453.888a.11.11 0 00.148-.05l.345-.68a.12.12 0 00-.05-.148.108.108 0 00-.148.049l-.344.68a.121.121 0 00.049.149z" fill="#fff"/><path opacity=".6" d="M43.41 66.562a.112.112 0 01.033.164l-.955 1.42a.117.117 0 01-.164.032.116.116 0 01-.053-.075.114.114 0 01.02-.09l.954-1.418a.11.11 0 01.075-.053.113.113 0 01.09.02z" fill="#F3F3F3"/><path opacity=".6" d="M43.41 66.554a.148.148 0 01.04.18l-.953 1.419a.128.128 0 01-.135.052.129.129 0 01-.047-.02.148.148 0 01-.041-.18l.955-1.418a.13.13 0 01.181-.033zm-1.086 1.615a.116.116 0 00.149-.024l.953-1.42a.104.104 0 00-.032-.147.116.116 0 00-.149.025l-.95 1.41a.115.115 0 00.034.156h-.005z" fill="#fff"/><path opacity=".6" d="M42.209 66.865a.12.12 0 01.025.164l-.478.6a.12.12 0 01-.164.014.12.12 0 01-.025-.162l.477-.6a.12.12 0 01.165-.016z" fill="#F3F3F3"/><path opacity=".6" d="M42.218 66.858a.13.13 0 01.023.18l-.477.592a.12.12 0 01-.137.043.121.121 0 01-.044-.027.13.13 0 01-.025-.18l.478-.592a.122.122 0 01.181-.016zm-.618.778c.01.01.024.017.038.021a.106.106 0 00.118-.038l.478-.591a.118.118 0 00-.025-.157.108.108 0 00-.149.016l-.478.6a.116.116 0 00.025.148l-.007.001z" fill="#fff"/><path opacity=".6" d="M42.295 65.635a.107.107 0 01.038.083.107.107 0 01-.038.082l-1.217 1.204a.115.115 0 01-.127.026.116.116 0 01-.038-.026.113.113 0 010-.163l1.21-1.206a.12.12 0 01.172 0z" fill="#F3F3F3"/><path opacity=".6" d="M42.295 65.628a.13.13 0 010 .18l-1.218 1.205a.127.127 0 01-.09.037.13.13 0 01-.12-.079.128.128 0 01.029-.139l1.218-1.204a.13.13 0 01.18 0zm-1.39 1.376a.113.113 0 00.148 0l1.218-1.205a.109.109 0 00-.077-.17.11.11 0 00-.072.015l-1.217 1.204a.112.112 0 000 .156z" fill="#fff"/><path opacity=".6" d="M41.056 65.702a.117.117 0 010 .164l-.584.492a.125.125 0 01-.2-.053.124.124 0 01.035-.134l.586-.491a.115.115 0 01.163.022z" fill="#F3F3F3"/><path opacity=".6" d="M41.065 65.693a.127.127 0 01-.009.18l-.583.492a.122.122 0 01-.182-.016.128.128 0 01.01-.181l.583-.491a.122.122 0 01.143-.017c.015.008.028.02.038.033zm-.757.648a.118.118 0 00.157.016l.584-.49a.114.114 0 00-.066-.198.115.115 0 00-.083.024l-.583.493a.107.107 0 00-.01.148v.007z" fill="#fff"/><path opacity=".6" d="M41.386 64.52a.111.111 0 01-.033.165l-1.435.95a.125.125 0 01-.184-.075.112.112 0 01.052-.122l1.432-.95a.13.13 0 01.165.033h.003z" fill="#F3F3F3"/><path opacity=".6" d="M41.395 64.52a.131.131 0 01-.034.181l-1.432.95a.124.124 0 01-.18-.04.13.13 0 01.033-.18l1.432-.951a.127.127 0 01.146.003c.014.01.026.023.035.038zm-1.634 1.075a.107.107 0 00.148.033l1.432-.952a.106.106 0 00.026-.148.109.109 0 00-.149-.032l-1.432.95a.118.118 0 00-.023.157l-.002-.008z" fill="#fff"/><path opacity=".6" d="M40.16 64.35a.118.118 0 01-.041.162l-.667.377a.124.124 0 01-.165-.048.12.12 0 01.037-.165l.667-.377a.123.123 0 01.165.05h.005z" fill="#F3F3F3"/><path opacity=".6" d="M40.168 64.34a.127.127 0 01-.042.172l-.665.377a.134.134 0 01-.174-.048.127.127 0 01.042-.172l.666-.378a.132.132 0 01.173.05zm-.872.499a.103.103 0 00.108.055.104.104 0 00.04-.015l.666-.377a.114.114 0 00.041-.148.104.104 0 00-.148-.042l-.666.379a.111.111 0 00-.041.148z" fill="#fff"/><path opacity=".6" d="M40.711 63.259a.113.113 0 01-.026.13.116.116 0 01-.04.025l-1.588.656a.124.124 0 01-.149-.066.114.114 0 01.066-.155l1.589-.655a.118.118 0 01.148.065z" fill="#F3F3F3"/><path opacity=".6" d="M40.719 63.25a.136.136 0 01-.065.172l-1.588.656a.129.129 0 01-.139-.032.128.128 0 01-.026-.042.134.134 0 01.066-.172l1.589-.657a.128.128 0 01.163.074zm-1.802.74a.117.117 0 00.14.066l1.588-.656a.111.111 0 00.058-.148.115.115 0 00-.14-.065l-1.588.656a.11.11 0 00-.068.105c0 .015.004.03.01.043v-.002z" fill="#fff"/><path opacity=".6" d="M39.552 62.848a.12.12 0 01-.075.156l-.724.238a.12.12 0 01-.09-.006.115.115 0 01-.059-.068.117.117 0 01.073-.148l.725-.238a.117.117 0 01.089.001.114.114 0 01.06.065z" fill="#F3F3F3"/><path opacity=".6" d="M39.559 62.84a.125.125 0 01-.086.164l-.725.239a.134.134 0 01-.165-.083.122.122 0 01.006-.1.124.124 0 01.077-.063l.724-.238a.14.14 0 01.164.08h.005zm-.953.312a.114.114 0 00.14.074l.727-.238a.11.11 0 00.067-.14.115.115 0 00-.059-.067.117.117 0 00-.09-.006l-.723.238a.113.113 0 00-.063.14z" fill="#fff"/><path opacity=".6" d="M40.291 61.88a.11.11 0 01-.047.122.11.11 0 01-.044.017l-1.685.327a.12.12 0 01-.149-.098.11.11 0 01.047-.123.112.112 0 01.044-.016l1.687-.329a.122.122 0 01.14.1h.007z" fill="#F3F3F3"/><path opacity=".6" d="M40.308 61.88a.13.13 0 01-.093.147l-1.693.329a.129.129 0 01-.13-.06.126.126 0 01-.018-.047.133.133 0 01.1-.155l1.687-.327a.128.128 0 01.098.024.125.125 0 01.049.088zm-1.916.368a.11.11 0 00.123.09l1.686-.328a.107.107 0 00.083-.13.11.11 0 00-.123-.09l-1.688.326a.11.11 0 00-.081.132z" fill="#fff"/><path opacity=".6" d="M39.238 61.242a.114.114 0 01-.098.131l-.757.09a.122.122 0 01-.11-.193.114.114 0 01.077-.045l.758-.09a.125.125 0 01.13.107z" fill="#F3F3F3"/><path opacity=".6" d="M39.247 61.242a.131.131 0 01-.107.148l-.757.09a.13.13 0 01-.14-.116.131.131 0 01.107-.148l.757-.088a.128.128 0 01.14.114zm-.997.115a.117.117 0 00.124.098l.757-.09a.108.108 0 00.09-.123.113.113 0 00-.122-.098l-.758.09a.111.111 0 00-.09.123z" fill="#fff"/><path opacity=".6" d="M40.16 60.447a.12.12 0 01-.115.123h-1.72a.123.123 0 01-.123-.123.122.122 0 01.123-.123h1.72a.12.12 0 01.116.123z" fill="#F3F3F3"/><path opacity=".6" d="M40.168 60.447a.127.127 0 01-.123.13h-1.72a.128.128 0 01-.123-.13.128.128 0 01.123-.132h1.72a.128.128 0 01.123.132zm-1.95-.01a.115.115 0 00.107.116h1.72a.111.111 0 00.078-.035.11.11 0 00.029-.08.115.115 0 00-.107-.114h-1.72a.12.12 0 00-.107.114z" fill="#fff"/><path opacity=".6" d="M39.247 59.618a.125.125 0 01-.123.115l-.766-.057a.12.12 0 01-.107-.132.124.124 0 01.123-.114l.766.058a.134.134 0 01.107.13z" fill="#E2E2E2"/><path opacity=".6" d="M39.254 59.618a.132.132 0 01-.13.123l-.767-.056a.13.13 0 01-.114-.14.133.133 0 01.13-.124l.767.058a.149.149 0 01.114.14zm-1.004-.074a.105.105 0 00.059.105c.013.006.027.01.04.01l.766.058a.118.118 0 00.115-.106.105.105 0 00-.058-.105.105.105 0 00-.041-.01l-.765-.058a.125.125 0 00-.116.106z" fill="#fff"/><path opacity=".6" d="M40.307 59.02a.126.126 0 01-.14.098l-1.686-.346a.114.114 0 01-.09-.14.124.124 0 01.14-.098l1.684.339a.137.137 0 01.091.148h.002z" fill="#F3F3F3"/><path opacity=".6" d="M40.316 59.02a.135.135 0 01-.148.107l-1.687-.336a.133.133 0 01-.045-.24.136.136 0 01.095-.024l1.684.338a.14.14 0 01.1.155h.001zm-1.917-.386a.12.12 0 00.082.132l1.687.336a.116.116 0 00.132-.09.116.116 0 00-.083-.131l-1.686-.336a.12.12 0 00-.132.089z" fill="#fff"/><path opacity=".6" d="M39.568 58.032a.123.123 0 01-.148.09l-.743-.206a.119.119 0 01-.073-.056.117.117 0 01-.009-.092.124.124 0 01.056-.076.122.122 0 01.093-.014l.742.204a.118.118 0 01.084.148l-.002.002z" fill="#F3F3F3"/><path opacity=".6" d="M39.575 58.032a.124.124 0 01-.148.09l-.743-.206a.13.13 0 01-.102-.15.127.127 0 01.157-.091l.743.206a.126.126 0 01.09.148l.003.003zm-.962-.271a.114.114 0 00.074.139l.743.206a.104.104 0 00.13-.083.113.113 0 00-.074-.14l-.742-.204a.118.118 0 00-.133.082h.002z" fill="#fff"/><path opacity=".6" d="M40.728 57.643a.118.118 0 01-.149.065l-1.589-.656a.124.124 0 01-.065-.155.117.117 0 01.149-.065l1.587.655a.118.118 0 01.075.11.118.118 0 01-.01.046h.002z" fill="#F3F3F3"/><path opacity=".6" d="M40.735 57.651a.127.127 0 01-.163.074l-1.59-.657a.133.133 0 01.1-.245l1.588.655a.136.136 0 01.065.173zm-1.801-.74a.112.112 0 00.021.123c.01.011.023.02.037.025l1.587.656a.107.107 0 00.119-.028.105.105 0 00.021-.037.112.112 0 00-.056-.148l-1.59-.656a.11.11 0 00-.14.067v-.002z" fill="#fff"/><path opacity=".6" d="M40.193 56.536a.123.123 0 01-.148.057l-.691-.337a.117.117 0 01-.05-.163.125.125 0 01.157-.058l.681.344a.122.122 0 01.051.164v-.007z" fill="#F3F3F3"/><path opacity=".6" d="M40.2 56.552a.127.127 0 01-.172.058l-.683-.354a.128.128 0 01.014-.243.13.13 0 01.102.014l.682.343a.125.125 0 01.076.131.124.124 0 01-.018.051zm-.89-.451a.108.108 0 00.049.148l.683.344a.123.123 0 00.148-.05.108.108 0 00-.049-.148l-.692-.345a.102.102 0 00-.116.016.1.1 0 00-.023.033v.002z" fill="#fff"/><path opacity=".6" d="M41.404 56.38a.114.114 0 01-.123.053.113.113 0 01-.042-.02l-1.423-.942a.12.12 0 01-.051-.076.115.115 0 01.018-.089.11.11 0 01.122-.052.1.1 0 01.043.02l1.43.951a.106.106 0 01.026.148v.008z" fill="#F3F3F3"/><path opacity=".6" d="M41.411 56.389a.148.148 0 01-.181.04l-1.424-.95a.131.131 0 01-.033-.18.149.149 0 01.181-.042l1.423.952a.124.124 0 01.034.18zm-1.622-1.083a.117.117 0 00.026.157l1.431.95a.109.109 0 00.149-.033.115.115 0 00-.025-.148l-1.432-.951a.109.109 0 00-.149.032v-.007z" fill="#fff"/><path opacity=".6" d="M41.098 55.191a.119.119 0 01-.165.024l-.594-.466a.117.117 0 01-.017-.164.119.119 0 01.165-.025l.594.467a.116.116 0 01.017.164z" fill="#F3F3F3"/><path opacity=".6" d="M41.106 55.2a.13.13 0 01-.18.025l-.595-.468a.128.128 0 01.062-.23.13.13 0 01.096.026l.594.466a.13.13 0 01.025.18h-.002zm-.79-.614a.105.105 0 00-.025.08.105.105 0 00.042.075l.594.468a.119.119 0 00.157-.026.108.108 0 00-.016-.155l-.594-.468a.118.118 0 00-.149.026h-.009z" fill="#fff"/><path opacity=".6" d="M42.323 55.274a.108.108 0 01-.164 0l-1.226-1.205a.118.118 0 010-.164.11.11 0 01.127-.027.112.112 0 01.037.027l1.218 1.205a.118.118 0 01.01.164h-.002z" fill="#F3F3F3"/><path opacity=".6" d="M42.323 55.282a.128.128 0 01-.18 0l-1.218-1.206a.126.126 0 01-.028-.139.127.127 0 01.028-.041.131.131 0 01.181 0l1.217 1.206a.116.116 0 010 .18zm-1.382-1.37a.114.114 0 000 .157l1.218 1.204a.11.11 0 00.183-.121.11.11 0 00-.034-.034l-1.218-1.213a.106.106 0 00-.149.008v-.001z" fill="#fff"/><path opacity=".6" d="M42.25 54.053a.119.119 0 01-.165-.009l-.502-.574a.114.114 0 01-.012-.128.114.114 0 01.029-.035.118.118 0 01.164.007l.502.575a.12.12 0 01-.016.164z" fill="#F3F3F3"/><path opacity=".6" d="M42.258 54.052a.13.13 0 01-.182-.008l-.502-.575a.12.12 0 01-.015-.141.121.121 0 01.033-.038.126.126 0 01.14-.022.126.126 0 01.04.03l.502.574a.128.128 0 01-.017.18zm-.659-.74a.116.116 0 00-.016.156l.502.568a.115.115 0 00.192-.069.114.114 0 00-.02-.079l-.502-.574a.109.109 0 00-.076-.038.106.106 0 00-.08.03v.006z" fill="#fff"/><path opacity=".6" d="M43.434 54.363a.11.11 0 01-.163-.032l-.964-1.418a.124.124 0 01.034-.164.11.11 0 01.132-.003c.013.01.024.022.031.035l.955 1.418a.115.115 0 01-.025.164z" fill="#F3F3F3"/><path opacity=".6" d="M43.434 54.372a.134.134 0 01-.181-.032l-.958-1.42a.126.126 0 01.002-.146.126.126 0 01.04-.034.134.134 0 01.18.034l.954 1.418a.124.124 0 01-.037.18zm-1.086-1.616a.108.108 0 00-.033.148l.955 1.42a.115.115 0 00.156.023.108.108 0 00.033-.148l-.955-1.408a.116.116 0 00-.148-.035h-.008z" fill="#fff"/><path opacity=".6" d="M43.608 53.148a.12.12 0 01-.165-.04l-.38-.664a.123.123 0 01.05-.164.121.121 0 01.165.041l.379.665a.127.127 0 01-.05.162z" fill="#F3F3F3"/><path opacity=".6" d="M43.608 53.16a.13.13 0 01-.174-.042l-.377-.665a.123.123 0 01.049-.171.128.128 0 01.172.041l.379.664a.124.124 0 01.011.096.126.126 0 01-.06.076zm-.495-.87a.108.108 0 00-.04.148l.379.665a.118.118 0 00.148.041.111.111 0 00.042-.148l-.379-.664a.106.106 0 00-.066-.051.107.107 0 00-.083.011l-.001-.002z" fill="#fff"/><path opacity=".6" d="M44.7 53.691a.118.118 0 01-.148-.057l-.665-1.582a.122.122 0 01.065-.148.118.118 0 01.149.056l.666 1.584a.126.126 0 01-.066.155v-.008z" fill="#F3F3F3"/><path opacity=".6" d="M44.7 53.7a.137.137 0 01-.172-.066l-.667-1.582a.128.128 0 01.075-.164.139.139 0 01.173.066l.666 1.582a.134.134 0 01-.073.165h-.001zm-.742-1.796a.106.106 0 00-.056.14l.665 1.583a.112.112 0 00.148.056.106.106 0 00.067-.098.104.104 0 00-.009-.041l-.673-1.58a.116.116 0 00-.148-.057l.006-.003z" fill="#fff"/><path opacity=".6" d="M45.105 52.527a.116.116 0 01-.126-.035.117.117 0 01-.023-.04l-.24-.72a.115.115 0 01.075-.148.13.13 0 01.149.074l.239.722a.113.113 0 01-.075.148v-.001z" fill="#F3F3F3"/><path opacity=".6" d="M45.117 52.535a.126.126 0 01-.138-.031.126.126 0 01-.026-.042l-.239-.723a.129.129 0 01.083-.162.127.127 0 01.138.032c.01.012.02.026.026.042l.239.72a.147.147 0 01-.084.164zm-.321-.942a.113.113 0 00-.073.139l.238.72a.11.11 0 00.14.067.115.115 0 00.073-.139l-.237-.722a.104.104 0 00-.13-.07h-.011v.005z" fill="#fff"/><path opacity=".6" d="M46.076 53.273a.108.108 0 01-.14-.09l-.346-1.68a.121.121 0 01.02-.09.121.121 0 01.078-.05.112.112 0 01.09.014.11.11 0 01.05.077l.346 1.68a.13.13 0 01-.098.139z" fill="#F3F3F3"/><path opacity=".6" d="M46.076 53.281a.134.134 0 01-.157-.099l-.345-1.68a.127.127 0 01.018-.094.124.124 0 01.08-.054.132.132 0 01.156.1l.346 1.68a.121.121 0 01-.098.147zm-.388-1.909a.116.116 0 00-.09.132l.346 1.68a.107.107 0 00.09.084.109.109 0 00.042-.002.116.116 0 00.09-.131l-.345-1.68a.118.118 0 00-.133-.083z" fill="#fff"/><path opacity=".6" d="M46.701 52.207a.128.128 0 01-.14-.098l-.099-.754a.12.12 0 01.107-.132.129.129 0 01.14.1l.1.754a.12.12 0 01-.108.13z" fill="#F3F3F3"/><path opacity=".6" d="M46.701 52.216a.132.132 0 01-.148-.107l-.1-.754a.129.129 0 01.116-.14.132.132 0 01.148.107l.099.755a.127.127 0 01-.115.139zm-.123-.984a.118.118 0 00-.1.123l.1.755a.11.11 0 00.123.09.117.117 0 00.098-.123l-.098-.755a.11.11 0 00-.123-.09z" fill="#fff"/><path opacity=".6" d="M47.59 70.17c5.38 0 9.74-4.346 9.74-9.707 0-5.36-4.36-9.706-9.74-9.706s-9.742 4.346-9.742 9.706c0 5.36 4.361 9.706 9.742 9.706z" fill="url(#paint2_linear_276_7)" fill-opacity=".2"/><path opacity=".05" d="M54.335 54.308l-7.857 5.016h-.009v.01l-.007.006-4.904 8.06 7.208-5.78.007-.008v-.009l5.562-7.295z" fill="#000"/><path opacity=".6" d="M54.188 53.84l-7.768 5.5 2.304 2.279 5.464-7.78z" fill="#CD151E"/><path opacity=".6" d="M46.43 59.324l1.16 1.14 6.598-6.625-7.759 5.485z" fill="#FA5153"/><path opacity=".6" d="M46.43 59.324l2.303 2.279-7.768 5.5 5.464-7.78z" fill="#ACACAC"/><path opacity=".6" d="M40.965 67.103l6.624-6.64-1.16-1.14-5.464 7.78z" fill="#EEE"/></g><path opacity=".6" d="M119.603 42.072h9.212c0-3.143-1.426-5.284-5.317-5.284-4.599 0-9.275 2.876-11.498 6.462.688-6.228 5.338-11.25 12.327-11.25C130.321 32 136 36.396 136 43.722v2.783h-16.353c0 3.788 3.431 5.288 7.04 5.288 4.385 0 7.098-1.892 7.098-1.892v5.311S130.721 57 125.837 57c-6.349 0-10.829-4.37-10.829-9.805a9.376 9.376 0 011.728-5.5 9.974 9.974 0 014.678-3.577c-1.809 1.912-1.817 3.96-1.817 3.96l.006-.006z" fill="#3277BC"/><g opacity=".6"><path opacity=".6" d="M78.73 20.002s5.153-.232 7.897 4.943h-8.335s-1.573-.05-2.916 1.85c-.382.799-.802 1.62-.336 3.233-.67-1.132-3.559-6.146-3.559-6.146s2.038-3.677 7.251-3.88h-.002z" fill="#EF3F36"/><path opacity=".6" d="M86.358 33.12s-2.38 4.562-8.238 4.342c.725-1.248 4.17-7.191 4.17-7.191s.831-1.331-.151-3.442c-.498-.734-1.008-1.5-2.649-1.901 1.32-.012 7.122 0 7.122 0s2.173 3.592-.254 8.191z" fill="#FCD900"/><path opacity=".6" d="M71.14 33.155s-2.781-4.339.345-9.28c.721 1.249 4.165 7.19 4.165 7.19s.743 1.387 3.067 1.592c.886-.065 1.805-.12 2.983-1.331-.65 1.14-3.56 6.143-3.56 6.143s-4.216.078-7-4.316v.002z" fill="#61BC5B"/><path opacity=".6" d="M78.118 37.506l1.174-4.875a3.933 3.933 0 002.368-1.28c-.672 1.175-3.542 6.155-3.542 6.155z" fill="#5AB055"/><path opacity=".6" d="M74.803 28.807c0-.77.23-1.523.659-2.163a3.904 3.904 0 011.753-1.433 3.92 3.92 0 014.257.844 3.888 3.888 0 01.847 4.241 3.895 3.895 0 01-1.44 1.747 3.917 3.917 0 01-4.931-.484 3.885 3.885 0 01-1.144-2.752z" fill="#fff"/><path opacity=".6" d="M75.458 28.807c0-.64.19-1.265.546-1.796a3.255 3.255 0 014.991-.49 3.228 3.228 0 01.704 3.523 3.234 3.234 0 01-1.195 1.45 3.252 3.252 0 01-4.096-.402 3.226 3.226 0 01-.95-2.285z" fill="url(#paint3_linear_276_7)"/><path opacity=".6" d="M86.61 24.924l-4.828 1.411a3.918 3.918 0 00-2.29-1.41h7.121-.004z" fill="#EACA05"/><path opacity=".6" d="M74.946 29.85c-.677-1.17-3.465-5.968-3.465-5.968l3.574 3.524a3.5 3.5 0 00-.229 1.829l.12.616z" fill="#DF3A32"/></g><path d="M120.193 13.477c3.967 0 5.807-2.118 5.807-4.958C126 3.562 121.984 0 117 0s-9 4.042-9 9 4.016 9 9 9a8.931 8.931 0 005.121-1.667.682.682 0 00.28-.447.442.442 0 00-.139-.415.57.57 0 00-.826.098c-.329.429-1.313 1.159-4.224 1.224-4.402.1-8.085-3.387-8.099-7.767-.015-4.344 3.571-7.775 7.887-7.823 4.316-.049 7.787 2.984 7.787 7.22 0 2.696-1.887 3.947-4.161 3.899-.726.048-.871-.24-.775-1.252.079-.83.876-4.289 1.159-5.5a.67.67 0 00-.677-.825h-.049a.67.67 0 00-.586.585 5.02 5.02 0 00-.041.587c-.436-.866-1.452-1.54-2.661-1.588-2.564.048-4.79 2.363-4.883 5.728 0 2.262 1.209 3.562 3.29 3.562 1.452 0 2.516-.867 3.096-1.685 0 .003-.048 1.446 1.694 1.543zm-4.597-1.01c-1.307 0-2.08-.963-2.08-2.503 0-2.647 1.789-4.333 3.484-4.333 1.499 0 2.08 1.011 2.129 2.363-.001 2.161-1.404 4.472-3.533 4.472zM92.451 54.236c2.425 0 3.549-1.294 3.549-3.03C96 48.176 93.546 46 90.5 46a5.5 5.5 0 100 11 5.457 5.457 0 003.13-1.019.417.417 0 00.17-.273.27.27 0 00-.084-.253.348.348 0 00-.505.06c-.201.261-.803.707-2.581.748-2.69.06-4.941-2.07-4.95-4.747-.009-2.655 2.182-4.751 4.82-4.781 2.638-.03 4.759 1.824 4.759 4.413 0 1.647-1.154 2.412-2.543 2.382-.444.03-.533-.147-.474-.765.049-.507.536-2.62.708-3.36a.407.407 0 00-.23-.469.413.413 0 00-.183-.036h-.03a.41.41 0 00-.358.358 3.093 3.093 0 00-.025.358c-.266-.53-.888-.941-1.626-.97-1.568.029-2.928 1.444-2.985 3.5 0 1.382.74 2.177 2.011 2.177.887 0 1.537-.53 1.892-1.03 0 .002-.03.884 1.035.943zm-2.81-.618c-.798 0-1.27-.588-1.27-1.53 0-1.617 1.093-2.647 2.129-2.647.916 0 1.271.618 1.301 1.444 0 1.321-.858 2.733-2.16 2.733z" fill="#6C63FF"/><path opacity=".1" d="M96.395 30.202c-8.11 7.298-18.628 6.826-27.846 3.028-9.218-3.797-17.685-10.556-26.666-15.361-7.53-4.028-15.43-6.673-23.428-7.85-11.446-1.673-24.229.372-32.203 12.164-8.881 13.139-8.2 36.835 1.402 48.888C-7.458 77.205-1.06 80.216 4.52 85.012 10.1 89.808 15.265 97.756 14.79 107c-.44 8.551-5.555 15.127-10.849 19.247-4.09 3.186-9.128 6.663-9.62 13.259-.478 6.383 3.759 11.383 7.804 14.227 13.196 9.279 29.457 9.19 42.608-.234 4.69-3.361 9.002-7.831 13.92-10.452 12.914-6.878 27.145.046 40.82 2.578 11.573 2.143 23.442 1.033 34.718-3.248 6.772-2.57 13.57-6.505 18.327-13.824 3.431-5.279 5.569-11.959 7.575-18.558a879.974 879.974 0 006.17-21.26c1.184-4.275 2.35-8.65 2.656-13.233.555-8.305-1.781-16.514-4.962-23.523-7.557-16.639-20.276-28.34-34.051-31.314-13.775-2.974-28.348 2.834-39.032 15.538" fill="#6C63FF"/><defs><linearGradient id="paint0_linear_276_7" x1="47.632" y1="72.086" x2="47.632" y2="50.582" gradientUnits="userSpaceOnUse"><stop offset=".25" stop-color="#DBDBDA"/><stop offset="1" stop-color="#fff"/></linearGradient><linearGradient id="paint2_linear_276_7" x1="47.716" y1="58.583" x2="44.41" y2="68.536" gradientUnits="userSpaceOnUse"><stop stop-opacity="0"/><stop offset="1"/></linearGradient><linearGradient id="paint3_linear_276_7" x1="78.658" y1="25.267" x2="78.658" y2="32.29" gradientUnits="userSpaceOnUse"><stop stop-color="#86BBE5"/><stop offset="1" stop-color="#1072BA"/></linearGradient><radialGradient id="paint1_radial_276_7" cx="0" cy="0" r="1" gradientUnits="userSpaceOnUse" gradientTransform="matrix(13.3087 0 0 13.2607 50.058 58.722)"><stop stop-color="#2ABCE1"/><stop offset=".11" stop-color="#2ABBE1"/><stop offset="1" stop-color="#3375F8"/></radialGradient></defs></svg>