<svg width="204" height="170" fill="none" xmlns="http://www.w3.org/2000/svg"><g clip-path="url(#clip0_204_189)"><path d="M49.664 44.44H21.02a2.218 2.218 0 00-2.215 2.222v55.961c0 1.227.992 2.222 2.215 2.222h28.644a2.219 2.219 0 002.215-2.222V46.662a2.218 2.218 0 00-2.215-2.222z" fill="url(#paint0_linear_204_189)"/><path d="M48.902 45.433h-27.12a2.218 2.218 0 00-2.215 2.222v53.565c0 1.226.992 2.221 2.215 2.221h27.12a2.218 2.218 0 002.215-2.221V47.655a2.218 2.218 0 00-2.215-2.222z" fill="#fff"/><path d="M47.645 49.426l-24.427.034.066 47.205 24.427-.034-.066-47.205z" fill="#E6E6E6"/><path d="M35.503 102.05c1.075-.001 1.946-.899 1.944-2.004-.002-1.105-.875-2-1.95-1.998-1.075.001-1.946.898-1.944 2.004.002 1.105.874 2 1.95 1.998zM31.73 47.644c.215 0 .39-.18.39-.4a.397.397 0 00-.391-.4.397.397 0 00-.39.401c.001.22.176.4.391.4zm7.568-.71l-5.595.008c-.123 0-.222.1-.222.222v.156c0 .122.1.222.222.222l5.596-.008a.22.22 0 00.22-.223v-.155a.221.221 0 00-.221-.222z" fill="#DBDBDB"/><path d="M42.38 76.817H28.548V91.38h13.83V76.817z" fill="url(#paint1_linear_204_189)"/><path d="M41.779 77.45H29.15v13.297h12.63V77.45z" fill="#6C63FF"/><path opacity=".5" d="M36.42 83.477v-.251h.665v-1.287a2.064 2.064 0 00-.626-2.878 2.049 2.049 0 00-2.855.696 2.064 2.064 0 00-.007 2.087v1.382h.733v.295a4.257 4.257 0 00-2.255 1.528 4.277 4.277 0 00-.87 2.586v3.745h8.525v-3.745c0-.967-.328-1.904-.93-2.66a4.253 4.253 0 00-2.38-1.498z" fill="url(#paint2_linear_204_189)"/><path d="M36.937 80.869h-3.156V83.4h3.156v-2.532z" fill="#F55F44"/><path d="M34.463 83.534h1.993c.756 0 1.48.301 2.014.837a2.86 2.86 0 01.835 2.02v4.393h-7.69v-4.398a2.86 2.86 0 01.835-2.017 2.844 2.844 0 012.013-.835z" fill="#FDD835"/><path d="M35.63 82.268h-.49a.699.699 0 00-.697.7v.964a.7.7 0 00.698.7h.49a.699.699 0 00.697-.7v-.964a.7.7 0 00-.698-.7z" fill="#FDA57D"/><path d="M35.025 84.56l.353.516.37-.516h-.723z" fill="#FDA57D"/><path opacity=".1" d="M33.063 86.422s-.374 3.736-.133 3.978l.133-3.978zm4.629 0s.375 3.736.133 3.978l-.133-3.978z" fill="#000"/><path opacity=".05" d="M35.386 83.417c.335 0 .661-.108.93-.307a.947.947 0 00-.93-.797.942.942 0 00-.93.797c.27.2.596.307.93.307z" fill="#000"/><path d="M35.387 83.077a1.861 1.861 0 001.858-1.864 1.86 1.86 0 00-1.858-1.863 1.861 1.861 0 00-1.859 1.863c0 1.03.832 1.864 1.859 1.864z" fill="#F55F44"/><path d="M35.386 83.37c.868 0 1.57-.705 1.57-1.575s-.702-1.575-1.57-1.575c-.867 0-1.57.705-1.57 1.575s.703 1.575 1.57 1.575z" fill="#FDA57D"/><path d="M33.812 81.893c.06 0 .11-.09.11-.2 0-.11-.05-.2-.11-.2-.061 0-.111.09-.111.2 0 .11.05.2.11.2zm3.152 0c.06 0 .11-.09.11-.2 0-.11-.05-.2-.11-.2-.062 0-.111.09-.111.2 0 .11.05.2.11.2z" fill="#FDA57D"/><path d="M46.123 52.495H24.805v.928h21.318v-.928zm0 1.857H24.805v.928h21.318v-.928zm-9.268 1.858h-12.05v.93h12.05v-.93zm5.56 1.86h-17.61v.928h17.61v-.928zm-2.78 1.86h-14.83v.928h14.83v-.929zm6.488 1.858H24.805v.929h21.318v-.929zm-1.853 2.788H25.734v7.434h18.538v-7.434z" fill="#fff"/><path d="M156.511 101.999s3.101 21.366 21.306 28.463l-36.835.051-36.835.051c18.176-7.147 21.23-28.522 21.23-28.522l31.134-.043z" fill="#F2F2F2"/><path d="M178.146 130.458l-74.366.104.006 4.514 74.366-.105-.006-4.513z" fill="url(#paint3_linear_204_189)"/><path d="M177.823 130.458l-73.671.103.005 3.483 73.67-.103-.004-3.483z" fill="#F5F5F5"/><path d="M200.76 25.116l-119.809.166c-.652.016-1.27.29-1.72.764a2.47 2.47 0 00-.679 1.76l.093 70.097v2.335c0 5.331 4.127 9.638 9.204 9.631l106.233-.146c5.075 0 9.184-4.33 9.177-9.656v-2.332l-.093-70.098a2.477 2.477 0 00-.682-1.76 2.448 2.448 0 00-1.724-.761z" fill="url(#paint4_linear_204_189)"/><path d="M82.373 27.464h116.839c.632 0 1.237.251 1.684.699.446.448.697 1.055.697 1.688V96.56H79.99V29.85a2.393 2.393 0 011.471-2.206c.29-.12.6-.182.912-.181z" fill="#fff"/><path d="M193.267 107.648l-104.627.144a8.464 8.464 0 01-6.005-2.485 8.51 8.51 0 01-2.494-6.015v-2.888l121.603-.169v2.888a8.532 8.532 0 01-2.478 6.023 8.48 8.48 0 01-5.999 2.502z" fill="#F5F5F5"/><path d="M196.04 33.061H85.997v55.78H196.04V33.06z" fill="#E6E6E6"/><path d="M186.567 36.74h-19.479v20.51h19.479V36.74z" fill="url(#paint5_linear_204_189)"/><path d="M185.721 37.632h-17.787V56.36h17.787V37.632z" fill="#6C63FF"/><path opacity=".5" d="M178.043 45.96l-.221-.08-.013.02h-.014v-.604a1.5 1.5 0 00-.017-.222c.358-.265.633-.629.79-1.047a2.726 2.726 0 00.288-2.867 2.713 2.713 0 00-4.879 0 2.726 2.726 0 00.288 2.867c.157.418.431.782.79 1.047a1.5 1.5 0 00-.017.222v.666a5.634 5.634 0 00-2.984 2.024 5.66 5.66 0 00-1.152 3.423v4.955h11.252v-4.962a5.658 5.658 0 00-1.143-3.414 5.632 5.632 0 00-2.968-2.028z" fill="url(#paint6_linear_204_189)"/><path d="M176.187 45.838h.687a5.07 5.07 0 013.591 1.491 5.099 5.099 0 011.488 3.602v5.109h-10.854v-5.11a5.102 5.102 0 013.142-4.707 5.063 5.063 0 011.946-.385z" fill="#514ABF"/><path d="M176.504 44.063h-.166c-.688 0-1.245.559-1.245 1.248v.833c0 .69.557 1.249 1.245 1.249h.166c.687 0 1.245-.56 1.245-1.249v-.833c0-.69-.558-1.248-1.245-1.248z" fill="#FDA57D"/><path opacity=".05" d="M174.172 46.426l.89 1.915.884-.886-.884-1.362-.89.333z" fill="#000"/><path d="M174.203 46.333l.886 1.915.886-.889-.886-1.36-.408.125a.988.988 0 00-.117.045l-.361.164z" fill="#fff"/><path opacity=".05" d="M178.672 46.333l-.892 2.008-.886-.886.91-1.433.868.31z" fill="#000"/><path d="M178.641 46.24l-.886 1.999-.886-.889.911-1.432.166.049c.18.051.357.114.529.188l.166.085z" fill="#fff"/><path d="M175.91 47.29l.496.724.523-.724h-1.019z" fill="#FDA57D"/><path opacity=".1" d="M173.146 49.914s-.527 5.262-.186 5.604l.186-5.604zm6.521 0s.527 5.262.186 5.604l-.186-5.604z" fill="#000"/><path opacity=".05" d="M176.42 45.678c.471 0 .931-.151 1.311-.431a1.33 1.33 0 00-1.311-1.122 1.327 1.327 0 00-1.312 1.122c.381.28.84.43 1.312.43z" fill="#000"/><path d="M176.42 45.198a2.62 2.62 0 002.616-2.623 2.62 2.62 0 00-2.616-2.624 2.62 2.62 0 00-2.616 2.624 2.62 2.62 0 002.616 2.623z" fill="#000"/><path d="M176.42 45.615a2.216 2.216 0 002.213-2.218 2.216 2.216 0 00-2.213-2.22 2.216 2.216 0 00-2.213 2.22c0 1.225.991 2.218 2.213 2.218z" fill="#FDA57D"/><path opacity=".05" d="M174.637 41.197l.558.685s2.452.222 2.731-.343c.279-.564-1.615-.966-1.615-.966l-1.674.624z" fill="#000"/><path d="M174.637 41.135l.558.684s2.452.222 2.731-.342c.279-.564-1.615-.966-1.615-.966l-1.674.624z" fill="#000"/><path d="M174.202 43.532c.086 0 .155-.125.155-.28 0-.154-.069-.28-.155-.28-.085 0-.155.126-.155.28 0 .155.07.28.155.28zm4.44 0c.085 0 .155-.125.155-.28 0-.154-.07-.28-.155-.28-.086 0-.156.126-.156.28 0 .155.07.28.156.28z" fill="#FDA57D"/><path d="M186.68 61.344h-19.479v20.51h19.479v-20.51z" fill="url(#paint7_linear_204_189)"/><path d="M185.834 62.235h-17.787v18.727h17.787V62.235z" fill="#6C63FF"/><path opacity=".5" d="M178.285 70.673v-.791a2.45 2.45 0 00.828-1.11 2.903 2.903 0 00-.128-3.695 2.886 2.886 0 00-1.079-.763.981.981 0 00-.179-.816.984.984 0 00-1.159-.311.983.983 0 00-.596 1.045 2.907 2.907 0 00-1.996 3.276c.082.46.273.895.559 1.266.164.442.452.828.828 1.11v.832a5.417 5.417 0 00-3.155 1.872 5.447 5.447 0 00-1.246 3.458v5.844h11.983v-5.835c0-1.31-.472-2.575-1.328-3.563a5.417 5.417 0 00-3.332-1.819z" fill="url(#paint8_linear_204_189)"/><path d="M176.597 70.798h.687a5.064 5.064 0 013.591 1.492 5.11 5.11 0 011.488 3.602V81h-10.854v-5.11c0-1.35.535-2.646 1.488-3.602a5.07 5.07 0 013.591-1.491h.009z" fill="#fff"/><path d="M176.912 69.023h-.167c-.687 0-1.244.559-1.244 1.248v.833c0 .69.557 1.249 1.244 1.249h.167c.687 0 1.244-.56 1.244-1.249v-.833c0-.69-.557-1.248-1.244-1.248z" fill="#FDB797"/><path d="M176.32 72.25l.496.725.521-.725h-1.017z" fill="#FDB797"/><path opacity=".1" d="M173.556 74.871s-.527 5.263-.186 5.605l.186-5.605zm6.521 0s.527 5.263.186 5.605l-.186-5.605z" fill="#000"/><path opacity=".05" d="M176.838 70.638c.472 0 .931-.151 1.312-.431a1.335 1.335 0 00-2.184-.809 1.337 1.337 0 00-.457.809c.385.284.852.435 1.329.43z" fill="#000"/><path d="M176.829 70.158a2.62 2.62 0 002.616-2.623 2.62 2.62 0 00-2.616-2.623 2.62 2.62 0 00-2.615 2.623 2.62 2.62 0 002.615 2.623z" fill="#FDD835"/><path d="M176.829 70.576a2.216 2.216 0 002.213-2.22c0-1.225-.99-2.218-2.213-2.218a2.215 2.215 0 00-2.212 2.219c0 1.225.99 2.219 2.212 2.219z" fill="#FDB797"/><path d="M174.61 68.492c.086 0 .155-.125.155-.28 0-.154-.069-.28-.155-.28-.085 0-.155.126-.155.28 0 .155.07.28.155.28zm4.441 0c.086 0 .155-.125.155-.28 0-.154-.069-.28-.155-.28-.085 0-.155.126-.155.28 0 .155.07.28.155.28z" fill="#FDB797"/><path d="M176.94 65.802a.889.889 0 00.888-.89.889.889 0 10-1.776 0c0 .491.398.89.888.89zm-1.778 0s.886 1.777 3.557.889l-.886-.889h-2.671z" fill="#FDD835"/><path d="M143.78 40.06H94.832v2.135h48.948V40.06zm0 4.267H94.832v2.135h48.948v-2.135zm-21.282 4.27H94.832v2.134h27.666v-2.134zm12.769 4.267H94.833v2.134h40.434v-2.134zm-6.386 4.269H94.832v2.134h34.049v-2.134zM143.78 61.4H94.832v2.134h48.948V61.4zm-4.258 6.403h-42.56v17.073h42.56V67.803z" fill="#fff"/><path d="M30.99 136.095H7.58V8.048h138.328v10.67" stroke="#3AD29F" stroke-width="2" stroke-miterlimit="10" stroke-dasharray="12 12"/><path opacity=".5" d="M8.29 16.586c4.441 0 8.04-3.61 8.04-8.063C16.33 4.07 12.732.46 8.29.46 3.85.46.25 4.07.25 8.523c0 4.453 3.6 8.063 8.04 8.063z" fill="url(#paint9_linear_204_189)"/><path d="M8.29 16.11c4.18 0 7.567-3.396 7.567-7.587 0-4.19-3.388-7.588-7.567-7.588C4.112.935.724 4.333.724 8.523c0 4.19 3.388 7.588 7.566 7.588z" fill="#69F0AE"/><path d="M5.453 8.048l2.837 2.607 4.019-5.928 1.42 1.186-5.439 7.115-4.02-4.505 1.183-.475z" fill="#fff"/><path d="M94.23 74.212l-53.785.075a3.809 3.809 0 00-3.797 3.819l.122 87.805a3.808 3.808 0 003.808 3.809l53.785-.076a3.807 3.807 0 003.798-3.819l-.123-87.805a3.808 3.808 0 00-3.808-3.808z" fill="url(#paint10_linear_204_189)"/><path d="M93.965 81.502l-53.015.074.111 80.042 53.016-.074-.112-80.042z" fill="url(#paint11_linear_204_189)"/><path d="M93.36 75.654l-52.04.073a2.813 2.813 0 00-2.804 2.82l.118 85.405a2.813 2.813 0 002.813 2.812l52.039-.073a2.812 2.812 0 002.805-2.82l-.12-85.404a2.812 2.812 0 00-2.812-2.813z" fill="#fff"/><path d="M92.348 82.613l-49.791.07.106 76.356 49.791-.069-.106-76.357z" fill="#E6E6E6"/><path d="M67.45 165.042c1.134 0 2.052-.943 2.052-2.107 0-1.165-.918-2.108-2.051-2.108s-2.051.943-2.051 2.108c0 1.164.918 2.107 2.05 2.107zm-8.616-84.984a.693.693 0 00.683-.702.693.693 0 00-.685-.701.693.693 0 00-.684.703c0 .387.308.701.686.7zm12.141-1.14l-8.555.012a.169.169 0 00-.168.169v.364a.17.17 0 00.17.169l8.554-.013a.169.169 0 00.168-.169v-.364a.169.169 0 00-.17-.168z" fill="#DBDBDB"/><path d="M86.684 129.691H67.205v20.511h19.479v-20.511z" fill="url(#paint12_linear_204_189)"/><path d="M85.837 130.584H68.051v18.728h17.786v-18.728z" fill="#6C63FF"/><path opacity=".5" d="M78.457 138.914l-.221-.08-.014.02h-.013v-.604c0-.075-.006-.149-.018-.222.36-.265.634-.628.791-1.046a2.733 2.733 0 00-.715-3.979 2.714 2.714 0 00-3.876 1.112 2.728 2.728 0 00.287 2.867c.157.418.432.781.791 1.046a1.389 1.389 0 00-.018.222v.666a5.633 5.633 0 00-2.983 2.024 5.661 5.661 0 00-1.152 3.423v4.955h11.263v-4.964a5.664 5.664 0 00-1.148-3.416 5.634 5.634 0 00-2.974-2.024z" fill="url(#paint13_linear_204_189)"/><path d="M76.6 138.79h.688c1.347 0 2.638.536 3.59 1.491a5.103 5.103 0 011.489 3.602v5.109H71.513v-5.109a5.101 5.101 0 011.49-3.605 5.071 5.071 0 013.598-1.488z" fill="#3AD29F"/><path d="M76.918 137.015h-.167c-.687 0-1.244.559-1.244 1.248v.833c0 .69.557 1.249 1.244 1.249h.167c.687 0 1.244-.559 1.244-1.249v-.833c0-.689-.557-1.248-1.244-1.248z" fill="#BE7C5E"/><path d="M76.324 140.242l.496.724.523-.724h-1.019z" fill="#BE7C5E"/><path opacity=".1" d="M73.56 142.866s-.527 5.262-.186 5.604l.186-5.604zm6.52 0s.528 5.262.187 5.604l-.186-5.604z" fill="#000"/><path opacity=".05" d="M76.834 138.621c.471 0 .93-.151 1.31-.431a1.334 1.334 0 00-1.31-1.122 1.335 1.335 0 00-1.311 1.122c.38.28.839.431 1.31.431z" fill="#000"/><path d="M76.834 138.15a2.62 2.62 0 002.615-2.623 2.62 2.62 0 00-2.615-2.624 2.62 2.62 0 00-2.616 2.624 2.62 2.62 0 002.616 2.623z" fill="#444"/><path d="M76.834 138.568a2.216 2.216 0 002.212-2.219c0-1.226-.99-2.219-2.213-2.219a2.216 2.216 0 00-2.212 2.219c0 1.225.99 2.219 2.213 2.219z" fill="#BE7C5E"/><path opacity=".05" d="M75.05 134.149l.559.685s2.452.222 2.73-.342c.28-.565-1.614-.967-1.614-.967l-1.675.624z" fill="#000"/><path d="M75.05 134.087l.559.684s2.452.223 2.73-.342c.28-.564-1.614-.966-1.614-.966l-1.675.624z" fill="#444"/><path d="M74.616 136.484c.086 0 .155-.125.155-.28 0-.154-.07-.28-.155-.28-.085 0-.155.126-.155.28 0 .155.07.28.155.28zm4.439 0c.086 0 .155-.125.155-.28 0-.154-.07-.28-.155-.28-.086 0-.155.126-.155.28 0 .155.07.28.155.28z" fill="#BE7C5E"/><path d="M75.103 133.088c.174-.222.413-.383.683-.46.49-.196.999-.395 1.524-.36a.254.254 0 01.144.042.5.5 0 01.086.127c.16.238.607.222.664.502.016.091-.022.189 0 .278.058.222.37.199.554.326a.508.508 0 01.044.706 1.328 1.328 0 01-.677.387 2.61 2.61 0 01-1.429.127c-.671-.176-2.242-.611-1.593-1.675z" fill="#444"/><path d="M66.749 129.469h-19.48v20.511h19.48v-20.511z" fill="url(#paint14_linear_204_189)"/><path d="M65.903 130.362H48.116v18.728h17.787v-18.728z" fill="#6C63FF"/><path opacity=".5" d="M58.522 138.692l-.221-.08-.014.02h-.013v-.604c0-.075-.006-.149-.018-.222.36-.265.634-.629.791-1.047a2.727 2.727 0 00-2.152-4.39 2.714 2.714 0 00-2.439 1.523 2.735 2.735 0 00.287 2.867c.158.418.432.782.791 1.047a1.389 1.389 0 00-.018.222v.666a5.633 5.633 0 00-2.983 2.024 5.661 5.661 0 00-1.152 3.423v4.955h11.263v-4.964a5.663 5.663 0 00-1.148-3.416 5.634 5.634 0 00-2.974-2.024z" fill="url(#paint15_linear_204_189)"/><path d="M56.666 138.567h.687a5.066 5.066 0 013.591 1.492 5.095 5.095 0 011.488 3.602v5.109H51.578v-5.109a5.101 5.101 0 013.142-4.708 5.06 5.06 0 011.946-.386z" fill="#514ABF"/><path d="M56.983 136.793h-.166c-.688 0-1.245.559-1.245 1.248v.833c0 .689.557 1.248 1.245 1.248h.166c.687 0 1.245-.559 1.245-1.248v-.833c0-.689-.558-1.248-1.245-1.248z" fill="#FDA57D"/><path opacity=".1" d="M53.625 142.644s-.527 5.262-.186 5.604l.186-5.604zm6.521 0s.527 5.262.186 5.604l-.186-5.604z" fill="#000"/><path opacity=".05" d="M56.899 138.399a2.21 2.21 0 001.31-.431 1.331 1.331 0 00-1.31-1.122 1.331 1.331 0 00-1.311 1.122c.38.28.839.431 1.31.431z" fill="#000"/><path d="M56.899 137.928a2.62 2.62 0 002.615-2.623 2.62 2.62 0 00-2.615-2.624 2.62 2.62 0 00-2.616 2.624 2.62 2.62 0 002.616 2.623z" fill="#444"/><path d="M56.899 138.345a2.216 2.216 0 002.212-2.219c0-1.225-.99-2.219-2.212-2.219a2.216 2.216 0 00-2.213 2.219c0 1.226.99 2.219 2.213 2.219z" fill="#FDA57D"/><path opacity=".05" d="M55.115 133.927l.559.684s2.452.223 2.73-.342c.28-.564-1.614-.966-1.614-.966l-1.675.624z" fill="#000"/><path d="M55.115 133.865l.559.684s2.452.222 2.73-.342c.28-.564-1.614-.966-1.614-.966l-1.675.624z" fill="#444"/><path d="M54.681 136.262c.086 0 .155-.125.155-.28 0-.155-.07-.28-.155-.28-.085 0-.155.125-.155.28 0 .155.07.28.155.28zm4.439 0c.086 0 .155-.125.155-.28 0-.155-.07-.28-.155-.28-.085 0-.155.125-.155.28 0 .155.07.28.155.28z" fill="#FDA57D"/><path d="M84.192 92.381H48.014v1.577h36.178v-1.577zm0 3.154H48.014v1.578h36.178v-1.578zM68.463 98.69H48.014v1.577h20.45V98.69zm9.438 3.156H48.014v1.577h29.887v-1.577zM73.181 105H48.014v1.577h25.167V105zm11.011 3.154H48.014v1.577h36.178v-1.577zm-3.146 4.734h-31.46v12.619h31.46v-12.619z" fill="#fff"/><path d="M55.361 135.289a3.64 3.64 0 00.277-.622 1.52 1.52 0 012.709-.107c.182.327.242.713.443 1.029a.253.253 0 00.202.047.252.252 0 00.172-.116.492.492 0 00.025-.422c-.047-.138-.124-.265-.175-.4a3.173 3.173 0 00-.222-.64 1.326 1.326 0 00-.443-.371c-.49-.302-1.056-.615-1.61-.444a2.077 2.077 0 00-.525.269l-.704.444a2.205 2.205 0 00-.598.491c-.153.2-.443.797-.308 1.055.16.293.618-.029.757-.213z" fill="#444"/><path d="M56.343 139.954v8.825h1.3l-.193-8.825h-1.108z" fill="#fff"/><path d="M56.126 139.834l.753 1.099.793-1.099h-1.546z" fill="#FDA57D"/></g><defs><linearGradient id="paint0_linear_204_189" x1="35.344" y1="105.232" x2="35.344" y2="44.635" gradientUnits="userSpaceOnUse"><stop stop-color="gray" stop-opacity=".25"/><stop offset=".54" stop-color="gray" stop-opacity=".12"/><stop offset="1" stop-color="gray" stop-opacity=".1"/></linearGradient><linearGradient id="paint1_linear_204_189" x1="2227.31" y1="6037.5" x2="2227.31" y2="5082.79" gradientUnits="userSpaceOnUse"><stop stop-color="gray" stop-opacity=".25"/><stop offset=".54" stop-color="gray" stop-opacity=".12"/><stop offset="1" stop-color="gray" stop-opacity=".1"/></linearGradient><linearGradient id="paint2_linear_204_189" x1="2595.26" y1="6120.85" x2="2595.26" y2="5402.47" gradientUnits="userSpaceOnUse"><stop stop-color="gray" stop-opacity=".25"/><stop offset=".54" stop-color="gray" stop-opacity=".12"/><stop offset="1" stop-color="gray" stop-opacity=".1"/></linearGradient><linearGradient id="paint3_linear_204_189" x1="57872" y1="3096.82" x2="57871.9" y2="3005.06" gradientUnits="userSpaceOnUse"><stop stop-color="gray" stop-opacity=".25"/><stop offset=".54" stop-color="gray" stop-opacity=".12"/><stop offset="1" stop-color="gray" stop-opacity=".1"/></linearGradient><linearGradient id="paint4_linear_204_189" x1="96958.5" y1="49553.7" x2="96958.5" y2="17149.5" gradientUnits="userSpaceOnUse"><stop stop-color="gray" stop-opacity=".25"/><stop offset=".54" stop-color="gray" stop-opacity=".12"/><stop offset="1" stop-color="gray" stop-opacity=".1"/></linearGradient><linearGradient id="paint5_linear_204_189" x1="15695.3" y1="5280.75" x2="15695.3" y2="3386.78" gradientUnits="userSpaceOnUse"><stop stop-color="gray" stop-opacity=".25"/><stop offset=".54" stop-color="gray" stop-opacity=".12"/><stop offset="1" stop-color="gray" stop-opacity=".1"/></linearGradient><linearGradient id="paint6_linear_204_189" x1="10435" y1="4773.69" x2="11007.2" y2="4773.69" gradientUnits="userSpaceOnUse"><stop stop-color="gray" stop-opacity=".25"/><stop offset=".54" stop-color="gray" stop-opacity=".12"/><stop offset="1" stop-color="gray" stop-opacity=".1"/></linearGradient><linearGradient id="paint7_linear_204_189" x1="15705.3" y1="7577.35" x2="15705.3" y2="5683.37" gradientUnits="userSpaceOnUse"><stop stop-color="gray" stop-opacity=".25"/><stop offset=".54" stop-color="gray" stop-opacity=".12"/><stop offset="1" stop-color="gray" stop-opacity=".1"/></linearGradient><linearGradient id="paint8_linear_204_189" x1="11428.6" y1="8244.24" x2="11428.6" y2="6657.18" gradientUnits="userSpaceOnUse"><stop stop-color="gray" stop-opacity=".25"/><stop offset=".54" stop-color="gray" stop-opacity=".12"/><stop offset="1" stop-color="gray" stop-opacity=".1"/></linearGradient><linearGradient id="paint9_linear_204_189" x1="583.986" y1="1171.06" x2="583.986" y2=".46" gradientUnits="userSpaceOnUse"><stop stop-color="gray" stop-opacity=".25"/><stop offset=".54" stop-color="gray" stop-opacity=".12"/><stop offset="1" stop-color="gray" stop-opacity=".1"/></linearGradient><linearGradient id="paint10_linear_204_189" x1="27450.2" y1="80766.6" x2="27392.5" y2="39577.5" gradientUnits="userSpaceOnUse"><stop stop-color="gray" stop-opacity=".25"/><stop offset=".54" stop-color="gray" stop-opacity=".12"/><stop offset="1" stop-color="gray" stop-opacity=".1"/></linearGradient><linearGradient id="paint11_linear_204_189" x1="67.573" y1="162.394" x2="67.461" y2="81.984" gradientUnits="userSpaceOnUse"><stop stop-opacity=".09"/><stop offset=".55" stop-opacity=".07"/><stop offset="1" stop-opacity=".02"/></linearGradient><linearGradient id="paint12_linear_204_189" x1="6811.7" y1="13956.9" x2="6811.7" y2="12062.9" gradientUnits="userSpaceOnUse"><stop stop-color="gray" stop-opacity=".25"/><stop offset=".54" stop-color="gray" stop-opacity=".12"/><stop offset="1" stop-color="gray" stop-opacity=".1"/></linearGradient><linearGradient id="paint13_linear_204_189" x1="5281.58" y1="11866.4" x2="5854.32" y2="11866.4" gradientUnits="userSpaceOnUse"><stop stop-color="gray" stop-opacity=".25"/><stop offset=".54" stop-color="gray" stop-opacity=".12"/><stop offset="1" stop-color="gray" stop-opacity=".1"/></linearGradient><linearGradient id="paint14_linear_204_189" x1="5038.68" y1="13936.2" x2="5038.68" y2="12042.2" gradientUnits="userSpaceOnUse"><stop stop-color="gray" stop-opacity=".25"/><stop offset=".54" stop-color="gray" stop-opacity=".12"/><stop offset="1" stop-color="gray" stop-opacity=".1"/></linearGradient><linearGradient id="paint15_linear_204_189" x1="4247.96" y1="11849.4" x2="4820.7" y2="11849.4" gradientUnits="userSpaceOnUse"><stop stop-color="gray" stop-opacity=".25"/><stop offset=".54" stop-color="gray" stop-opacity=".12"/><stop offset="1" stop-color="gray" stop-opacity=".1"/></linearGradient><clipPath id="clip0_204_189"><path fill="#fff" transform="translate(.25 .46)" d="M0 0h203v169.258H0z"/></clipPath></defs></svg>