<svg width="224" height="132" fill="none" xmlns="http://www.w3.org/2000/svg"><path d="M175.957 11.338H0v104.958h175.957V11.338z" fill="#F2F2F2"/><path d="M187.055 1.112H11.098V106.07h175.957V1.112z" stroke="#3F3D56" stroke-opacity=".38" stroke-width="2" stroke-miterlimit="10"/><path d="M25.021 84.268h-7.264v6.946h7.264v-6.946z" fill="#6C63FF"/><path d="M35.514 84.268H28.25v6.946h7.264v-6.946z" fill="#3F3D56"/><path d="M46.007 84.268h-7.264v6.946h7.264v-6.946z" fill="#575A89"/><path d="M173.132 85.811h-29.864v1.158h29.864v-1.157zm0 3.473h-29.864v1.158h29.864v-1.158zm0 3.473h-29.864v1.158h29.864v-1.158zM95.647 23.3v8.49c5.268 0 10.417 1.493 14.798 4.291 4.38 2.799 7.794 6.776 9.81 11.43a24.43 24.43 0 011.515 14.714c-1.027 4.94-3.564 9.479-7.289 13.04l6.278 6.003c4.967-4.749 8.349-10.8 9.719-17.386a32.57 32.57 0 00-2.021-19.62c-2.688-6.205-7.24-11.508-13.08-15.24-5.84-3.73-12.706-5.722-19.73-5.722z" fill="#3F3D56"/><path d="M120.759 81.268l-6.278-6.003c-4.554 4.355-10.604 6.984-17.03 7.401-6.426.417-12.793-1.408-17.92-5.135l-5.373 6.76c6.837 4.97 15.325 7.4 23.893 6.845 8.568-.556 16.635-4.062 22.708-9.868z" fill="#575A89"/><path d="M69.01 57.257c0-6.755 2.807-13.232 7.802-18.008 4.996-4.777 11.77-7.46 18.835-7.46V23.3c-7.435 0-14.682 2.23-20.72 6.378-6.038 4.147-10.563 10.002-12.936 16.738a32.542 32.542 0 00-.293 20.81c2.182 6.796 6.54 12.765 12.46 17.066l5.374-6.761c-3.272-2.373-5.925-5.438-7.75-8.956a24.513 24.513 0 01-2.771-11.318z" fill="#6C63FF"/><path d="M134.729 46.143l-.566-.361 42.643-30.679h34.711v.527h-34.375l-42.413 30.513z" fill="#3F3D56" fill-opacity=".38"/><path d="M223.818 19.132h-29.03v.942h29.03v-.942zm0 4.002h-29.03v.941h29.03v-.941zm0 4h-29.03v.942h29.03v-.942zM190.26 122.3h-29.03v.942h29.03v-.942zm0 4.002h-29.03v.941h29.03v-.941zm0 4h-29.03v.942h29.03v-.942z" fill="#6C63FF"/><path d="M177.867 117.577h-29.062l-.082-.114-22.583-31.352.454-.3 22.5 31.239h28.773v.527z" fill="#3F3D56" fill-opacity=".38"/><path d="M89.876 60.53l1.027.703c-.815 1.109-1.985 1.664-3.51 1.664-1.413 0-2.574-.455-3.484-1.365-.91-.91-1.365-2.072-1.365-3.484 0-1.422.464-2.579 1.391-3.471.927-.902 2.097-1.352 3.51-1.352a4.9 4.9 0 011.898.377c.607.25 1.075.602 1.404 1.053l-1.014.78c-.225-.321-.546-.581-.962-.78a3.03 3.03 0 00-1.326-.3c-1.04 0-1.885.356-2.535 1.067-.641.71-.962 1.586-.962 2.626 0 1.057.316 1.94.949 2.652.633.702 1.469 1.053 2.509 1.053 1.083 0 1.907-.408 2.47-1.222zm3.627-1.962v4.095h-1.287v-9.204h2.951c.97 0 1.76.203 2.366.61.607.408.91 1.054.91 1.938 0 .658-.203 1.2-.61 1.625-.408.424-.95.693-1.626.806l2.574 4.225h-1.56l-2.34-4.095h-1.378zm0-4.017v2.938h1.482c1.439 0 2.158-.494 2.158-1.482 0-.971-.689-1.456-2.067-1.456h-1.573zm8.7-1.092l2.756 7.072h.026l2.717-7.072h2.002v9.204h-1.287v-7.696h-.026l-3.055 7.696h-.819l-3.042-7.696h-.026v7.696h-1.248v-9.204h2.002z" fill="#6C63FF"/></svg>