<svg width="250" height="181" fill="none" xmlns="http://www.w3.org/2000/svg"><path d="M149.75 48.843s-3.077-1.197-12.862 3.106c-9.784 4.303-11.013 3.754-13.541 3.096-2.529-.658-3.937-.814-6.662-4.402 0 0-1.916-9.952-3.768-11.495-1.852-1.542-9.732.879-9.732.879S93.74 42.104 91.94 30.006c0 0 1.277-9.12-.462-11.918 0 0 3.5 1.452 9.304-.891s10.429 2.515 10.429 2.515 1.461 3.626 1.312 5.787c-.148 2.161.772 2.972 3.537 1.928 0 0 1.356-1.85-.567-4.908-1.922-3.058-3.293-5.339-2.755-7.714.538-2.374 2.077-5.659 7.033-7.315 4.956-1.656 11.687-1.966 14.919-3.255 3.233-1.29 4.013-2.127 4.013-2.127s-1.992 1.915 2.699 10.008 1.699 11.608 1.699 11.608-2.493 5.693-13.493 5.24c0 0-10.6.37-4.811 4.68 0 0 3.702-.723 9.235-2.408 5.533-1.685 9.529 5.271 10.519 10.113.991 4.842 5.199 7.494 5.199 7.494z" fill="#6C63FF"/><path d="M135.497 8.25l.06-.014c.424 1.545-4.315 7.755-8.363 12.686l-.048-.035c5.714-6.96 8.682-11.448 8.351-12.636z" fill="#444053"/><path d="M127.231 20.785l.024.063c-3.235 3.943-7.302 8.646-10.559 12.13-.31.332-.619.68-.916 1.036l-.092-.073c.297-.356.608-.706.919-1.048a266.894 266.894 0 0010.624-12.108z" fill="#444053"/><path d="M115.767 33.85l.063.105c-5.926 7.09-6.318 18.1-6.342 18.197l-1.251-1.383c.026-.096 1.562-9.78 7.53-16.92z" fill="#444053"/><path d="M142.876 44.997s-6.998-3.482-12.432-2.233c-5.435 1.25-17.715-4.414-17.715-4.414s-5.207-2.029-6.252-4.339c0 0-3.572-3.617-3.775-5.491-.203-1.874-3.68-6.582-5.949-6.764m45.113 26.592s-3.526-2.272-3.11-4.92m-2.29 7.856s-5.03-1.752-5.537-8.616m-2.583 10.393s-4.811-3.825-3.212-10.506m-6.546 8.637s-3.204-6.437-.355-10.624m24.726.186s-3.641 1.107-2.86 2.934m-1.54-9.266s-4.87 1.482-4.986 8.084m-1.794-9.608s-4.43 5.24-4.104 10.008m-3.663-7.952s-4.403 4.033-3.841 6.277m1.185-7.702s-4.128.71-4.706-.589m-.658-4.188s2.086 2.647 2.624 2.054m18.054-3.728s-10.406.719-12.764-2.283m-10.103-9.384s4.883 10.046 8.428 11.318m-3.306-16.104s3 9.241 6.716 12.125" stroke="#444053" stroke-miterlimit="10"/><path d="M141.05 19.452s-7.914 3.255-12.667-.037m-2.408-10.76s1.809 6.793 4.245 8.434m9.634-5.246s-4.446 1.614-6.108.377" stroke="#444053" stroke-width=".75" stroke-miterlimit="10"/><path d="M112.182 30.972s0 5.92-1.682 6.342m-12.067 1.329s6.679.55 9.76-2.754m2.266-11.911s-1.616 6.004-6.075 7.622m-9.958.718s4.728 1.576 8.794-2.436m1.982-11.067s-.438 5.1-3.34 7.486m-7.261-1.755s3.924.027 4.842-1.2" stroke="#444053" stroke-miterlimit="10"/><path d="M221.786 31.496H19.416c-1.509 0-2.732 1.172-2.732 2.618v107.599c0 1.446 1.223 2.618 2.732 2.618h202.37c1.509 0 2.732-1.172 2.732-2.618v-107.6c0-1.445-1.223-2.617-2.732-2.617z" fill="url(#paint0_linear_204_114)"/><path d="M221.48 33.083H19.746c-1.509 0-2.732 1.172-2.732 2.618v105.637c0 1.446 1.223 2.618 2.732 2.618H221.48c1.508 0 2.731-1.172 2.731-2.618V35.701c0-1.446-1.223-2.618-2.731-2.618z" fill="#fff"/><path d="M221.48 33.083H19.746c-1.509 0-2.732 1.172-2.732 2.618v105.637c0 1.446 1.223 2.618 2.732 2.618H221.48c1.508 0 2.731-1.172 2.731-2.618V35.701c0-1.446-1.223-2.618-2.731-2.618z" fill="#fff"/><path opacity=".04" d="M221.48 33.083H19.746c-1.509 0-2.732 1.172-2.732 2.618v105.637c0 1.446 1.223 2.618 2.732 2.618H221.48c1.508 0 2.731-1.172 2.731-2.618V35.701c0-1.446-1.223-2.618-2.731-2.618z" fill="#5A5773"/><path d="M223.16 31.81H18.058c-.28 0-.547.107-.744.296a.987.987 0 00-.308.712v4.264h207.197v-4.255a.97.97 0 00-.077-.387 1.005 1.005 0 00-.225-.328 1.088 1.088 0 00-.741-.301z" fill="#5A5773"/><path d="M21.152 35.807c.785 0 1.422-.61 1.422-1.362 0-.752-.637-1.362-1.422-1.362-.785 0-1.421.61-1.421 1.362 0 .752.636 1.362 1.421 1.362zm3.828 0c.785 0 1.42-.61 1.42-1.362 0-.752-.635-1.362-1.42-1.362-.786 0-1.422.61-1.422 1.362 0 .752.636 1.362 1.421 1.362zm3.826 0c.786 0 1.422-.61 1.422-1.362 0-.752-.636-1.362-1.422-1.362-.785 0-1.421.61-1.421 1.362 0 .752.636 1.362 1.421 1.362zm172.62 25.82H33.113c-1.231 0-2.229.956-2.229 2.135v78.056c0 1.18.998 2.136 2.229 2.136h168.313c1.23 0 2.228-.956 2.228-2.136V63.762c0-1.18-.998-2.136-2.228-2.136z" fill="#fff"/><path opacity=".2" d="M72.41 42.676H24.402c-.466 0-.844.362-.844.81v3.38c0 .447.378.809.844.809H72.41c.466 0 .844-.362.844-.81v-3.38c0-.447-.378-.809-.844-.809z" fill="#5A5773"/><path opacity=".2" d="M166.121 71.182h-48.008c-.466 0-.844.362-.844.81v3.38c0 .447.378.809.844.809h48.008c.467 0 .845-.362.845-.81v-3.38c0-.447-.378-.809-.845-.809zm27.904 13.998h-75.912c-.466 0-.844.362-.844.808v3.381c0 .447.378.81.844.81h75.912c.466 0 .844-.363.844-.81v-3.38c0-.447-.378-.81-.844-.81zm0 8.174h-75.912c-.466 0-.844.362-.844.809v3.38c0 .447.378.81.844.81h75.912c.466 0 .844-.363.844-.81v-3.38c0-.447-.378-.81-.844-.81zm0 8.174h-75.912c-.466 0-.844.363-.844.809v3.381c0 .447.378.809.844.809h75.912c.466 0 .844-.362.844-.809v-3.381c0-.446-.378-.809-.844-.809zm0 8.175h-75.912c-.466 0-.844.362-.844.809v3.381c0 .446.378.809.844.809h75.912c.466 0 .844-.363.844-.809v-3.381c0-.447-.378-.809-.844-.809zm0 9.013H41.095c-.466 0-.844.362-.844.809v3.38c0 .447.378.81.844.81h152.93c.466 0 .844-.363.844-.81v-3.38c0-.447-.378-.809-.844-.809zm0 8.174H41.095c-.466 0-.844.362-.844.809v3.381c0 .447.378.809.844.809h152.93c.466 0 .844-.362.844-.809v-3.381c0-.447-.378-.809-.844-.809zm0 8.175H41.095c-.466 0-.844.362-.844.809v3.381c0 .446.378.809.844.809h152.93c.466 0 .844-.363.844-.809v-3.381c0-.447-.378-.809-.844-.809z" fill="#6C63FF"/><path opacity=".1" d="M223.133 99.722c.149-.363-.24-.721-.291-1.111a.683.683 0 00-.065.35c.026.295.253.57.312.838a.472.472 0 00.044-.078zm6.719 4.179c-.145-.612-.101-1.258-.25-1.872-.148-.614-.603-1.257-1.224-1.257-.267 0-.58.092-.772-.099-.119-.115-.14-.298-.219-.44-.437-.688-1.793-.338-2.347.015-.826.526-1.968 1.63-3.026 1.379a3.616 3.616 0 00-.138.36c1.093.323 2.257-.821 3.103-1.362.553-.352 1.903-.7 2.347-.013.087.141.111.323.218.44.193.191.506.093.772.097.621.01 1.076.641 1.225 1.257.149.616.103 1.283.258 1.903a.993.993 0 01.053-.408zm3.044-.728c-.11.308-.398.591-.711.529-.313-.063-.464-.403-.695-.617a.986.986 0 00-1.094-.146 1.072 1.072 0 00-.402.4 1.021 1.021 0 00-.136.541 1.02 1.02 0 01.477-.562.985.985 0 011.093.145c.232.209.392.555.698.616.306.061.599-.22.709-.528.059-.181.096-.369.111-.558a1.265 1.265 0 01-.05.18zm.953-2.645c-.218.575-.64 1.071-.778 1.677a4.14 4.14 0 00-.059.373c.14-.604.549-1.098.776-1.677.102-.258.164-.529.186-.804a2.83 2.83 0 01-.125.431z" fill="#000"/><path d="M204.592 114.578c.028 0 .051-.021.051-.048s-.023-.048-.051-.048a.05.05 0 00-.05.048.05.05 0 00.05.048z" fill="#E6E8EC"/><path d="M223.877 115.612h-36.732c-.799 0-1.446.62-1.446 1.385v40.873c0 .765.647 1.385 1.446 1.385h36.732c.798 0 1.445-.62 1.445-1.385v-40.873c0-.765-.647-1.385-1.445-1.385z" fill="#fff"/><path opacity=".1" d="M223.877 115.612h-36.732c-.799 0-1.446.62-1.446 1.385v40.873c0 .765.647 1.385 1.446 1.385h36.732c.798 0 1.445-.62 1.445-1.385v-40.873c0-.765-.647-1.385-1.445-1.385z" fill="#5A5773"/><path d="M221.856 117.838h-32.69c-.799 0-1.446.62-1.446 1.385v36.421c0 .765.647 1.385 1.446 1.385h32.69c.799 0 1.446-.62 1.446-1.385v-36.421c0-.765-.647-1.385-1.446-1.385z" fill="#fff"/><path d="M215.988 125.698h-21.773c-.728 0-1.319.565-1.319 1.263v5.546c0 .698.591 1.264 1.319 1.264h21.773c.729 0 1.319-.566 1.319-1.264v-5.546c0-.698-.59-1.263-1.319-1.263zm.425 11.027h-22.62v1.647h22.62v-1.647zm4.66 3.477h-31.125v1.648h31.125v-1.648zm0 3.66h-31.125v1.647h31.125v-1.647zm0 3.659h-31.125v1.648h31.125v-1.648z" fill="#6C63FF"/><path d="M91.852 101.185H1.446c-.799 0-1.446.62-1.446 1.385v40.873c0 .765.647 1.385 1.446 1.385h90.406c.799 0 1.446-.62 1.446-1.385V102.57c0-.765-.647-1.385-1.446-1.385z" fill="#fff"/><path opacity=".1" d="M91.852 101.185H1.446c-.799 0-1.446.62-1.446 1.385v40.873c0 .765.647 1.385 1.446 1.385h90.406c.799 0 1.446-.62 1.446-1.385V102.57c0-.765-.647-1.385-1.446-1.385z" fill="#5A5773"/><path d="M87.091 103.411H6.204c-.798 0-1.445.62-1.445 1.385v36.421c0 .765.647 1.385 1.445 1.385h80.887c.799 0 1.446-.62 1.446-1.385v-36.421c0-.765-.647-1.385-1.446-1.385z" fill="#fff"/><path d="M73.108 111.273H18.27c-.728 0-1.319.566-1.319 1.264v5.545c0 .698.59 1.264 1.319 1.264h54.838c.728 0 1.319-.566 1.319-1.264v-5.545c0-.698-.59-1.264-1.32-1.264zm-.79 11.025H19.06v1.647h53.26v-1.647zm10.972 3.477H10.005v1.648H83.29v-1.648zm0 3.66H10.005v1.647H83.29v-1.647zm0 3.659H10.005v1.648H83.29v-1.648z" fill="#6C63FF"/><path opacity=".1" d="M44 101.807a.512.512 0 01-.114-.21.692.692 0 010-.251 3.432 3.432 0 00-.132-1.396l.022-.023c.219.533.299 1.108.234 1.677-.01.067-.013.135-.01.203z" fill="#000"/><defs><linearGradient id="paint0_linear_204_114" x1="120.602" y1="144.331" x2="120.602" y2="31.496" gradientUnits="userSpaceOnUse"><stop stop-color="gray" stop-opacity=".25"/><stop offset=".54" stop-color="gray" stop-opacity=".12"/><stop offset="1" stop-color="gray" stop-opacity=".1"/></linearGradient></defs></svg>