<svg width="165" height="122" fill="none" xmlns="http://www.w3.org/2000/svg"><g clip-path="url(#clip0_204_13)"><path d="M119.401.224L3.486 36.124a4.936 4.936 0 00-3.261 6.182l20.853 66.891c.812 2.605 3.589 4.06 6.202 3.251l115.915-35.9a4.935 4.935 0 003.261-6.182L125.603 3.475c-.812-2.605-3.589-4.06-6.202-3.251z" fill="url(#paint0_linear_204_13)"/><path d="M118.801 1.28L5.444 36.388a4.936 4.936 0 00-3.262 6.182l20.011 64.189a4.958 4.958 0 006.203 3.251l113.356-35.107a4.936 4.936 0 003.262-6.183L125.003 4.531c-.812-2.605-3.589-4.06-6.202-3.25z" fill="#fff"/><path d="M126.557 9.517L3.737 47.556l3.291 10.558 122.821-38.04-3.292-10.557z" fill="#6C63FF"/><path d="M60.334 85.1l-31.207 9.664 1.424 4.566 31.206-9.665-1.423-4.566z" fill="#BDBDBD"/><path d="M80.835 70.301L26.725 87.06l1.424 4.565 54.11-16.758-1.424-4.566z" fill="#E0E0E0"/><path d="M160.045 41.998H37.923c-2.737 0-4.955 2.21-4.955 4.939v70.124c0 2.728 2.218 4.939 4.955 4.939h122.122c2.737 0 4.955-2.211 4.955-4.939V46.937a4.947 4.947 0 00-4.955-4.94z" fill="url(#paint1_linear_204_13)"/><path d="M158.125 42.813H39.422a4.947 4.947 0 00-4.955 4.94v67.216c0 2.728 2.218 4.939 4.955 4.939h118.703c2.736 0 4.955-2.211 4.955-4.939V47.752c0-2.727-2.219-4.939-4.955-4.939z" fill="#fff"/><path d="M68.8 80.24h-3.748v10.608h3.747V80.24zm4.796 0H69.85v10.608h3.747V80.24zm4.797 0h-3.748v10.608h3.748V80.24zm8.394 0H83.04v10.608h3.747V80.24zm4.797 0h-3.748v10.608h3.748V80.24zm4.796 0h-3.747v10.608h3.748V80.24zm8.395 0h-3.747v10.608h3.747V80.24zm4.797 0h-3.748v10.608h3.748V80.24zm4.797 0h-3.748v10.608h3.748V80.24zm8.394 0h-3.748v10.608h3.748V80.24zm4.797 0h-3.748v10.608h3.748V80.24zm4.797 0h-3.748v10.608h3.748V80.24z" fill="#E0E0E0"/><path d="M64.993 63.011H42.65v12.213h22.344V63.011z" fill="#6C63FF"/><path opacity=".1" d="M143.197 103.063h-13.695v13.65h13.695v-13.65z" fill="#6C63FF"/><path opacity=".1" d="M150.044 103.063h-13.695v13.65h13.695v-13.65z" fill="#6C63FF"/></g><defs><linearGradient id="paint0_linear_204_13" x1="73.587" y1="112.881" x2="74.083" y2="-.205" gradientUnits="userSpaceOnUse"><stop stop-color="gray" stop-opacity=".25"/><stop offset=".535" stop-color="gray" stop-opacity=".12"/><stop offset="1" stop-color="gray" stop-opacity=".1"/></linearGradient><linearGradient id="paint1_linear_204_13" x1="72561.3" y1="54385.7" x2="72561.3" y2="18749.4" gradientUnits="userSpaceOnUse"><stop stop-color="gray" stop-opacity=".25"/><stop offset=".535" stop-color="gray" stop-opacity=".12"/><stop offset="1" stop-color="gray" stop-opacity=".1"/></linearGradient><clipPath id="clip0_204_13"><path fill="#fff" d="M0 0h165v122H0z"/></clipPath></defs></svg>