<svg width="276" height="168" fill="none" xmlns="http://www.w3.org/2000/svg"><g clip-path="url(#clip0_204_97)"><path d="M137.286 90.378H50.321V161h86.965V90.378z" fill="#F2F2F2"/><path d="M123.731 151.618H35.823V80.093h87.908v71.525zm-86.964-.903h86.02v-69.72h-86.02v69.72z" fill="#3F3D56" fill-opacity=".38"/><path d="M92.033 61.484l-1.782 2.014c-.161.17-.358.305-.577.398a1.784 1.784 0 01-1.39 0 1.716 1.716 0 01-.576-.398l-1.783-2.014V47.493h6.108v13.991z" fill="#6C63FF"/><path d="M98.698 36.14h-3.281a7.198 7.198 0 001.367-4.218c0-4.12-3.495-11.353-7.805-11.353s-7.804 7.233-7.804 11.353a7.199 7.199 0 001.367 4.217H79.26a2.564 2.564 0 00-1.764.701 2.343 2.343 0 00-.733 1.686v1.714c.002.632.266 1.238.733 1.686a2.56 2.56 0 001.764.7h19.437a2.563 2.563 0 001.763-.7 2.343 2.343 0 00.734-1.686v-1.714a2.343 2.343 0 00-.734-1.686 2.563 2.563 0 00-1.763-.7z" fill="#3F3D56"/><path d="M88.98 66a2.71 2.71 0 01-1.18-.264 2.586 2.586 0 01-.927-.743l-2.724-3.472V37.522h9.66v23.999l-2.723 3.472a2.587 2.587 0 01-.928.743 2.71 2.71 0 01-1.179.263zm-4.332-4.639l2.624 3.345c.199.253.456.459.753.6a2.214 2.214 0 001.908 0c.297-.141.554-.347.753-.6l2.624-3.345V38h-8.662v23.36z" fill="#3F3D56" fill-opacity=".38"/><path d="M91.976 73.802a2.8 2.8 0 01-.878 2.025 3.068 3.068 0 01-2.119.84 3.068 3.068 0 01-2.118-.84 2.803 2.803 0 01-.878-2.025c0-1.582 2.996-4.775 2.996-4.775s2.997 3.193 2.997 4.775z" fill="#6C63FF"/><path opacity=".2" d="M123.687 90.511c-.034 8.779-3.706 17.186-10.212 23.382-6.505 6.195-15.313 9.674-24.496 9.674-9.182 0-17.99-3.479-24.496-9.674-6.505-6.196-10.177-14.603-10.212-23.382h69.416z" fill="#6C63FF"/><path d="M117.692 90.378c-.028 7.262-3.066 14.218-8.448 19.343-5.381 5.126-12.668 8.004-20.265 8.004-7.597 0-14.884-2.878-20.265-8.004-5.382-5.125-8.42-12.081-8.448-19.343h57.426z" fill="#6C63FF"/><path d="M66.99 15.803c4.413 0 7.99-3.42 7.99-7.639 0-4.218-3.577-7.638-7.99-7.638S59 3.946 59 8.164c0 4.22 3.577 7.64 7.99 7.64z" fill="#FBBC05"/><path d="M88.98 15.317c4.412 0 7.99-3.42 7.99-7.639S93.391.04 88.98.04c-4.414 0-7.991 3.42-7.991 7.64 0 4.218 3.577 7.638 7.99 7.638z" fill="#6C63FF"/><path d="M111.452 15.317c4.413 0 7.99-3.42 7.99-7.639S115.865.04 111.452.04s-7.99 3.42-7.99 7.64c0 4.218 3.577 7.638 7.99 7.638z" fill="#F2F2F2"/><path d="M147.303 160.567c1.707 0 2.853-.224 3.437-.673.898-.697 1.684-1.853 2.358-3.471h-.034l16.846-43.731c1.258 0 2.471-.191 3.639-.573 1.168-.382 1.898-.674 2.19-.876l15.565 41.71c1.213 3.526 2.55 5.874 4.009 7.042.45.359.865.539 1.247.539 1.123 0 2.022-.214 2.695-.64l-.741 4.346h-20.046l.505-3.706c3.796.067 5.851-.652 6.166-2.157.112-.449.112-.943 0-1.482l-4.313-11.421h-17.991l-4.313 12.331c-.426 1.033-.179 1.853.742 2.459.247.18.707.27 1.381.27.696 0 1.292-.023 1.786-.068 1.213-.067 2.111-.213 2.695-.438l-.539 4.212h-17.722l.438-3.673zm31.973-19.237l-7.749-20.586-7.243 20.586h14.992zm45.33.795l-.406 13.482c0 1.811.55 3.115 1.651 3.91.761.559 1.735.838 2.92.838-.068.863-.415 1.642-1.042 2.336-1.1 1.219-1.997 1.921-2.691 2.107-1.049 0-2.04-.355-2.971-1.066-.914-.711-1.625-1.752-2.132-3.123-1.93 1.828-4.291 3.123-7.084 3.885-.779.22-1.693.33-2.743.33-1.032 0-2.141-.195-3.326-.584-1.168-.407-2.15-.974-2.945-1.701-1.608-1.473-2.412-3.479-2.412-6.018 0-3.081 1.726-5.476 5.179-7.186 3.217-1.591 7.448-2.386 12.696-2.386h.279c0-1.067-.017-2.108-.051-3.123l-.025-1.016c-.085-2.048-.821-3.605-2.209-4.672-1.1-.846-2.454-1.269-4.063-1.269-1.608 0-2.903.431-3.884 1.295-.982.846-1.473 2.073-1.473 3.681 0 .593.068 1.227.203 1.905h-4.545l-.178-.051c-.05-.271-.101-.559-.152-.864a30.28 30.28 0 01-.381-2.259c-.084-.796-.127-1.321-.127-1.575 0-.372.068-.643.203-.812 4.385-3.098 8.676-4.647 12.874-4.647 4.096 0 6.796 1.49 8.099 4.469.491 1.1.736 2.472.736 4.114zm-5.306 14.472c.118-2.133.203-4.418.254-6.855-.186-.068-.754-.102-1.701-.102-.931 0-2.116.152-3.555.457-1.422.288-2.666.711-3.733 1.27-2.268 1.202-3.402 2.81-3.402 4.824 0 1.405.457 2.581 1.371 3.529.931.948 2.133 1.422 3.606 1.422 1.828 0 3.707-.821 5.636-2.463a11.88 11.88 0 001.524-1.549v-.533z" fill="#D0CDE1"/></g><defs><clipPath id="clip0_204_97"><path fill="#fff" transform="translate(0 .04)" d="M0 0h276v167.268H0z"/></clipPath></defs></svg>