<svg width="285" height="169" fill="none" xmlns="http://www.w3.org/2000/svg"><g clip-path="url(#clip0_258_2)"><path d="M181.477 46.093H34.475c-3.643 0-6.596 2.832-6.596 6.326v94.949c0 3.494 2.953 6.326 6.596 6.326h147.002c3.643 0 6.596-2.832 6.596-6.326V52.42c0-3.495-2.953-6.327-6.596-6.327z" fill="#F2F2F2"/><path d="M163.444 68.848H58.21c-1.515 0-2.743 1.178-2.743 2.63v3.559c0 1.453 1.228 2.63 2.743 2.63h105.234c1.515 0 2.743-1.177 2.743-2.63v-3.558c0-1.453-1.228-2.631-2.743-2.631z" fill="#fff"/><path d="M186.443 41.507H39.441c-3.643 0-6.596 2.832-6.596 6.326v94.948c0 3.494 2.953 6.327 6.596 6.327h147.002c3.643 0 6.596-2.833 6.596-6.327V47.833c0-3.494-2.953-6.326-6.596-6.326zm-153.506 8.29H193.13" stroke="#3F3D56" stroke-opacity=".38" stroke-miterlimit="10"/><path d="M38.363 48.474c1.218 0 2.207-.947 2.207-2.116 0-1.17-.989-2.117-2.207-2.117-1.22 0-2.207.948-2.207 2.117s.988 2.116 2.207 2.116zm6.253.089c1.219 0 2.207-.948 2.207-2.117 0-1.17-.988-2.117-2.207-2.117-1.22 0-2.207.948-2.207 2.117s.988 2.117 2.207 2.117zm6.253.087c1.219 0 2.207-.947 2.207-2.116s-.988-2.117-2.207-2.117c-1.219 0-2.207.948-2.207 2.117 0 1.17.988 2.117 2.207 2.117z" fill="#6C63FF"/><path d="M38.914 47.769c1.22 0 2.207-.948 2.207-2.117s-.988-2.117-2.207-2.117c-1.219 0-2.207.948-2.207 2.117 0 1.17.988 2.117 2.207 2.117zm6.253.088c1.22 0 2.207-.948 2.207-2.117s-.988-2.117-2.207-2.117c-1.218 0-2.207.948-2.207 2.117 0 1.17.989 2.117 2.207 2.117zm6.253.088c1.22 0 2.208-.947 2.208-2.117 0-1.169-.988-2.116-2.207-2.116-1.22 0-2.207.947-2.207 2.116 0 1.17.988 2.117 2.207 2.117zm114.047 19.139H60.233c-1.515 0-2.743 1.178-2.743 2.631v3.558c0 1.453 1.228 2.63 2.743 2.63h105.234c1.515 0 2.743-1.177 2.743-2.63v-3.558c0-1.453-1.228-2.63-2.743-2.63z" stroke="#3F3D56" stroke-opacity=".38" stroke-miterlimit="10"/><path d="M161.613 71.605c.812 0 1.471-.632 1.471-1.412 0-.779-.659-1.41-1.471-1.41-.813 0-1.472.631-1.472 1.41 0 .78.659 1.412 1.472 1.412zm1.086-.333l2.555 2.538" stroke="#3F3D56" stroke-opacity=".38" stroke-miterlimit="10"/><path d="M78.457 70.965H61.904c-.914 0-1.655.71-1.655 1.587s.741 1.588 1.655 1.588h16.553c.914 0 1.655-.71 1.655-1.588 0-.877-.74-1.587-1.655-1.587z" fill="#6C63FF"/><path d="M62.456 70.083H79.01c.914 0 1.655.71 1.655 1.587v0c0 .877-.74 1.588-1.655 1.588H62.456c-.914 0-1.655-.71-1.655-1.588v0c0-.877.74-1.587 1.655-1.587z" stroke="#3F3D56" stroke-opacity=".38" stroke-miterlimit="10"/><path d="M71.284 89.839H54.731c-.914 0-1.655.71-1.655 1.588 0 .876.741 1.587 1.655 1.587h16.553c.914 0 1.655-.71 1.655-1.587s-.74-1.588-1.655-1.588z" fill="#6C63FF"/><path d="M71.284 99.894H54.731c-.914 0-1.655.71-1.655 1.587s.741 1.588 1.655 1.588h16.553c.914 0 1.655-.711 1.655-1.588 0-.877-.74-1.587-1.655-1.587zm0 10.054H54.731c-.914 0-1.655.711-1.655 1.588 0 .876.741 1.587 1.655 1.587h16.553c.914 0 1.655-.711 1.655-1.587 0-.877-.74-1.588-1.655-1.588zm0 10.054H54.731c-.914 0-1.655.711-1.655 1.588 0 .877.741 1.588 1.655 1.588h16.553c.914 0 1.655-.711 1.655-1.588 0-.877-.74-1.588-1.655-1.588zm0 10.055H54.731c-.914 0-1.655.711-1.655 1.588 0 .876.741 1.587 1.655 1.587h16.553c.914 0 1.655-.711 1.655-1.587 0-.877-.74-1.588-1.655-1.588z" fill="#fff"/><path d="M55.65 88.78h16.554c.914 0 1.655.711 1.655 1.588v0c0 .877-.741 1.588-1.655 1.588H55.65c-.914 0-1.655-.711-1.655-1.588v0c0-.877.74-1.587 1.655-1.587zm16.554 10.055H55.65c-.914 0-1.655.711-1.655 1.588 0 .877.74 1.587 1.655 1.587h16.553c.914 0 1.655-.71 1.655-1.587s-.741-1.588-1.655-1.588zm0 10.055H55.65c-.914 0-1.655.71-1.655 1.587s.74 1.588 1.655 1.588h16.553c.914 0 1.655-.711 1.655-1.588 0-.877-.741-1.587-1.655-1.587zM55.65 118.944h16.554c.914 0 1.655.711 1.655 1.588v0c0 .876-.741 1.587-1.655 1.587H55.65c-.914 0-1.655-.711-1.655-1.587v0c0-.877.74-1.588 1.655-1.588zm0 10.055h16.554c.914 0 1.655.71 1.655 1.587v0c0 .877-.741 1.588-1.655 1.588H55.65c-.914 0-1.655-.711-1.655-1.588v0c0-.877.74-1.587 1.655-1.587z" stroke="#3F3D56" stroke-opacity=".38" stroke-miterlimit="10"/><path d="M169.931 89.839h-8.592c-.471 0-.854.367-.854.819v1.537c0 .453.383.82.854.82h8.592c.472 0 .854-.368.854-.82v-1.537c0-.452-.382-.819-.854-.819z" fill="#57B894"/><path d="M169.931 99.894h-8.592c-.471 0-.854.366-.854.818v1.538c0 .452.383.819.854.819h8.592c.472 0 .854-.367.854-.819v-1.538c0-.452-.382-.818-.854-.818zm0 10.054h-8.592c-.471 0-.854.367-.854.819v1.537c0 .452.383.819.854.819h8.592c.472 0 .854-.367.854-.819v-1.537c0-.452-.382-.819-.854-.819zm0 10.054h-8.592c-.471 0-.854.367-.854.819v1.538c0 .452.383.819.854.819h8.592c.472 0 .854-.367.854-.819v-1.538c0-.452-.382-.819-.854-.819zm0 10.055h-8.592c-.471 0-.854.367-.854.819v1.537c0 .452.383.819.854.819h8.592c.472 0 .854-.367.854-.819v-1.537c0-.452-.382-.819-.854-.819z" fill="#fff"/><path d="M170.851 88.78h-8.592c-.472 0-.854.367-.854.82v1.537c0 .452.382.819.854.819h8.592c.471 0 .854-.367.854-.82V89.6c0-.453-.383-.82-.854-.82zm0 10.055h-8.592c-.472 0-.854.367-.854.82v1.536c0 .453.382.819.854.819h8.592c.471 0 .854-.366.854-.819v-1.537c0-.452-.383-.819-.854-.819zm0 10.055h-8.592c-.472 0-.854.366-.854.818v1.538c0 .452.382.819.854.819h8.592c.471 0 .854-.367.854-.819v-1.538c0-.452-.383-.818-.854-.818zm0 10.054h-8.592c-.472 0-.854.367-.854.819v1.537c0 .453.382.819.854.819h8.592c.471 0 .854-.366.854-.819v-1.537c0-.452-.383-.819-.854-.819zm0 10.055h-8.592c-.472 0-.854.366-.854.819v1.537c0 .452.382.819.854.819h8.592c.471 0 .854-.367.854-.819v-1.537c0-.453-.383-.819-.854-.819z" stroke="#3F3D56" stroke-opacity=".38" stroke-miterlimit="10"/></g><path opacity=".7" d="M153.816 102.905h-32.398c-2.726 0-4.935 2.108-4.935 4.708v26.328c0 2.6 2.209 4.708 4.935 4.708h32.398c2.725 0 4.935-2.108 4.935-4.708v-26.328c0-2.6-2.21-4.708-4.935-4.708z" fill="url(#paint0_linear_258_2)"/><path d="M153.032 103.567h-30.833c-2.725 0-4.935 2.108-4.935 4.708v25.004c0 2.6 2.21 4.708 4.935 4.708h30.833c2.725 0 4.935-2.108 4.935-4.708v-25.004c0-2.6-2.21-4.708-4.935-4.708z" fill="#E0E0E0"/><path d="M129.852 135.545v-2.584a.256.256 0 00-.19-.252.297.297 0 00-.115-.008 3.008 3.008 0 00-1.117.236v2.601h-.763v-4.783h.76v1.58a3.784 3.784 0 011.224-.237c.694 0 .95.406.95.962v2.483h-.754l.005.002zm2.176-1.562c.026.865.204 1.035.761 1.035.451-.02.896-.114 1.314-.278l.127.545a3.71 3.71 0 01-1.49.344c-1.269 0-1.466-.662-1.466-1.726a5.487 5.487 0 01.19-1.591 4.547 4.547 0 011.529-.22c1.04 0 1.357.551 1.357 1.513v.369h-2.313l-.009.009zm.965-1.278a5.286 5.286 0 00-.889.06 3.732 3.732 0 00-.083.715h1.587c0-.503-.095-.775-.615-.775zm2.775.236v2.602h-.761v-2.928a4.543 4.543 0 011.764-.466v.605a3.37 3.37 0 00-1.001.187h-.002zm3.006 2.688c-1.135 0-1.649-.532-1.649-1.75 0-1.289.678-1.778 1.649-1.778 1.136 0 1.649.531 1.649 1.749 0 1.289-.68 1.779-1.649 1.779zm0-2.924c-.583 0-.906.32-.906 1.174 0 .931.272 1.139.906 1.139.583 0 .907-.316.907-1.168 0-.931-.273-1.143-.907-1.143v-.002zm5.319 2.838h-.895a4.696 4.696 0 00-.95-1.545h-.4v1.545h-.745v-4.788h.761v2.747h.356a4.41 4.41 0 00.895-1.324h.856a5.693 5.693 0 01-1.085 1.465c.479.587.889 1.222 1.223 1.893l-.016.007zm1.427.084c-.694 0-.95-.406-.95-.962v-2.478h.754v2.572a.252.252 0 00.021.109.268.268 0 00.169.143.278.278 0 00.115.009c.398-.007.79-.087 1.156-.236v-2.597h.77v2.917a4.193 4.193 0 01-2.019.525l-.016-.002zm-.335-6.092h-15.164c-.309 0-.615-.057-.9-.17a2.356 2.356 0 01-.764-.485 2.257 2.257 0 01-.511-.727 2.153 2.153 0 01-.179-.858v-19.031c0-.294.06-.586.178-.858s.292-.519.51-.727c.218-.208.477-.373.762-.486.285-.112.591-.17.899-.17h15.178c.309-.002.616.056.902.168.287.112.547.277.766.485.22.208.394.456.513.728.119.273.18.565.18.86v19.031c0 .295-.061.586-.179.858-.118.273-.291.52-.51.728a2.36 2.36 0 01-.763.486c-.285.112-.591.17-.9.17l-.018-.002z" fill="#6762A6"/><path d="M140.129 126.302v-9.338s.636-2.235-7.842.914c-.016.04-.016-8.636-.016-8.636l2.775-.016v5.558s7.757-2.914 7.757 2.207v9.307h-2.674v.004zm1.58-13.713h-2.942c1.057-1.233 2.015-3.347 2.015-3.347h3.038s-.52 1.377-2.116 3.347h.005zm-9.387 13.695v-5.317l2.787 2.659-2.787 2.658z" fill="#fff"/><path opacity=".7" d="M280.065 85.695h-32.398c-2.726 0-4.935 2.108-4.935 4.708v26.327c0 2.601 2.209 4.709 4.935 4.709h32.398c2.725 0 4.935-2.108 4.935-4.709V90.403c0-2.6-2.21-4.709-4.935-4.709z" fill="url(#paint1_linear_258_2)"/><path d="M279.281 86.356h-30.832c-2.726 0-4.936 2.108-4.936 4.709v25.003c0 2.601 2.21 4.709 4.936 4.709h30.832c2.725 0 4.935-2.108 4.935-4.709V91.065c0-2.6-2.21-4.709-4.935-4.709z" fill="#E0E0E0"/><path d="M256.598 100.968c-.008.317.033.634.123.939.098.262.216.517.354.762a.44.44 0 01.078.242.404.404 0 01-.065.183.437.437 0 01-.145.135l-.694.441a.547.547 0 01-.289.095.517.517 0 01-.333-.148 3.315 3.315 0 01-.398-.496 5.307 5.307 0 01-.342-.624c-.39.463-.887.836-1.451 1.089a4.264 4.264 0 01-1.805.369c-.925 0-1.672-.254-2.216-.761a2.905 2.905 0 01-.817-2.14 2.923 2.923 0 011.005-2.066c.675-.55 1.572-.825 2.712-.825.394.003.786.03 1.175.084.41.053.83.137 1.274.232v-.773c0-.803-.178-1.363-.52-1.69-.342-.326-.953-.485-1.806-.485-.403 0-.804.046-1.196.137a9.12 9.12 0 00-1.195.36 3.317 3.317 0 01-.389.136.702.702 0 01-.178.031c-.155 0-.231-.106-.231-.327v-.518a.64.64 0 01.078-.37.831.831 0 01.31-.221 6.59 6.59 0 011.388-.477 7.004 7.004 0 011.727-.2c1.319 0 2.283.284 2.903.855.62.572.925 1.437.925 2.6v3.431h.018zm-4.495 1.606a3.737 3.737 0 001.14-.19 2.48 2.48 0 001.052-.677 1.65 1.65 0 00.377-.678c.076-.301.114-.61.111-.92v-.441a9.651 9.651 0 00-1.02-.179 8.744 8.744 0 00-1.041-.064c-.742 0-1.285.137-1.651.424a1.517 1.517 0 00-.582.777c-.101.312-.092.648.024.955.116.308.333.571.62.75.286.18.625.266.967.245l.003-.002zm8.894 1.141a.643.643 0 01-.421-.106.86.86 0 01-.231-.413l-2.602-8.164a1.77 1.77 0 01-.099-.423.218.218 0 01.065-.195.252.252 0 01.201-.07h1.084a.636.636 0 01.433.106.856.856 0 01.231.412l1.85 6.997 1.728-6.997a.724.724 0 01.21-.412.789.789 0 01.444-.106h.886a.691.691 0 01.444.106c.116.111.19.256.21.412l1.751 7.081 1.917-7.08a.892.892 0 01.232-.413.746.746 0 01.432-.106h1.029a.257.257 0 01.208.066.23.23 0 01.07.199 1.45 1.45 0 01-.102.435l-2.669 8.163a.802.802 0 01-.231.413.746.746 0 01-.421.106h-.953a.698.698 0 01-.444-.106.736.736 0 01-.21-.424l-1.716-6.816-1.707 6.805a.81.81 0 01-.211.424.724.724 0 01-.444.106h-.964zm14.232.284a7.648 7.648 0 01-1.707-.19 5.212 5.212 0 01-1.274-.423.782.782 0 01-.342-.296.723.723 0 01-.067-.296v-.538c0-.221.088-.326.254-.326.068 0 .135.01.199.03.067.022.167.064.278.106.391.165.799.289 1.218.371.434.084.876.126 1.319.126a3.1 3.1 0 001.618-.349c.181-.104.329-.251.43-.428.101-.176.152-.375.146-.576a.988.988 0 00-.298-.739 2.837 2.837 0 00-1.119-.55l-1.617-.476c-.809-.243-1.406-.602-1.771-1.079a2.442 2.442 0 01-.553-1.531c-.01-.41.093-.814.298-1.174.198-.34.47-.636.798-.867.347-.25.739-.436 1.156-.55a5.048 5.048 0 011.388-.178 5.82 5.82 0 01.742.042c.255.03.488.075.72.117a4.8 4.8 0 01.631.17c.161.047.316.11.462.19a.943.943 0 01.333.264.553.553 0 01.1.349v.496c0 .22-.088.338-.255.338a1.192 1.192 0 01-.42-.126 5.281 5.281 0 00-2.128-.413 2.972 2.972 0 00-1.473.296 1.043 1.043 0 00-.399.4.982.982 0 00-.122.54c-.003.14.026.28.083.409.057.13.143.245.25.341.36.272.775.47 1.219.58l1.573.477c.798.243 1.374.58 1.716 1.015.338.425.517.947.509 1.481.005.424-.094.845-.29 1.226a2.856 2.856 0 01-.809.929 3.65 3.65 0 01-1.23.592 5.504 5.504 0 01-1.584.22h.018z" fill="#252F3E"/><path d="M277.322 109.131c-3.645 2.569-8.938 3.932-13.49 3.932-6.081.03-11.954-2.107-16.47-5.992-.343-.296-.033-.698.377-.466a33.868 33.868 0 0014.313 4.115 34.112 34.112 0 0014.738-2.392c.608-.264 1.131.38.532.803z" fill="#F90"/><path d="M278.839 107.488c-.462-.572-3.078-.276-4.264-.137-.354.042-.41-.254-.088-.477 2.081-1.394 5.504-.993 5.904-.527.4.465-.111 3.751-2.061 5.295-.298.243-.587.117-.462-.2.451-1.04 1.436-3.396.971-3.954z" fill="#F90"/><path opacity=".7" d="M254.857 25.679h-32.398c-2.726 0-4.935 2.108-4.935 4.708v26.328c0 2.6 2.209 4.708 4.935 4.708h32.398c2.726 0 4.935-2.108 4.935-4.708V30.387c0-2.6-2.209-4.708-4.935-4.708z" fill="url(#paint2_linear_258_2)"/><path d="M254.073 26.34h-30.832c-2.726 0-4.935 2.109-4.935 4.71v25.003c0 2.6 2.209 4.709 4.935 4.709h30.832c2.726 0 4.935-2.109 4.935-4.71V31.05c0-2.6-2.209-4.708-4.935-4.708z" fill="#E0E0E0"/><path d="M232.993 52.516l-5.472-9.046 5.472-9.047h10.941l5.472 9.047-5.472 9.046h-10.941z" fill="#CAC9C2"/><path d="M238.652 47.602a4.412 4.412 0 01-2.369-.685 4.12 4.12 0 01-1.571-1.826 3.898 3.898 0 01-.242-2.351 4.01 4.01 0 011.167-2.084 4.33 4.33 0 012.183-1.113 4.455 4.455 0 012.464.232 4.231 4.231 0 011.914 1.498c.469.67.719 1.456.719 2.26a3.979 3.979 0 01-1.251 2.876 4.374 4.374 0 01-3.014 1.193z" fill="#fff"/><path d="M247.228 31.402a2.301 2.301 0 00-.789-.712 2.428 2.428 0 00-1.041-.296h-13.482c-.367.02-.723.121-1.041.296a2.31 2.31 0 00-.789.712l-3.931 6.51c-.039.407.046.817.245 1.18l2.666 4.349 4.76-7.846h15.046c.391.014.771.129 1.101.33l-2.738-4.525" fill="#5072AA"/><path d="M226.319 37.63l-.174.284c-.038.408.047.817.246 1.18l2.666 4.35 1.418-2.34-4.163-3.477" fill="#4D6796"/><path d="M232.263 33.741a.852.852 0 01-.458-.132.795.795 0 01-.303-.353.753.753 0 01.178-.856.861.861 0 01.898-.17c.15.06.279.16.369.29a.756.756 0 01-.102.991.845.845 0 01-.582.23zm13.482-.785a.704.704 0 01-.216.516.769.769 0 01-.537.22.794.794 0 01-.541-.207.712.712 0 01-.23-.512v-.017a.71.71 0 01.223-.514.782.782 0 01.539-.213c.202 0 .396.076.539.213a.71.71 0 01.223.514z" fill="#fff"/><path d="M253.967 42.543l-4.003-6.62a2.275 2.275 0 00-1.101-.33h-5.423l4.694 7.894-7.428 12.522c-.189.29-.452.529-.763.697h5.458c.366-.02.723-.121 1.04-.296a2.3 2.3 0 00.789-.712l6.741-11.14a2.144 2.144 0 000-2.015" fill="#CC4232"/><path d="M250.146 36.226l-.18-.298a2.273 2.273 0 00-1.101-.331h-5.426l1.413 2.374 5.294-1.747" fill="#B23F33"/><path d="M244.982 54.782a.849.849 0 01-.457-.132.797.797 0 01-.304-.353.752.752 0 01-.046-.454.77.77 0 01.225-.402.838.838 0 01.421-.215.861.861 0 01.476.045c.15.06.279.16.37.29a.763.763 0 01-.103.991.843.843 0 01-.582.23zm6.404-10.463a.855.855 0 01-.458-.132.794.794 0 01-.303-.353.753.753 0 01.179-.856.833.833 0 01.421-.215.862.862 0 01.476.045c.15.06.279.16.369.29a.757.757 0 01-.102.991.845.845 0 01-.582.23z" fill="#fff"/><path d="M233.923 51.38l-7.528-12.286a2.062 2.062 0 01-.245-1.18l-2.8 4.633a2.144 2.144 0 000 2.015l6.745 11.136c.202.292.472.536.79.71.317.175.674.276 1.04.296h8.022a2.11 2.11 0 00.764-.697l2.747-4.634h-9.535" fill="#ECB02A"/><path d="M239.482 56.706h.463c.311-.168.574-.408.763-.697l2.748-4.634h-2.921l-1.053 5.327" fill="#C79732"/><path d="M232.263 54.782a.855.855 0 01-.458-.132.795.795 0 01-.303-.353.753.753 0 01-.047-.454.777.777 0 01.225-.402.841.841 0 01.422-.215.862.862 0 01.476.045c.15.06.279.16.369.29a.757.757 0 01-.102.991.845.845 0 01-.582.23zm-6.416-10.463a.849.849 0 01-.457-.132.788.788 0 01-.303-.353.745.745 0 01-.047-.454.777.777 0 01.225-.402.859.859 0 01.897-.17c.151.06.279.16.37.29.09.128.139.28.139.435a.766.766 0 01-.242.556.842.842 0 01-.582.23z" fill="#fff"/><defs><linearGradient id="paint0_linear_258_2" x1="13195.1" y1="22371.8" x2="13195.1" y2="16581.1" gradientUnits="userSpaceOnUse"><stop stop-color="gray" stop-opacity=".25"/><stop offset=".54" stop-color="gray" stop-opacity=".12"/><stop offset="1" stop-color="gray" stop-opacity=".1"/></linearGradient><linearGradient id="paint1_linear_258_2" x1="32933.8" y1="19709.5" x2="32933.8" y2="13918.8" gradientUnits="userSpaceOnUse"><stop stop-color="gray" stop-opacity=".25"/><stop offset=".54" stop-color="gray" stop-opacity=".12"/><stop offset="1" stop-color="gray" stop-opacity=".1"/></linearGradient><linearGradient id="paint2_linear_258_2" x1="28301.4" y1="9926.92" x2="28301.4" y2="4136.3" gradientUnits="userSpaceOnUse"><stop stop-color="gray" stop-opacity=".25"/><stop offset=".54" stop-color="gray" stop-opacity=".12"/><stop offset="1" stop-color="gray" stop-opacity=".1"/></linearGradient><clipPath id="clip0_258_2"><path fill="#fff" transform="translate(0 41.405)" d="M0 0h211v127.123H0z"/></clipPath></defs></svg>