<svg width="203" height="121" fill="none" xmlns="http://www.w3.org/2000/svg"><g clip-path="url(#clip0_204_392)"><path d="M203 84.49H0v35.745h203V84.49z" fill="url(#paint0_linear_204_392)"/><path d="M201.517 85.661H1.185v32.674h200.332V85.661z" fill="#fff"/><path d="M129.945 92.33H13.49v19.445h116.455V92.33z" fill="#F5F5F5"/><path d="M175.12 93.571a10.926 10.926 0 00-5.233-2.864 11.301 11.301 0 00-6.03.262 10.799 10.799 0 00-4.938 3.306 10.015 10.015 0 00-2.298 5.314 9.84 9.84 0 001.06 5.659 10.483 10.483 0 004.088 4.229 11.196 11.196 0 005.833 1.476 11.163 11.163 0 005.753-1.741l7.795 7.722a.547.547 0 00.742.013l1.942-1.773c.05-.046.09-.1.118-.16a.486.486 0 00-.104-.547l-7.795-7.722c1.496-1.95 2.222-4.34 2.051-6.749-.17-2.409-1.227-4.684-2.984-6.425zm-2.429 12.415a7.854 7.854 0 01-3.99 1.936 8.065 8.065 0 01-4.447-.502 7.631 7.631 0 01-3.405-2.769 7.091 7.091 0 01-1.215-4.104 7.105 7.105 0 011.384-4.055 7.667 7.667 0 013.516-2.64 8.078 8.078 0 014.464-.335 7.82 7.82 0 013.907 2.083c1.417 1.404 2.191 3.286 2.151 5.233-.041 1.947-.891 3.799-2.365 5.149v.004z" fill="url(#paint1_linear_204_392)"/><path d="M161.632 98.646c-.868 0-.868 1.284 0 1.284s.866-1.284 0-1.284z" fill="url(#paint2_linear_204_392)"/><path d="M167.679 94.533a6.751 6.751 0 00-3.168.686 6.384 6.384 0 00-2.42 2.064c-.368.55.677 1.035 1.045.487.932-1.394 2.713-2.279 4.633-2.232a6.126 6.126 0 012.759.755 5.795 5.795 0 012.059 1.905c.367.579 1.334.053.966-.52-1.176-1.841-3.462-3.091-5.874-3.145z" fill="url(#paint3_linear_204_392)"/><path d="M175.12 92.443a10.926 10.926 0 00-5.233-2.865 11.302 11.302 0 00-6.03.262 10.798 10.798 0 00-4.938 3.306 10.015 10.015 0 00-2.298 5.315 9.835 9.835 0 001.06 5.658 10.479 10.479 0 004.088 4.23 11.204 11.204 0 005.833 1.475 11.162 11.162 0 005.753-1.74l7.795 7.722a.537.537 0 00.742.013l1.942-1.774a.5.5 0 00.162-.351.49.49 0 00-.148-.356l-7.792-7.726c1.494-1.95 2.219-4.339 2.048-6.747-.171-2.408-1.228-4.682-2.984-6.422zm-2.429 12.415a7.853 7.853 0 01-3.99 1.935 8.064 8.064 0 01-4.447-.501 7.631 7.631 0 01-3.405-2.769 7.091 7.091 0 01-1.215-4.104 7.105 7.105 0 011.384-4.056 7.666 7.666 0 013.516-2.64 8.077 8.077 0 014.464-.335 7.82 7.82 0 013.907 2.083c1.417 1.404 2.191 3.287 2.151 5.234-.041 1.947-.891 3.799-2.365 5.149v.004z" fill="#6C63FF"/><path d="M161.632 97.52c-.868 0-.868 1.283 0 1.283s.866-1.283 0-1.283zm6.047-4.115a6.751 6.751 0 00-3.168.686 6.383 6.383 0 00-2.42 2.063c-.368.55.677 1.035 1.045.488.932-1.395 2.713-2.28 4.633-2.233a6.126 6.126 0 012.759.756 5.793 5.793 0 012.059 1.905c.367.578 1.334.053.966-.521-1.176-1.84-3.462-3.093-5.874-3.144z" fill="#6C63FF"/><path d="M106.663 14.956H89.678v6.704h9.779c-.91 4.26-4.722 6.705-9.779 6.705-2.828-.04-5.527-1.138-7.513-3.057-1.986-1.919-3.099-4.504-3.099-7.198 0-2.694 1.114-5.28 3.1-7.199 1.985-1.919 4.684-3.016 7.512-3.056 2.448-.003 4.82.806 6.71 2.288l5.302-5.048a18.548 18.548 0 00-7.728-3.826 19.102 19.102 0 00-8.71.029c-2.858.68-5.5 2.01-7.7 3.876a17.346 17.346 0 00-4.929 6.838 16.574 16.574 0 00-1.031 8.235 16.857 16.857 0 003.102 7.75 17.962 17.962 0 006.526 5.492 18.952 18.952 0 008.458 1.979c9.113 0 17.397-6.312 17.397-17.355a13.798 13.798 0 00-.412-3.157z" fill="url(#paint4_linear_204_392)"/><path d="M71.886 26.892V9.332l12.058 8.779-12.058 8.781z" fill="#FBBC05"/><path d="M71.886 9.331l12.058 8.78 4.966-4.12 17.012-2.633V1.902H71.886v7.43z" fill="#EA4335"/><path d="M71.886 26.892l21.28-15.534 5.604.665 7.152-10.12v32.419H71.886v-7.43z" fill="#34A853"/><path d="M105.923 34.322L83.935 18.11l-2.838-2.027 24.826-6.753v24.99z" fill="#4285F4"/><path d="M50.015 41.946c9.888 0 17.443 6.968 17.443 16.091 0 9.123-7.555 16.095-17.443 16.095-9.888 0-17.431-6.97-17.431-16.095s7.543-16.091 17.43-16.091z" fill="url(#paint5_linear_204_392)"/><path d="M49.265 52.514c.04-.558.084-1.108.166-1.669H36.16v1.67c1.334.08 2.628.199 3.958.276 2.502 2.9 5.005 5.802 7.55 8.74v4.507c-1.418.12-2.838.2-4.256.32v1.454h13.103v-1.463c-1.418-.083-2.838-.12-4.256-.16l.126-4.807a821.191 821.191 0 007.304-6.207c1.25-.08 2.502-.158 3.795-.277v-1.94c-3.714.04-7.385.08-11.099.157v1.632c1.376.08 2.754.117 4.13.157-1.792 1.47-3.59 2.9-5.383 4.372-1.837-2.146-3.671-4.33-5.508-6.478 1.22-.122 2.428-.2 3.641-.284z" fill="url(#paint6_linear_204_392)"/><path d="M79.614 43.54l-10.058-.479c-.168 7.591-.336 15.22-.5 22.81 1.585.158 3.212.318 4.795.478 1.914-7.63 3.835-15.233 5.763-22.81zm-11.03 30.555h5.758v-4.567l-6.258-.477c.165 1.707.335 3.377.5 5.044z" fill="url(#paint7_linear_204_392)"/><path d="M50.643 43.609c8.869 0 15.641 6.247 15.641 14.43s-6.775 14.428-15.64 14.428c-8.866 0-15.642-6.25-15.642-14.432 0-8.183 6.773-14.426 15.641-14.426z" fill="#6B0094"/><path d="M49.97 53.089c.035-.501.075-1 .15-1.497h-11.9v1.497c1.194.07 2.356.177 3.555.248 2.245 2.6 4.489 5.203 6.77 7.837v4.028c-1.27.107-2.544.178-3.815.286v1.317h11.75v-1.317c-1.271-.073-2.544-.106-3.816-.144.04-1.423.075-2.882.112-4.31a1089.14 1089.14 0 006.55-5.558c1.12-.07 2.244-.142 3.403-.248v-1.747c-3.33.038-6.624.071-9.953.142v1.463c1.234.071 2.47.104 3.704.142-1.609 1.32-3.22 2.6-4.826 3.92-1.646-1.925-3.295-3.885-4.94-5.809a93.766 93.766 0 013.257-.25z" fill="#fff"/><path d="M77.174 45.036l-9.02-.43c-.151 6.806-.3 13.648-.45 20.457 1.42.142 2.88.284 4.303.428 1.722-6.842 3.444-13.66 5.167-20.455zm-9.88 27.4h5.165V68.34l-5.611-.427c.147 1.531.298 3.028.447 4.524z" fill="#6B0094"/><path d="M98.822 73.64l-5.947-3.968V48.759l5.984 1.745v14.062l-5.811 4.93 14.181-7.103-3.93-1.693-2.661-5.494 13.142 3.835v6.117L98.821 73.64z" fill="url(#paint8_linear_204_392)"/><path d="M123.435 67.122h-.051v1.534h-1.786V52.931l1.786.508v6.465h.044c.879-1.41 2.164-2.116 3.856-2.118 1.431 0 2.551.476 3.36 1.426.808.95 1.213 2.224 1.215 3.822 0 1.774-.454 3.196-1.362 4.268-.908 1.071-2.15 1.606-3.725 1.603a3.82 3.82 0 01-1.932-.445 3.597 3.597 0 01-1.405-1.338zm-.051-4.283v1.483c-.02.828.303 1.631.899 2.235.32.312.707.555 1.134.712a3.352 3.352 0 002.651-.145 3.162 3.162 0 001.041-.83c.621-.789.932-1.885.932-3.289 0-1.182-.288-2.109-.862-2.78a2.83 2.83 0 00-1.039-.766 2.97 2.97 0 00-1.289-.24 3.31 3.31 0 00-1.376.246 3.163 3.163 0 00-1.129.787 3.68 3.68 0 00-.962 2.587z" fill="url(#paint9_linear_204_392)"/><path d="M135.118 55.618a1.177 1.177 0 01-.817-.31 1.047 1.047 0 01-.256-.36 1.005 1.005 0 01-.081-.43 1.048 1.048 0 01.334-.79 1.15 1.15 0 01.381-.24 1.22 1.22 0 01.449-.078 1.23 1.23 0 01.45.079 1.105 1.105 0 01.637.599 1.06 1.06 0 010 .85 1.155 1.155 0 01-.64.603 1.198 1.198 0 01-.457.077zm.871 13.047h-1.786v-10.63h1.786v10.63z" fill="url(#paint10_linear_204_392)"/><path d="M148.219 68.659h-1.785v-6.06c0-2.253-.865-3.38-2.594-3.38a2.936 2.936 0 00-1.223.24 2.807 2.807 0 00-.994.72 3.443 3.443 0 00-.877 2.423v6.059h-1.786V58.035h1.786v1.773h.044c.843-1.342 2.063-2.013 3.66-2.013 1.22 0 2.151.376 2.794 1.127.642.75.965 1.835.968 3.252l.007 6.485z" fill="url(#paint11_linear_204_392)"/><path d="M160.869 67.812c0 3.9-1.962 5.85-5.884 5.85a8.228 8.228 0 01-3.627-.751l.489-1.523c1.092.514 2.095.8 3.101.8 2.654 0 4.123-1.372 4.123-4.152v-1.162h-.044c-.849 1.355-2.127 2.033-3.835 2.033a4.372 4.372 0 01-1.846-.341 4.172 4.172 0 01-1.504-1.076c-.845-.944-1.306-2.228-1.306-3.82 0-1.804.491-3.223 1.397-4.287.905-1.065 2.184-1.628 3.767-1.628 1.504 0 2.591.52 3.318 1.668h.044v-1.388h1.807v9.777zm-1.786-3.953V62.29c.002-.8-.325-1.57-.912-2.144a3.297 3.297 0 00-2.227-.926c-2.586 0-3.511 2.241-3.529 4.356 0 2.02 1.078 3.822 3.278 3.822s3.357-1.66 3.378-3.545l.012.005z" fill="url(#paint12_linear_204_392)"/><path d="M100.358 72.96l-5.61-3.754V49.44l5.654 1.65v13.29l-5.492 4.657 13.404-6.716-3.726-1.6-2.514-5.193 12.423 3.639v5.764l-14.139 8.03zm23.259-6.161h-.042v1.456h-1.681V53.401l1.688.48v6.11h.035c.831-1.331 2.046-1.996 3.646-1.996 1.352 0 2.411.45 3.176 1.348.765.898 1.148 2.103 1.148 3.614 0 1.68-.429 3.025-1.288 4.035-.858 1.009-2.03 1.504-3.515 1.485a3.612 3.612 0 01-1.832-.414 3.391 3.391 0 01-1.335-1.264zm-.042-4.05v1.4a2.911 2.911 0 00.857 2.11c.303.296.668.526 1.072.675a3.16 3.16 0 002.506-.138c.383-.192.718-.46.983-.787.581-.739.871-1.773.871-3.103 0-1.118-.271-1.993-.813-2.628-.264-.31-.6-.559-.983-.724a2.806 2.806 0 00-1.219-.227 3.122 3.122 0 00-1.3.233c-.41.168-.775.422-1.068.743a3.474 3.474 0 00-.896 2.439l-.01.006zm11.092-6.834a1.119 1.119 0 01-.418-.072 1.067 1.067 0 01-.597-.563.956.956 0 01-.077-.404.978.978 0 01.077-.403c.054-.128.134-.244.236-.342a1.125 1.125 0 01.779-.304 1.138 1.138 0 01.787.3c.103.096.184.212.24.34a1 1 0 010 .804 1.09 1.09 0 01-.601.569c-.135.052-.28.078-.426.075zm.824 12.34h-1.688V58.21h1.688v10.045zm11.557 0h-1.688v-5.73c0-2.132-.817-3.198-2.451-3.198a2.772 2.772 0 00-1.156.227c-.363.157-.684.39-.94.68a3.26 3.26 0 00-.828 2.29v5.731h-1.688V58.21h1.688v1.667h.041c.797-1.268 1.95-1.902 3.46-1.902 1.153 0 2.036.355 2.647 1.064.612.71.918 1.734.918 3.073l-.003 6.143zm11.958-.809c0 3.686-1.853 5.53-5.56 5.53a7.78 7.78 0 01-3.417-.706l.465-1.44c1.034.485 1.984.755 2.931.755 2.51 0 3.898-1.297 3.898-3.924v-1.108h-.042c-.813 1.282-2.023 1.924-3.63 1.924a4.134 4.134 0 01-1.744-.318 3.948 3.948 0 01-1.422-1.012c-.799-.887-1.234-2.106-1.234-3.61 0-1.707.466-3.046 1.327-4.052.862-1.007 2.065-1.539 3.562-1.539 1.42 0 2.45.49 3.136 1.574h.042v-1.31h1.688v9.236zm-1.699-3.736v-1.48a2.823 2.823 0 00-.859-2.024 3.111 3.111 0 00-2.098-.879c-2.445 0-3.318 2.118-3.337 4.117 0 1.91 1.02 3.612 3.099 3.612s3.174-1.565 3.195-3.346z" fill="#F4BD27"/><path d="M162.51 32.646c-1.236 0-2.524.86-2.524.86v-.552c0-.122-.051-.17-.177-.17h-1.578a.193.193 0 00-.142.041.172.172 0 00-.061.128v11.784c0 .122.051.195.179.195h1.604a.187.187 0 00.135-.06.174.174 0 00.036-.063.147.147 0 00.006-.072V34.65a3.565 3.565 0 011.649-.444c.861 0 1.539.408 1.539 1.242v9.294a.178.178 0 00.122.184c.025.01.053.013.08.01h1.577a.185.185 0 00.134-.06.175.175 0 00.036-.062.147.147 0 00.006-.072v-9.828c0-1.48-.954-2.268-2.621-2.268z" fill="url(#paint13_linear_204_392)"/><path d="M174.782 26.735h-1.574a.188.188 0 00-.141.042.169.169 0 00-.061.129v5.944a4.859 4.859 0 00-1.602-.34c-2.561 0-4.321 2.335-4.321 6.822 0 3.844 1.711 5.908 3.944 5.908.931 0 1.718-.514 2.286-.995l.344.556c.018.044.051.08.093.103a.227.227 0 00.14.026h.908a.186.186 0 00.136-.059.164.164 0 00.037-.064.162.162 0 00.007-.072V26.904c0-.122-.052-.171-.177-.171l-.019.002zm-5.618 12.194c0-2.472.759-4.922 2.31-4.922.559.005 1.1.196 1.527.54v8.714c-.425.237-.905.37-1.397.388-1.695-.002-2.44-1.9-2.44-4.714v-.006z" fill="url(#paint14_linear_204_392)"/><path d="M180.826 32.535c-2.626 0-3.923 3.274-3.923 6.84 0 3.73 1.848 5.821 4.228 5.821a6.24 6.24 0 002.768-.754.186.186 0 00.093-.093.173.173 0 00.005-.128l-.2-.79a.172.172 0 00-.07-.113.18.18 0 00-.133-.03 8.831 8.831 0 01-1.755.239c-1.947 0-2.838-1.65-2.838-3.838v-.532c.513.069 1.03.112 1.548.129h3.671v-1.011c0-3.734-1.371-5.731-3.392-5.731l-.002-.01zm-.126 5.225c-.582 0-1.63.138-1.63.138s.014-.402.066-.787c.232-2.047.74-3.082 1.629-3.082.769 0 1.297 1.06 1.423 2.913.026.386.026.818.026.818H180.7z" fill="url(#paint15_linear_204_392)"/><path d="M155.029 34.065c-.584-1.096-1.629-1.575-2.812-1.575a8.22 8.22 0 00-2.755.621c-.156.067-.253.127-.253.242a.47.47 0 00.077.222l.537 1.095a.222.222 0 00.083.11.243.243 0 00.134.043.41.41 0 00.214-.08c.778-.474 1.348-.734 1.797-.734.596 0 1.002.377 1.251.945.246.675.355 1.388.323 2.101v.249a4.18 4.18 0 00-1.762-.444c-2.279 0-3.509 2.064-3.509 4.27 0 2.379 1.437 4.122 3.164 4.122.962 0 1.833-.54 2.415-1.215 0 0 .309.705.351.789a.175.175 0 00.078.093c.037.021.08.029.122.022h.932a.182.182 0 00.171-.123.175.175 0 00.006-.072V37.9c0-1.68-.089-2.962-.554-3.835h-.01zm-1.397 8.954c-.39.384-.92.61-1.48.634-.233 0-.461-.057-.665-.164a1.366 1.366 0 01-.5-.448c-.367-.483-.537-1.228-.537-2.05 0-1.304.505-2.641 1.576-2.641a2.68 2.68 0 011.609.541v4.13l-.003-.002z" fill="url(#paint16_linear_204_392)"/><path d="M192.551 32.783h-1.397a.282.282 0 00-.171.044.264.264 0 00-.106.136l-.931 2.332c-.175.443-.643 1.705-.643 1.705h-.053s-.345-.92-.531-1.377c-.149-.372-.932-2.337-1.034-2.58-.054-.131-.112-.26-.314-.26h-1.544a.242.242 0 00-.178.095.209.209 0 00-.031.191c.055.111 2.507 5.434 2.507 5.434s-2.633 5.962-2.71 6.095a.213.213 0 00.001.224.24.24 0 00.206.109h1.348c.233 0 .319-.116.389-.3.193-.517.482-1.237.892-2.35.27-.739.698-2.031.698-2.031h.047s.465 1.32.642 1.75c.44 1.09 1.006 2.513 1.064 2.66.059.146.149.266.308.266h1.522c.152 0 .233-.164.152-.309-.17-.34-1.63-3.706-2.631-5.917 0 0 2.619-5.507 2.67-5.642.052-.135.035-.28-.179-.28l.007.005z" fill="url(#paint17_linear_204_392)"/><path d="M149.949 24.962h-1.774a.264.264 0 00-.174.04.24.24 0 00-.103.14c-.023.105-2.659 7.759-2.852 8.406-.135.443-.58 2.048-.685 2.439l-.917-2.386c-.233-.665-2.358-6.343-2.421-6.571-.035-.124-.096-.28-.324-.28h-1.732a.242.242 0 00-.174.087.218.218 0 00-.043.182c.045.089 3.171 8.017 4.424 11.045v6.651c0 .122.051.195.179.195h1.63a.187.187 0 00.134-.06.177.177 0 00.037-.063.175.175 0 00.006-.072v-6.607a1982.206 1982.206 0 014.943-12.887c.053-.113.037-.28-.18-.28l.026.02z" fill="url(#paint18_linear_204_392)"/><path d="M162.731 32.814c-1.15 0-2.351.8-2.351.8V33.1c0-.113-.047-.157-.166-.157h-1.469a.173.173 0 00-.172.092.147.147 0 00-.016.065v10.972c0 .113.046.182.165.182h1.492a.176.176 0 00.125-.056.152.152 0 00.041-.126v-9.391a3.31 3.31 0 011.534-.42c.801 0 1.434.38 1.434 1.156v8.646a.174.174 0 00.009.072.173.173 0 00.104.1c.024.009.05.012.076.01h1.469a.174.174 0 00.126-.055.154.154 0 00.039-.127v-9.136c.002-1.38-.885-2.113-2.44-2.113zm11.427-5.503h-1.469a.18.18 0 00-.131.04.163.163 0 00-.058.118v5.542a4.522 4.522 0 00-1.492-.314c-2.386 0-4.023 2.172-4.023 6.351 0 3.58 1.592 5.5 3.671 5.5.876 0 1.6-.478 2.131-.926l.321.519a.191.191 0 00.083.093.206.206 0 00.124.026h.845a.175.175 0 00.126-.055.169.169 0 00.034-.06.152.152 0 00.006-.066V27.462c0-.113-.047-.157-.166-.157l-.002.006zm-5.231 11.36c0-2.303.698-4.582 2.151-4.582a2.292 2.292 0 011.422.503v8.112a2.896 2.896 0 01-1.308.361c-1.569 0-2.263-1.775-2.263-4.394h-.002zm10.858-5.959c-2.447 0-3.653 3.048-3.653 6.367 0 3.474 1.723 5.42 3.935 5.42a5.795 5.795 0 002.577-.7.174.174 0 00.093-.093.164.164 0 00-.002-.128l-.186-.734a.16.16 0 00-.123-.133.175.175 0 00-.066-.002 8.214 8.214 0 01-1.629.221c-1.812 0-2.643-1.534-2.643-3.574v-.494c.478.064.959.104 1.441.12h3.418v-.942c0-3.477-1.278-5.337-3.159-5.337l-.003.01zm-.118 4.866c-.541 0-1.525.127-1.525.127s.014-.375.06-.734c.212-1.907.699-2.869 1.513-2.869.718 0 1.206.987 1.325 2.714.024.359.023.762.023.762h-1.396zm-23.897-3.44c-.543-1.02-1.511-1.466-2.62-1.466a7.65 7.65 0 00-2.561.577c-.144.062-.232.117-.232.221a.432.432 0 00.072.204l.5 1.02a.209.209 0 00.077.103c.037.025.081.04.126.039a.381.381 0 00.2-.073c.724-.444 1.255-.683 1.674-.683.557 0 .931.35 1.164.887a5.05 5.05 0 01.301 1.958v.221a3.892 3.892 0 00-1.63-.421c-2.124 0-3.26 1.922-3.26 3.975 0 2.217 1.339 3.838 2.945 3.838.897 0 1.707-.501 2.25-1.133 0 0 .288.665.326.736a.156.156 0 00.072.087c.034.02.074.028.114.021h.859a.18.18 0 00.069-.015.179.179 0 00.056-.04.155.155 0 00.04-.126v-6.36c0-1.564-.084-2.757-.517-3.57h-.025zm-1.309 8.338a2.089 2.089 0 01-1.378.59c-.217 0-.43-.053-.619-.153-.19-.1-.35-.243-.466-.417-.342-.444-.501-1.142-.501-1.909 0-1.213.466-2.459 1.467-2.459.544.003 1.072.18 1.497.504v3.844zm36.241-9.536h-1.308a.264.264 0 00-.16.042.243.243 0 00-.099.127l-.863 2.17c-.161.41-.599 1.588-.599 1.588h-.051s-.321-.856-.494-1.284c-.139-.346-.868-2.177-.961-2.403-.049-.122-.105-.242-.291-.242h-1.434a.218.218 0 00-.169.086.2.2 0 00-.036.087.21.21 0 00.009.093c.051.102 2.328 5.06 2.328 5.06s-2.451 5.542-2.523 5.675a.212.212 0 00.09.275c.031.019.066.03.103.033h1.257c.214 0 .298-.106.363-.28.182-.48.45-1.152.831-2.187.252-.688.652-1.891.652-1.891h.045s.437 1.228.598 1.63c.41 1.014.931 2.34.992 2.48.06.14.139.248.286.248h1.425c.142 0 .207-.153.14-.286-.159-.319-1.511-3.45-2.452-5.509 0 0 2.438-5.126 2.484-5.254.047-.129.033-.262-.167-.262l.004.005z" fill="#010202"/><path d="M151.039 25.66h-1.651a.24.24 0 00-.163.037.22.22 0 00-.095.131c-.021.1-2.478 7.234-2.655 7.829-.125.42-.54 1.906-.638 2.263l-.854-2.217c-.207-.612-2.195-5.906-2.254-6.117-.032-.115-.088-.261-.302-.261h-1.611a.216.216 0 00-.169.086.2.2 0 00-.036.087.185.185 0 00.009.093c.04.082 2.952 7.465 4.128 10.285v6.207c0 .113.046.182.165.182h1.521a.176.176 0 00.125-.056.169.169 0 00.034-.059.152.152 0 00.006-.067V37.92c.98-2.61 4.563-11.894 4.6-11.999.038-.104.033-.261-.167-.261h.007z" fill="#E52620"/></g><defs><linearGradient id="paint0_linear_204_392" x1="101.499" y1="120.235" x2="101.499" y2="84.49" gradientUnits="userSpaceOnUse"><stop stop-color="gray" stop-opacity=".25"/><stop offset=".54" stop-color="gray" stop-opacity=".12"/><stop offset="1" stop-color="gray" stop-opacity=".1"/></linearGradient><linearGradient id="paint1_linear_204_392" x1="170.289" y1="117.087" x2="170.289" y2="90.419" gradientUnits="userSpaceOnUse"><stop stop-color="#B3B3B3" stop-opacity=".25"/><stop offset=".54" stop-color="#B3B3B3" stop-opacity=".1"/><stop offset="1" stop-color="#B3B3B3" stop-opacity=".05"/></linearGradient><linearGradient id="paint2_linear_204_392" x1="161.632" y1="99.93" x2="161.632" y2="98.646" gradientUnits="userSpaceOnUse"><stop stop-opacity=".12"/><stop offset=".55" stop-opacity=".09"/><stop offset="1" stop-opacity=".02"/></linearGradient><linearGradient id="paint3_linear_204_392" x1="10445.4" y1="2528.99" x2="10445.4" y2="2459.59" gradientUnits="userSpaceOnUse"><stop stop-opacity=".12"/><stop offset=".55" stop-opacity=".09"/><stop offset="1" stop-opacity=".02"/></linearGradient><linearGradient id="paint4_linear_204_392" x1="19571.8" y1="11694.2" x2="19571.8" y2="6263.58" gradientUnits="userSpaceOnUse"><stop stop-color="gray" stop-opacity=".25"/><stop offset=".54" stop-color="gray" stop-opacity=".12"/><stop offset="1" stop-color="gray" stop-opacity=".1"/></linearGradient><linearGradient id="paint5_linear_204_392" x1="13245.8" y1="16506" x2="13245.8" y2="11832.8" gradientUnits="userSpaceOnUse"><stop stop-color="gray" stop-opacity=".25"/><stop offset=".54" stop-color="gray" stop-opacity=".12"/><stop offset="1" stop-color="gray" stop-opacity=".1"/></linearGradient><linearGradient id="paint6_linear_204_392" x1="10366.6" y1="8246.14" x2="10366.6" y2="6947.67" gradientUnits="userSpaceOnUse"><stop stop-color="gray" stop-opacity=".25"/><stop offset=".54" stop-color="gray" stop-opacity=".12"/><stop offset="1" stop-color="gray" stop-opacity=".1"/></linearGradient><linearGradient id="paint7_linear_204_392" x1="5616.24" y1="15911.8" x2="5616.24" y2="11567.4" gradientUnits="userSpaceOnUse"><stop stop-color="gray" stop-opacity=".25"/><stop offset=".54" stop-color="gray" stop-opacity=".12"/><stop offset="1" stop-color="gray" stop-opacity=".1"/></linearGradient><linearGradient id="paint8_linear_204_392" x1="9370.57" y1="8228.3" x2="9370.57" y2="5435.85" gradientUnits="userSpaceOnUse"><stop stop-color="gray" stop-opacity=".25"/><stop offset=".54" stop-color="gray" stop-opacity=".12"/><stop offset="1" stop-color="gray" stop-opacity=".1"/></linearGradient><linearGradient id="paint9_linear_204_392" x1="7390.12" y1="7848.24" x2="7390.12" y2="6697.01" gradientUnits="userSpaceOnUse"><stop stop-color="gray" stop-opacity=".25"/><stop offset=".54" stop-color="gray" stop-opacity=".12"/><stop offset="1" stop-color="gray" stop-opacity=".1"/></linearGradient><linearGradient id="paint10_linear_204_392" x1="1876.96" y1="7480.07" x2="1876.96" y2="6430.03" gradientUnits="userSpaceOnUse"><stop stop-color="gray" stop-opacity=".25"/><stop offset=".54" stop-color="gray" stop-opacity=".12"/><stop offset="1" stop-color="gray" stop-opacity=".1"/></linearGradient><linearGradient id="paint11_linear_204_392" x1="7368.45" y1="5347.37" x2="7368.45" y2="4814.52" gradientUnits="userSpaceOnUse"><stop stop-color="gray" stop-opacity=".25"/><stop offset=".54" stop-color="gray" stop-opacity=".12"/><stop offset="1" stop-color="gray" stop-opacity=".1"/></linearGradient><linearGradient id="paint12_linear_204_392" x1="8755.44" y1="8161.35" x2="8755.44" y2="7020.19" gradientUnits="userSpaceOnUse"><stop stop-color="gray" stop-opacity=".25"/><stop offset=".54" stop-color="gray" stop-opacity=".12"/><stop offset="1" stop-color="gray" stop-opacity=".1"/></linearGradient><linearGradient id="paint13_linear_204_392" x1="6254.36" y1="4700.89" x2="6254.36" y2="4019.81" gradientUnits="userSpaceOnUse"><stop stop-color="gray" stop-opacity=".25"/><stop offset=".54" stop-color="gray" stop-opacity=".12"/><stop offset="1" stop-color="gray" stop-opacity=".1"/></linearGradient><linearGradient id="paint14_linear_204_392" x1="7262.89" y1="7081.65" x2="7262.89" y2="5536.82" gradientUnits="userSpaceOnUse"><stop stop-color="gray" stop-opacity=".25"/><stop offset=".54" stop-color="gray" stop-opacity=".12"/><stop offset="1" stop-color="gray" stop-opacity=".1"/></linearGradient><linearGradient id="paint15_linear_204_392" x1="7052.38" y1="4856.38" x2="7052.38" y2="4133.29" gradientUnits="userSpaceOnUse"><stop stop-color="gray" stop-opacity=".25"/><stop offset=".54" stop-color="gray" stop-opacity=".12"/><stop offset="1" stop-color="gray" stop-opacity=".1"/></linearGradient><linearGradient id="paint16_linear_204_392" x1="6061.8" y1="4896.9" x2="6061.8" y2="4163.01" gradientUnits="userSpaceOnUse"><stop stop-color="gray" stop-opacity=".25"/><stop offset=".54" stop-color="gray" stop-opacity=".12"/><stop offset="1" stop-color="gray" stop-opacity=".1"/></linearGradient><linearGradient id="paint17_linear_204_392" x1="7373.46" y1="4647.8" x2="7373.46" y2="3981.89" gradientUnits="userSpaceOnUse"><stop stop-color="gray" stop-opacity=".25"/><stop offset=".54" stop-color="gray" stop-opacity=".12"/><stop offset="1" stop-color="gray" stop-opacity=".1"/></linearGradient><linearGradient id="paint18_linear_204_392" x1="9068.62" y1="7608.82" x2="9068.62" y2="5810.25" gradientUnits="userSpaceOnUse"><stop stop-color="gray" stop-opacity=".25"/><stop offset=".54" stop-color="gray" stop-opacity=".12"/><stop offset="1" stop-color="gray" stop-opacity=".1"/></linearGradient><clipPath id="clip0_204_392"><path fill="#fff" transform="translate(0 .758)" d="M0 0h203v119.477H0z"/></clipPath></defs></svg>