<svg width="373" height="245" fill="none" xmlns="http://www.w3.org/2000/svg"><path opacity=".5" d="M372.684 8.654L373 235.588c0 2.27-.899 4.448-2.5 6.053a8.52 8.52 0 01-6.034 2.507l-355.633.475a8.523 8.523 0 01-6.035-2.507 8.573 8.573 0 01-2.5-6.053L-.011 9.129a8.583 8.583 0 012.499-6.053A8.533 8.533 0 018.522.569L364.154.093a8.522 8.522 0 016.032 2.51 8.571 8.571 0 012.498 6.05z" fill="#CFCFCF"/><path d="M29.113 227.539l316.335-.443-.293-210.751-316.336.443.294 210.751z" fill="url(#paint0_linear_258_4)"/><path d="M11.43 237.219l348.971-.488c2.988-.004 5.407-2.438 5.403-5.435l-.304-218.34c-.004-2.997-2.43-5.424-5.418-5.42l-348.971.49c-2.989.004-5.408 2.437-5.404 5.434l.304 218.34c.005 2.997 2.43 5.424 5.419 5.419z" fill="#fff"/><path opacity=".2" d="M33.706 23.292V221.22H335.48l-.001-197.928H33.706z" fill="#ADA8FC"/><path d="M350.397 112.921c-4.601 0-8.33 3.652-8.33 8.158 0 4.505 3.729 8.158 8.33 8.158 4.6 0 8.329-3.653 8.329-8.158 0-4.506-3.729-8.158-8.329-8.158zM20.585 153.137c-1.534 0-2.778 1.216-2.778 2.717 0 1.501 1.244 2.718 2.778 2.718s2.778-1.217 2.778-2.718-1.244-2.717-2.778-2.717zm-1.98-45.311l.048 34.694c0 .18.146.325.325.325l2.13-.003a.325.325 0 00.323-.326l-.048-34.694a.325.325 0 00-.325-.325l-2.13.003a.325.325 0 00-.323.326z" fill="#DBDBDB"/><path d="M125.451 150.795H63v-38.406h71.088v26.921" fill="#F2F2F2"/><path d="M128.85 147.971H66.116V109h71.654v27.204h-.567v-26.639H66.682v37.842h62.168v.564zm25.588.142h-16.952v-.565h14.769l-14.765-8.195.276-.493 16.672 9.253z" fill="#000"/><path d="M129.556 122.555H74.329v.565h55.227v-.565zm0 5.648H74.329v.565h55.227v-.565zm0 5.648H74.329v.565h55.227v-.565z" fill="#000"/><path d="M153.342 150.047a2.321 2.321 0 002.325-2.318c0-1.28-1.04-2.318-2.325-2.318a2.32 2.32 0 00-2.324 2.318 2.32 2.32 0 002.324 2.318z" fill="#6C63FF"/><path d="M244.225 90.796h62.451V52.389h-71.088V79.31" fill="#F2F2F2"/><path d="M303.56 82.971h-62.734v-.564h62.168V44.565h-70.521v26.639h-.567V44h71.654v38.971zm-71.371.142h-16.951l16.672-9.253.275.493-14.765 8.195h14.769v.565z" fill="#000"/><path d="M295.347 57.555H240.12v.565h55.227v-.565zm0 5.648H240.12v.565h55.227v-.565zm0 5.648H240.12v.565h55.227v-.565z" fill="#000"/><path d="M216.325 85.047a2.322 2.322 0 002.325-2.318 2.322 2.322 0 00-2.325-2.318A2.322 2.322 0 00214 82.729a2.322 2.322 0 002.325 2.318z" fill="#6C63FF"/><path d="M241.225 201.795h62.451v-38.406h-71.088v26.921" fill="#F2F2F2"/><path d="M300.56 198.971h-62.734v-.564h62.168v-37.842h-70.521v26.639h-.567V160h71.654v38.971zm-71.371.142h-16.951l16.672-9.253.275.493-14.765 8.195h14.769v.565z" fill="#000"/><path d="M292.347 173.555H237.12v.565h55.227v-.565zm0 5.648H237.12v.565h55.227v-.565zm0 5.648H237.12v.565h55.227v-.565z" fill="#000"/><path d="M213.325 201.047a2.322 2.322 0 002.325-2.318 2.322 2.322 0 00-2.325-2.318 2.322 2.322 0 00-2.325 2.318 2.322 2.322 0 002.325 2.318z" fill="#6C63FF"/><defs><linearGradient id="paint0_linear_258_4" x1="346.958" y1="121.713" x2="29.175" y2="122.156" gradientUnits="userSpaceOnUse"><stop stop-opacity=".09"/><stop offset=".55" stop-opacity=".07"/><stop offset="1" stop-opacity=".02"/></linearGradient></defs></svg>