<svg width="108" height="110" fill="none" xmlns="http://www.w3.org/2000/svg"><g clip-path="url(#clip0_181_83)"><path d="M41.807 47.017c10.582 0 19.16-8.738 19.16-19.517 0-10.778-8.578-19.516-19.16-19.516-10.583 0-19.162 8.738-19.162 19.517 0 10.778 8.58 19.516 19.162 19.516z" fill="#4BCF84"/><path d="M85.355 77.177c4.81 0 8.71-3.971 8.71-8.87 0-4.9-3.9-8.872-8.71-8.872-4.81 0-8.71 3.972-8.71 8.871 0 4.9 3.9 8.871 8.71 8.871zm-26.129-5.322c4.81 0 8.71-3.971 8.71-8.87 0-4.9-3.9-8.872-8.71-8.872-4.81 0-8.71 3.972-8.71 8.871 0 4.9 3.9 8.871 8.71 8.871zm15.677-12.419c4.81 0 8.71-3.971 8.71-8.87 0-4.9-3.9-8.872-8.71-8.872-4.81 0-8.71 3.972-8.71 8.871 0 4.9 3.9 8.871 8.71 8.871z" fill="#4C8FF5"/><path d="M13.935 98.468h-3.483v3.548h3.483v-3.548zm6.968 0H17.42v3.548h3.484v-3.548zm6.968 0h-3.484v3.548h3.484v-3.548z" fill="#000"/><path d="M104.516 34.596h-.054A8.892 8.892 0 00108 27.5c0-4.892-3.907-8.871-8.71-8.871H74.903V15.08H71.42v3.549h-5.008C62.812 8.309 53.157.887 41.806.887c-13.818 0-25.137 10.99-26.04 24.838h-3.572c-4.803 0-8.71 3.98-8.71 8.871v56.775H0v8.871c0 4.891 3.907 8.871 8.71 8.871h90.58c4.803 0 8.71-3.98 8.71-8.871v-8.871h-3.484V34.596zM99.29 22.177c2.881 0 5.226 2.388 5.226 5.323 0 2.934-2.345 5.322-5.226 5.322H74.903V22.177H99.29zm-27.87 0v10.645h-4.01a27.193 27.193 0 000-10.645h4.01zM41.805 4.435c12.487 0 22.646 10.347 22.646 23.065 0 12.717-10.16 23.064-22.646 23.064S19.161 40.217 19.161 27.5c0-12.718 10.16-23.065 22.645-23.065zM6.968 34.596c0-2.934 2.344-5.322 5.226-5.322h3.572c.079 1.203.207 2.393.44 3.548h-2.27c-1.922 0-3.484 1.592-3.484 3.549v51.451h3.483V36.371h3.267C20.8 46.69 30.456 54.112 41.806 54.112s21.007-7.42 24.605-17.741h5.008v3.548h3.484v-3.548h19.161v51.451h3.484V36.371h1.742a8.55 8.55 0 001.742-.18v55.18H6.968V34.596zM41.806 94.92h24.388v1.774c0 .98-.783 1.774-1.742 1.774H43.548c-.96 0-1.742-.794-1.742-1.774V94.92zm62.71 5.323c0 2.934-2.345 5.322-5.226 5.322H8.71c-2.881 0-5.226-2.388-5.226-5.322V94.92h34.839v1.774c0 2.935 2.344 5.323 5.225 5.323h20.904c2.88 0 5.225-2.388 5.225-5.323V94.92h34.839v5.323z" fill="#000"/><path d="M41.806 32.823c-.96 0-1.742-.795-1.742-1.774h-3.483a5.31 5.31 0 003.483 4.996v3.875h3.484v-3.875a5.31 5.31 0 003.484-4.996c0-2.935-2.344-5.323-5.226-5.323-.96 0-1.742-.795-1.742-1.774 0-.98.783-1.774 1.742-1.774.96 0 1.742.795 1.742 1.774h3.484a5.31 5.31 0 00-3.484-4.996V15.08h-3.484v3.875a5.31 5.31 0 00-3.483 4.996c0 2.934 2.344 5.323 5.225 5.323.96 0 1.742.794 1.742 1.774s-.782 1.774-1.742 1.774zm43.549 30.161c-.357 0-.704.037-1.04.107l-5.397-9.16a5.334 5.334 0 001.211-3.366c0-2.935-2.345-5.323-5.226-5.323-2.88 0-5.226 2.388-5.226 5.323 0 .585.115 1.137.288 1.664l-7.93 6.28a5.123 5.123 0 00-2.81-.848c-2.88 0-5.225 2.389-5.225 5.323 0 2.935 2.345 5.323 5.226 5.323s5.226-2.388 5.226-5.323a5.33 5.33 0 00-.288-1.666l7.93-6.28a5.11 5.11 0 003.85.743l5.397 9.16a5.326 5.326 0 00-1.212 3.366c0 2.934 2.345 5.322 5.226 5.322s5.226-2.388 5.226-5.322c0-2.935-2.345-5.323-5.226-5.323zM74.903 48.791c.96 0 1.742.794 1.742 1.774s-.782 1.774-1.742 1.774-1.742-.795-1.742-1.774c0-.98.782-1.774 1.742-1.774zM59.226 64.758c-.96 0-1.742-.794-1.742-1.774s.782-1.774 1.742-1.774 1.742.795 1.742 1.774c0 .98-.782 1.774-1.742 1.774zm26.129 5.323c-.96 0-1.742-.795-1.742-1.774 0-.98.782-1.775 1.742-1.775s1.742.795 1.742 1.775c0 .979-.782 1.774-1.742 1.774zm-1.742 14.193H55.742v3.549h27.87v-3.549zm6.967 0h-3.483v3.549h3.484v-3.549zm0-7.096H55.743v3.548H90.58v-3.548zm-38.322 7.096H17.42v3.549h34.84v-3.549zm0-7.096H17.42v3.548h34.84v-3.548zm0-7.097H17.42v3.548h34.84v-3.548zM54 25.726h-3.484v3.548H54v-3.548zm-20.903 0h-3.484v3.548h3.484v-3.548z" fill="#000"/></g><defs><clipPath id="clip0_181_83"><path fill="#fff" d="M0 0h108v110H0z"/></clipPath></defs></svg>