<svg width="107" height="109" fill="none" xmlns="http://www.w3.org/2000/svg"><g clip-path="url(#clip0_181_36)"><path d="M22.436 82.63v-1.76l5.177-49.225h51.774l5.178 49.225v1.758h-62.13z" fill="#4BCF84"/><path d="M75.936 94.935h27.612v5.274c0 2.908-2.323 5.274-5.177 5.274H8.629c-2.854 0-5.177-2.366-5.177-5.274v-5.274h27.613V91.42H0v8.79c0 4.846 3.871 8.79 8.629 8.79h89.742c4.758 0 8.629-3.944 8.629-8.791v-8.79H75.936v3.516z" fill="#000"/><path d="M39.694 101.967h27.612c2.855 0 5.178-2.366 5.178-5.274V91.42H34.516v5.274c0 2.908 2.323 5.274 5.178 5.274zm-1.726-7.032h31.064v1.758c0 .97-.775 1.758-1.726 1.758H39.694c-.951 0-1.726-.787-1.726-1.758v-1.758zm-24.162 3.516h-3.451v3.516h3.451v-3.516zm6.904 0h-3.452v3.516h3.452v-3.516zm6.903 0h-3.452v3.516h3.452v-3.516zm70.758-82.629H72.484v3.516H98.37c2.854 0 5.177 2.367 5.177 5.275v63.29H107v-63.29c0-4.847-3.871-8.79-8.629-8.79zM3.452 24.613c0-2.908 2.323-5.275 5.177-5.275h22.435v-3.516H8.63c-4.759 0-8.63 3.944-8.63 8.79v63.29h3.452v-63.29z" fill="#000"/><path d="M96.645 87.903h3.452V26.37c0-1.94-1.548-3.516-3.452-3.516H72.484v3.516h24.161v61.532zm-65.58-65.048h-20.71c-1.904 0-3.452 1.576-3.452 3.516v61.532h3.452V26.37h20.71v-3.516z" fill="#000"/><path d="M69.032 38.677h-3.451V17.581c0-7.755-6.194-14.065-13.807-14.065-7.612 0-13.806 6.31-13.806 14.065v21.096h-3.452V17.581C34.516 7.887 42.258 0 51.774 0c9.516 0 17.258 7.887 17.258 17.58v21.097z" fill="#4C8FF5"/><path d="M36.242 36.919c-2.855 0-5.177 2.366-5.177 5.274s2.322 5.274 5.177 5.274c2.854 0 5.177-2.366 5.177-5.274s-2.323-5.274-5.177-5.274zm0 7.032c-.951 0-1.726-.787-1.726-1.758 0-.97.775-1.758 1.726-1.758.95 0 1.726.788 1.726 1.758s-.775 1.758-1.726 1.758zm36.242-1.758c0-2.908-2.323-5.274-5.178-5.274-2.854 0-5.177 2.366-5.177 5.274s2.323 5.274 5.177 5.274c2.855 0 5.178-2.366 5.178-5.274zm-6.903 0c0-.97.774-1.758 1.725-1.758.951 0 1.726.788 1.726 1.758s-.775 1.758-1.726 1.758c-.95 0-1.725-.787-1.725-1.758z" fill="#000"/></g><defs><clipPath id="clip0_181_36"><path fill="#fff" d="M0 0h107v109H0z"/></clipPath></defs></svg>