<svg width="106" height="109" fill="none" xmlns="http://www.w3.org/2000/svg"><g clip-path="url(#clip0_181_70)"><path d="M80.068 50.202l-6.552-4.492-6.551 4.492 3.132 4.298-1.71 12.307 5.13 5.274 5.128-5.274-1.71-12.307 3.133-4.298z" fill="#4C8FF5"/><path d="M6.839 7.032h34.193v22.855H6.84V7.032zm31.274 83.872l6.338-6.517 10.258 10.547-6.339 6.518-10.257-10.548zM7.339 59.26l6.338-6.518L23.935 63.29l-6.338 6.518L7.339 59.259z" fill="#4BCF84"/><path d="M5.129 38.677h12.71l5.013 8.592 5.431-8.592h14.459c2.827 0 5.129-2.366 5.129-5.274V5.274c0-2.907-2.302-5.274-5.13-5.274H5.13C2.302 0 0 2.367 0 5.274v28.13c0 2.907 2.302 5.273 5.129 5.273zM3.419 5.274c0-.968.767-1.758 1.71-1.758h37.613c.943 0 1.71.79 1.71 1.758v28.13c0 .967-.767 1.757-1.71 1.757H28.283a3.385 3.385 0 00-2.868 1.6l-2.449 3.873-2.195-3.764c-.614-1.053-1.738-1.709-2.932-1.709H5.129c-.943 0-1.71-.79-1.71-1.758V5.274z" fill="#000"/><path d="M6.839 7.032h3.419v3.516h-3.42V7.032zm6.839 0h27.354v3.516H13.678V7.032zm-6.839 7.033h34.193v3.516H6.84v-3.516zm0 7.032h34.193v3.516H6.84v-3.516zm0 7.032h34.193v3.516H6.84v-3.516z" fill="#000"/><path d="M86.867 27.066a9.06 9.06 0 00.327-2.354V16.24c0-2.93-1.501-5.583-3.948-7.032-2.4-3.567-6.331-5.69-10.56-5.69-7.084 0-12.847 5.926-12.847 13.21v7.985a9.1 9.1 0 00.326 2.354L41.032 46.74v38.678l-3.42 3.516c-.907.936-2.514.934-3.418 0l-14.68-15.095a2.498 2.498 0 01-.707-1.758c0-.664.25-1.288.707-1.758l6.84-7.032-12.677-13.035L2.918 61.32C1.036 63.254 0 65.827 0 68.565c0 2.737 1.036 5.311 2.918 7.245L32.277 106c1.855 1.907 4.423 3 7.046 3s5.19-1.093 7.045-3.001l10.76-11.063H106V46.74L86.867 27.066zm-2.385 43.257l18.099-18.61v37.22l-18.099-18.61zM53 55.531v-5.937c0-2.492 1.651-4.608 4.016-5.15l4.7-1.074 2.045 12.618 9.755-8.026 9.756 8.026 2.044-12.618 4.7 1.074c2.365.54 4.016 2.658 4.016 5.148v5.937L73.516 76.626 53 55.53zm37.758-14.518l-8.694-1.987v-2.832a8.783 8.783 0 001.71-2.374l1.609-3.307 16.49 16.955-4.421 4.546v-2.42c0-4.153-2.751-7.682-6.694-8.581zm-22.37-1.456v-1.275a8.338 8.338 0 002.516.396h5.226c.87 0 1.715-.143 2.517-.394v1.273l-5.13 3.956-5.13-3.956zm-2.107 2.77l4.444 3.429-4.55 3.742-1.116-6.89 1.222-.28zm14.47 0l1.225.28-1.117 6.89-4.55-3.743 4.442-3.426zm3.023-17.615c0 .814-.186 1.63-.54 2.36l-2.518 5.174c-.875 1.8-2.632 2.916-4.588 2.916h-5.226c-1.956 0-3.712-1.116-4.587-2.916l-2.518-5.175a5.456 5.456 0 01-.539-2.359v-3.734c2.503-.271 4.864-1.21 6.839-2.806a13.053 13.053 0 008.254 2.925h5.423v3.615zm-20.516 9.106a8.78 8.78 0 001.71 2.374v2.832l-8.694 1.987c-3.943.901-6.693 4.43-6.693 8.581v2.42l-4.422-4.544 16.49-16.956 1.61 3.306zm9.428-26.785c3.158 0 6.091 1.614 7.843 4.316l.366.564.406.21c1.524.783 2.473 2.36 2.473 4.115v1.343h-5.423c-2.662 0-5.165-1.065-7.045-3.001l-1.21-1.245-1.208 1.245a9.783 9.783 0 01-5.63 2.887v-.74c0-5.345 4.23-9.694 9.428-9.694zm-28.234 44.68l18.098 18.61-14.679 15.095-3.42-3.517V51.712zm-.501 51.8a6.503 6.503 0 01-4.628 1.971 6.503 6.503 0 01-4.629-1.971L5.336 73.324a6.785 6.785 0 01-1.917-4.759c0-1.797.68-3.488 1.917-4.76l8.341-8.577 7.84 8.063-4.42 4.544a6.049 6.049 0 00-1.71 4.246c0 1.605.607 3.112 1.71 4.244L31.776 91.42c2.199 2.266 6.046 2.271 8.255 0l4.42-4.546 7.841 8.062-8.341 8.577zm9.757-12.093l-3.42-3.516 14.68-15.095 8.548 8.79 8.548-8.79 18.099 18.61H53.708z" fill="#000"/></g><defs><clipPath id="clip0_181_70"><path fill="#fff" d="M0 0h106v109H0z"/></clipPath></defs></svg>