<svg width="20" height="20" fill="none" xmlns="http://www.w3.org/2000/svg"><g clip-path="url(#clip0_508_15)"><path d="M8.659 15.078H1.953c-.863 0-1.562-.7-1.562-1.563V5.703c0-.863.7-1.562 1.562-1.562h16.094c.863 0 1.562.7 1.562 1.562v7.812c0 .864-.7 1.563-1.562 1.563h-1.35" fill="#fff"/><path d="M15.04 14.911l-.951.952 1.979 1.979L14.3 19.61l-1.979-1.98-.71.71-1.255-4.684 4.684 1.255z" fill="#4C8FF5"/><path d="M18.047 3.75h-6.458a.39.39 0 000 .781h6.458c.646 0 1.172.526 1.172 1.172v7.812c0 .647-.526 1.172-1.172 1.172h-1.35a.39.39 0 000 .782h1.35A1.955 1.955 0 0020 13.515V5.703a1.955 1.955 0 00-1.953-1.953zM8.659 14.687H1.953a1.173 1.173 0 01-1.172-1.171V5.702c0-.646.526-1.172 1.172-1.172h6.51a.39.39 0 000-.781h-6.51A1.955 1.955 0 000 5.703v7.812c0 1.077.876 1.954 1.953 1.954H8.66a.39.39 0 000-.782z" fill="#fff"/><path d="M11.564 10.611V7.266a.39.39 0 00-.782 0v3.345a.952.952 0 01-1.902 0V7.266a.39.39 0 00-.781 0v3.345c0 .956.777 1.733 1.732 1.733.956 0 1.733-.777 1.733-1.733zM6.445 8.438c0-.862-.7-1.563-1.562-1.563h-1.58a.39.39 0 00-.391.39v4.688c0 .216.175.39.39.39h1.58a1.564 1.564 0 001.033-2.734 1.56 1.56 0 00.53-1.171zm-.781 2.343c0 .431-.35.781-.781.781h-1.19V10h1.19c.43 0 .78.35.78.781zM3.694 9.22V7.656h1.189a.782.782 0 010 1.563h-1.19zm11.43 3.124a.39.39 0 00.39-.39v-1.546l1.53-2.963a.39.39 0 10-.694-.359l-1.226 2.375-1.226-2.375a.39.39 0 10-.695.359l1.53 2.963v1.545c0 .216.175.39.391.39z" fill="#4C8FF5"/><path d="M10 3.114a.39.39 0 00.391-.39V.39a.39.39 0 10-.781 0v2.332c0 .216.175.39.39.39zm2.05.228c.1 0 .2-.038.277-.115l.951-.95a.39.39 0 10-.552-.553l-.951.95a.39.39 0 00.276.668zm-4.376-.117a.39.39 0 00.552 0 .39.39 0 000-.552l-.951-.951a.39.39 0 00-.552.552l.95.951zm6.967 12.638l.675-.675a.39.39 0 00-.175-.654l-4.684-1.255a.39.39 0 00-.478.478l1.255 4.684a.39.39 0 00.654.175l.433-.433 1.703 1.703a.39.39 0 00.552 0l1.768-1.768a.39.39 0 000-.552l-1.703-1.703zm-.34 3.194l-1.704-1.703a.39.39 0 00-.552 0l-.231.231-.905-3.376 3.376.905-.473.472a.39.39 0 000 .553l1.703 1.703-1.215 1.215zM9.988 4.531a.393.393 0 00.277-.667.394.394 0 00-.554 0 .394.394 0 000 .553.394.394 0 00.277.114z" fill="#fff"/></g><defs><clipPath id="clip0_508_15"><path fill="#fff" d="M0 0h20v20H0z"/></clipPath></defs></svg>