<svg width="173" height="269" fill="none" xmlns="http://www.w3.org/2000/svg"><path d="M171.835 181.897a28.921 28.921 0 00-7.513-19.449 28.822 28.822 0 00-18.626-9.314 28.798 28.798 0 00-20.032 5.673 28.896 28.896 0 00-11 17.705l-88.632-2.407.972 15.257s-12.636 29.213 53.782 37.005v29.541h76.791V206.81a28.842 28.842 0 0010.44-10.555 28.918 28.918 0 003.818-14.358z" fill="url(#paint0_linear_267_3)"/><path d="M30.048 189.979s-12.1 27.975 51.511 35.44v28.29h73.539v-74.913l-125.984-3.402.934 14.585z" fill="#FFC1A4"/><path d="M66.8 73.242a13.557 13.557 0 01-8.445 5.98 13.54 13.54 0 01-10.198-1.726L8.67 51.43a13.58 13.58 0 01-5.97-8.46 13.602 13.602 0 011.724-10.217 13.558 13.558 0 018.446-5.98A13.536 13.536 0 0123.068 28.5l39.486 26.065a13.58 13.58 0 015.97 8.46A13.6 13.6 0 0166.8 73.242z" fill="url(#paint1_linear_267_3)"/><path d="M64.605 71.817a12.606 12.606 0 01-7.853 5.554c-3.247.74-6.655.162-9.478-1.607L10.568 51.52a12.628 12.628 0 01-5.544-7.868 12.648 12.648 0 011.604-9.495 12.607 12.607 0 017.853-5.554 12.587 12.587 0 019.478 1.607l36.706 24.245a12.628 12.628 0 015.544 7.867 12.648 12.648 0 01-1.604 9.495zm76.528 138.685c15.251 0 27.615-12.386 27.615-27.665s-12.364-27.664-27.615-27.664c-15.251 0-27.615 12.385-27.615 27.664 0 15.279 12.364 27.665 27.615 27.665z" fill="#FFC1A4"/><path d="M136.157.363H30.362a4.352 4.352 0 00-4.348 4.356v198.318a4.352 4.352 0 004.348 4.356h105.795a4.351 4.351 0 004.347-4.356V4.719a4.351 4.351 0 00-4.347-4.356z" fill="url(#paint2_linear_267_3)"/><path d="M133.172 3.162H33.356a5.797 5.797 0 00-5.792 5.802v189.832a5.796 5.796 0 005.792 5.802h99.816a5.796 5.796 0 005.791-5.802V8.964a5.797 5.797 0 00-5.791-5.802z" fill="#fff"/><path d="M111.25 8.215a9.045 9.045 0 01-3.035 5.502 9.022 9.022 0 01-5.881 2.192h-38.46a9.021 9.021 0 01-5.88-2.192 9.051 9.051 0 01-3.035-5.502h-20.38a4.242 4.242 0 00-3.003 1.246 4.258 4.258 0 00-1.244 3.007v182.857a4.26 4.26 0 001.244 3.008 4.24 4.24 0 003.002 1.246h97.358a4.244 4.244 0 003.003-1.246 4.26 4.26 0 001.243-3.008V12.451a4.245 4.245 0 00-4.246-4.253l-20.686.017z" fill="#6C63FF"/><path d="M95.057 10.622H71.785a.777.777 0 100 1.553h23.272a.777.777 0 100-1.553zm6.05 1.553a.93.93 0 10-.001-1.861.93.93 0 00.001 1.86z" fill="#DBDBDB"/><path d="M158.987 187.716c-8.012 1.855-13.515-3.377-15.371-11.408l-18.405-68.498a15.048 15.048 0 011.899-11.3 15 15 0 019.301-6.67 14.975 14.975 0 0111.281 1.914 15.022 15.022 0 016.65 9.327l15.026 70.255c1.855 8.009-2.369 14.525-10.381 16.38z" fill="url(#paint3_linear_267_3)"/><path d="M152.268 102.739c-1.562-6.775-8.311-10.998-15.074-9.433-6.763 1.566-10.979 8.327-9.416 15.102l16.935 73.424c1.562 6.775 8.311 10.998 15.074 9.433 6.763-1.565 10.978-8.326 9.416-15.101l-16.935-73.425z" fill="#FFC1A4"/><path d="M168.633 244.453H63.523V269h105.11v-24.547z" fill="url(#paint4_linear_267_3)"/><path d="M165.793 247.299h-99.43v19.208h99.43v-19.208z" fill="#4D8AF0"/><path d="M51.468 146.73a13.399 13.399 0 01-8.346 5.902 13.37 13.37 0 01-10.072-1.709L6.573 133.761A13.42 13.42 0 01.68 125.4a13.44 13.44 0 011.705-10.091 13.391 13.391 0 018.346-5.902 13.375 13.375 0 0110.073 1.708l26.477 17.163a13.42 13.42 0 015.892 8.361 13.441 13.441 0 01-1.706 10.091z" fill="url(#paint5_linear_267_3)"/><path d="M44.828 183.063a13.515 13.515 0 01-8.42 5.956 13.496 13.496 0 01-10.164-1.724L9.842 175.308a13.537 13.537 0 01-5.946-8.435 13.56 13.56 0 011.721-10.182 13.515 13.515 0 018.42-5.956 13.491 13.491 0 0110.164 1.724l16.402 11.999a13.538 13.538 0 015.94 8.43 13.561 13.561 0 01-1.715 10.175z" fill="url(#paint6_linear_267_3)"/><path opacity=".5" d="M83.262 135.875c17.638 0 31.937-14.325 31.937-31.995S100.9 71.885 83.262 71.885c-17.639 0-31.938 14.325-31.938 31.995s14.3 31.995 31.938 31.995z" fill="url(#paint7_linear_267_3)"/><path d="M83.261 133.994c16.603 0 30.061-13.482 30.061-30.114s-13.458-30.115-30.06-30.115c-16.603 0-30.061 13.483-30.061 30.115 0 16.632 13.458 30.114 30.06 30.114z" fill="#69F0AE"/><path d="M70.214 99.865l11.273 10.349 15.969-23.526 5.638 4.704-21.607 28.234-15.969-17.881 4.696-1.88z" fill="#fff"/><path d="M43.503 182.17a12.589 12.589 0 01-17.332 3.947l-15.285-11.174a12.628 12.628 0 01-5.544-7.867 12.649 12.649 0 011.604-9.496 12.607 12.607 0 017.853-5.554 12.584 12.584 0 019.479 1.607l15.285 11.174a12.629 12.629 0 015.544 7.867 12.65 12.65 0 01-1.604 9.496zm6.517-36.368a12.604 12.604 0 01-7.853 5.554c-3.247.74-6.655.162-9.478-1.607L7.774 133.586a12.628 12.628 0 01-5.544-7.867 12.65 12.65 0 011.604-9.496 12.607 12.607 0 017.865-5.557 12.588 12.588 0 019.488 1.623l24.915 16.163a12.629 12.629 0 015.526 7.867 12.647 12.647 0 01-1.608 9.483z" fill="#FFC1A4"/><path d="M58.321 110.579a13.454 13.454 0 01-8.383 5.932 13.43 13.43 0 01-10.12-1.717L6.275 92.906a13.479 13.479 0 01-5.92-8.399A13.5 13.5 0 012.067 74.37a13.456 13.456 0 018.383-5.931 13.435 13.435 0 0110.12 1.716l33.543 21.889a13.479 13.479 0 015.92 8.398 13.5 13.5 0 01-1.713 10.138z" fill="url(#paint8_linear_267_3)"/><path d="M56.538 109.431a12.607 12.607 0 01-7.853 5.554c-3.248.74-6.655.162-9.479-1.607L7.787 92.876a12.628 12.628 0 01-5.544-7.867 12.648 12.648 0 011.604-9.496 12.607 12.607 0 017.857-5.558c3.25-.74 6.659-.16 9.483 1.611l31.42 20.502a12.628 12.628 0 015.539 7.87 12.649 12.649 0 01-1.608 9.493z" fill="#FFC1A4"/><defs><linearGradient id="paint0_linear_267_3" x1="57780.1" y1="81337.7" x2="57780.1" y2="56446" gradientUnits="userSpaceOnUse"><stop stop-color="gray" stop-opacity=".25"/><stop offset=".54" stop-color="gray" stop-opacity=".12"/><stop offset="1" stop-color="gray" stop-opacity=".1"/></linearGradient><linearGradient id="paint1_linear_267_3" x1="16426.6" y1="19917.4" x2="16426.6" y2="13281.7" gradientUnits="userSpaceOnUse"><stop stop-color="gray" stop-opacity=".25"/><stop offset=".54" stop-color="gray" stop-opacity=".12"/><stop offset="1" stop-color="gray" stop-opacity=".1"/></linearGradient><linearGradient id="paint2_linear_267_3" x1="41082.7" y1="139701" x2="41082.7" y2="38933.8" gradientUnits="userSpaceOnUse"><stop stop-color="gray" stop-opacity=".25"/><stop offset=".54" stop-color="gray" stop-opacity=".12"/><stop offset="1" stop-color="gray" stop-opacity=".1"/></linearGradient><linearGradient id="paint3_linear_267_3" x1="23060" y1="62179.8" x2="23060" y2="39309.6" gradientUnits="userSpaceOnUse"><stop stop-color="gray" stop-opacity=".25"/><stop offset=".54" stop-color="gray" stop-opacity=".12"/><stop offset="1" stop-color="gray" stop-opacity=".1"/></linearGradient><linearGradient id="paint4_linear_267_3" x1="45875.2" y1="20334" x2="45875.2" y2="18917.4" gradientUnits="userSpaceOnUse"><stop stop-color="gray" stop-opacity=".25"/><stop offset=".54" stop-color="gray" stop-opacity=".12"/><stop offset="1" stop-color="gray" stop-opacity=".1"/></linearGradient><linearGradient id="paint5_linear_267_3" x1="12042.1" y1="24118.1" x2="12042.1" y2="19588.4" gradientUnits="userSpaceOnUse"><stop stop-color="gray" stop-opacity=".25"/><stop offset=".54" stop-color="gray" stop-opacity=".12"/><stop offset="1" stop-color="gray" stop-opacity=".1"/></linearGradient><linearGradient id="paint6_linear_267_3" x1="9642.22" y1="24793" x2="9642.22" y2="21224.4" gradientUnits="userSpaceOnUse"><stop stop-color="gray" stop-opacity=".25"/><stop offset=".54" stop-color="gray" stop-opacity=".12"/><stop offset="1" stop-color="gray" stop-opacity=".1"/></linearGradient><linearGradient id="paint7_linear_267_3" x1="12577.2" y1="27433.1" x2="12577.2" y2="17805.9" gradientUnits="userSpaceOnUse"><stop stop-color="gray" stop-opacity=".25"/><stop offset=".54" stop-color="gray" stop-opacity=".12"/><stop offset="1" stop-color="gray" stop-opacity=".1"/></linearGradient><linearGradient id="paint8_linear_267_3" x1="14133.5" y1="22591.5" x2="14133.5" y2="17004.8" gradientUnits="userSpaceOnUse"><stop stop-color="gray" stop-opacity=".25"/><stop offset=".54" stop-color="gray" stop-opacity=".12"/><stop offset="1" stop-color="gray" stop-opacity=".1"/></linearGradient></defs></svg>